<svg width="232" height="206" viewBox="0 0 232 206" fill="none" xmlns="http://www.w3.org/2000/svg">
<g clip-path="url(#clip0)">
<rect width="232" height="206" fill="white"/>
<path opacity="0.8" d="M36.8098 21.931H218.745C222.134 21.931 223.828 21.7453 223.828 21.3738V9.55728C223.828 9.18576 222.134 9 218.745 9L36.8098 9C33.4209 9 31.7265 9.18576 31.7265 9.55728V21.3738C31.7265 21.7453 33.4209 21.931 36.8098 21.931Z" fill="white" stroke="#CCCCCC" stroke-width="0.7"/>
<path d="M111.867 15.5C111.867 14.3066 111.425 13.1619 110.64 12.318C109.854 11.4741 108.787 11 107.676 11C106.564 11 105.498 11.4741 104.712 12.318C103.926 13.1619 103.485 14.3066 103.485 15.5C103.485 16.6934 103.926 17.8381 104.712 18.682C105.498 19.5259 106.564 20 107.676 20C108.787 20 109.854 19.5259 110.64 18.682C111.425 17.8381 111.867 16.6934 111.867 15.5Z" fill="#C585DB" stroke="black" stroke-opacity="0.9"/>
<path d="M181.175 18V17.721H180.959C180.266 17.721 180.248 17.622 180.248 17.298V12.555C180.248 12.231 180.266 12.132 180.959 12.132H181.175V11.853H179.654C179.42 11.853 179.42 11.862 179.357 12.024L177.386 17.091L175.433 12.051C175.352 11.853 175.325 11.853 175.118 11.853H173.597V12.132H173.813C174.506 12.132 174.524 12.231 174.524 12.555V17.055C174.524 17.298 174.524 17.721 173.597 17.721V18L174.65 17.973L175.703 18V17.721C174.776 17.721 174.776 17.298 174.776 17.055V12.204H174.785L176.954 17.802C176.999 17.919 177.044 18 177.134 18C177.233 18 177.26 17.928 177.296 17.829L179.51 12.132H179.519V17.298C179.519 17.622 179.501 17.721 178.808 17.721H178.592V18C178.925 17.973 179.537 17.973 179.888 17.973C180.239 17.973 180.842 17.973 181.175 18ZM185.756 16.074C185.756 14.922 184.856 13.968 183.767 13.968C182.642 13.968 181.769 14.949 181.769 16.074C181.769 17.235 182.705 18.099 183.758 18.099C184.847 18.099 185.756 17.217 185.756 16.074ZM185.009 16.002C185.009 16.326 185.009 16.812 184.811 17.208C184.613 17.613 184.217 17.874 183.767 17.874C183.38 17.874 182.984 17.685 182.741 17.271C182.516 16.875 182.516 16.326 182.516 16.002C182.516 15.651 182.516 15.165 182.732 14.769C182.975 14.355 183.398 14.166 183.758 14.166C184.154 14.166 184.541 14.364 184.775 14.751C185.009 15.138 185.009 15.66 185.009 16.002ZM190.832 18V17.721C190.364 17.721 190.139 17.721 190.13 17.451V15.732C190.13 14.958 190.13 14.679 189.851 14.355C189.725 14.202 189.428 14.022 188.906 14.022C188.249 14.022 187.826 14.409 187.574 14.967V14.022L186.305 14.121V14.4C186.935 14.4 187.007 14.463 187.007 14.904V17.316C187.007 17.721 186.908 17.721 186.305 17.721V18L187.322 17.973L188.33 18V17.721C187.727 17.721 187.628 17.721 187.628 17.316V15.66C187.628 14.724 188.267 14.22 188.843 14.22C189.41 14.22 189.509 14.706 189.509 15.219V17.316C189.509 17.721 189.41 17.721 188.807 17.721V18L189.824 17.973L190.832 18ZM193.751 16.884V16.371H193.526V16.866C193.526 17.532 193.256 17.874 192.923 17.874C192.32 17.874 192.32 17.055 192.32 16.902V14.4H193.607V14.121H192.32V12.465H192.095C192.086 13.203 191.816 14.166 190.934 14.202V14.4H191.699V16.884C191.699 17.991 192.536 18.099 192.86 18.099C193.499 18.099 193.751 17.46 193.751 16.884ZM197.996 16.929C197.996 16.839 197.924 16.821 197.879 16.821C197.798 16.821 197.78 16.875 197.762 16.947C197.447 17.874 196.637 17.874 196.547 17.874C196.097 17.874 195.737 17.604 195.53 17.271C195.26 16.839 195.26 16.245 195.26 15.921H197.771C197.969 15.921 197.996 15.921 197.996 15.732C197.996 14.841 197.51 13.968 196.385 13.968C195.341 13.968 194.513 14.895 194.513 16.02C194.513 17.226 195.458 18.099 196.493 18.099C197.591 18.099 197.996 17.1 197.996 16.929ZM197.402 15.732H195.269C195.323 14.391 196.079 14.166 196.385 14.166C197.312 14.166 197.402 15.381 197.402 15.732ZM200.744 16.317V15.795H198.359V16.317H200.744ZM204.992 16.929C204.992 16.839 204.902 16.839 204.875 16.839C204.794 16.839 204.776 16.875 204.758 16.929C204.497 17.766 203.912 17.874 203.579 17.874C203.102 17.874 202.31 17.487 202.31 16.038C202.31 14.571 203.048 14.193 203.525 14.193C203.606 14.193 204.173 14.202 204.488 14.526C204.119 14.553 204.065 14.823 204.065 14.94C204.065 15.174 204.227 15.354 204.479 15.354C204.713 15.354 204.893 15.201 204.893 14.931C204.893 14.319 204.209 13.968 203.516 13.968C202.391 13.968 201.563 14.94 201.563 16.056C201.563 17.208 202.454 18.099 203.498 18.099C204.704 18.099 204.992 17.019 204.992 16.929ZM209.603 17.199V16.695H209.378V17.199C209.378 17.721 209.153 17.775 209.054 17.775C208.757 17.775 208.721 17.37 208.721 17.325V15.525C208.721 15.147 208.721 14.796 208.397 14.463C208.046 14.112 207.596 13.968 207.164 13.968C206.426 13.968 205.805 14.391 205.805 14.985C205.805 15.255 205.985 15.408 206.219 15.408C206.471 15.408 206.633 15.228 206.633 14.994C206.633 14.886 206.588 14.589 206.174 14.58C206.417 14.265 206.858 14.166 207.146 14.166C207.587 14.166 208.1 14.517 208.1 15.318V15.651C207.641 15.678 207.011 15.705 206.444 15.975C205.769 16.281 205.544 16.749 205.544 17.145C205.544 17.874 206.417 18.099 206.984 18.099C207.578 18.099 207.992 17.739 208.163 17.316C208.199 17.676 208.442 18.054 208.865 18.054C209.054 18.054 209.603 17.928 209.603 17.199ZM208.1 16.74C208.1 17.595 207.452 17.901 207.047 17.901C206.606 17.901 206.237 17.586 206.237 17.136C206.237 16.641 206.615 15.894 208.1 15.84V16.74ZM213.032 14.571C213.032 14.283 212.753 14.022 212.366 14.022C211.709 14.022 211.385 14.625 211.259 15.012V14.022L210.008 14.121V14.4C210.638 14.4 210.71 14.463 210.71 14.904V17.316C210.71 17.721 210.611 17.721 210.008 17.721V18L211.034 17.973C211.394 17.973 211.817 17.973 212.177 18V17.721H211.988C211.322 17.721 211.304 17.622 211.304 17.298V15.912C211.304 15.021 211.682 14.22 212.366 14.22C212.429 14.22 212.447 14.22 212.465 14.229C212.438 14.238 212.258 14.346 212.258 14.58C212.258 14.832 212.447 14.967 212.645 14.967C212.807 14.967 213.032 14.859 213.032 14.571ZM215.576 18V17.721C214.973 17.721 214.874 17.721 214.874 17.316V11.754L213.578 11.853V12.132C214.208 12.132 214.28 12.195 214.28 12.636V17.316C214.28 17.721 214.181 17.721 213.578 17.721V18L214.577 17.973L215.576 18ZM220.024 16.074C220.024 14.922 219.124 13.968 218.035 13.968C216.91 13.968 216.037 14.949 216.037 16.074C216.037 17.235 216.973 18.099 218.026 18.099C219.115 18.099 220.024 17.217 220.024 16.074ZM219.277 16.002C219.277 16.326 219.277 16.812 219.079 17.208C218.881 17.613 218.485 17.874 218.035 17.874C217.648 17.874 217.252 17.685 217.009 17.271C216.784 16.875 216.784 16.326 216.784 16.002C216.784 15.651 216.784 15.165 217 14.769C217.243 14.355 217.666 14.166 218.026 14.166C218.422 14.166 218.809 14.364 219.043 14.751C219.277 15.138 219.277 15.66 219.277 16.002Z" fill="black"/>
<path d="M121.498 14.949C121.498 13.113 120.139 11.655 118.501 11.655C116.89 11.655 115.513 13.095 115.513 14.949C115.513 16.794 116.899 18.198 118.501 18.198C120.139 18.198 121.498 16.767 121.498 14.949ZM120.571 14.823C120.571 17.208 119.338 17.964 118.51 17.964C117.646 17.964 116.44 17.172 116.44 14.823C116.44 12.492 117.754 11.88 118.501 11.88C119.284 11.88 120.571 12.519 120.571 14.823ZM126.828 18V17.721C126.198 17.721 126.126 17.658 126.126 17.217V14.022L124.803 14.121V14.4C125.433 14.4 125.505 14.463 125.505 14.904V16.506C125.505 17.289 125.073 17.901 124.416 17.901C123.66 17.901 123.624 17.478 123.624 17.01V14.022L122.301 14.121V14.4C123.003 14.4 123.003 14.427 123.003 15.228V16.578C123.003 17.28 123.003 18.099 124.371 18.099C124.875 18.099 125.271 17.847 125.532 17.289V18.099L126.828 18ZM130.29 14.571C130.29 14.283 130.011 14.022 129.624 14.022C128.967 14.022 128.643 14.625 128.517 15.012V14.022L127.266 14.121V14.4C127.896 14.4 127.968 14.463 127.968 14.904V17.316C127.968 17.721 127.869 17.721 127.266 17.721V18L128.292 17.973C128.652 17.973 129.075 17.973 129.435 18V17.721H129.246C128.58 17.721 128.562 17.622 128.562 17.298V15.912C128.562 15.021 128.94 14.22 129.624 14.22C129.687 14.22 129.705 14.22 129.723 14.229C129.696 14.238 129.516 14.346 129.516 14.58C129.516 14.832 129.705 14.967 129.903 14.967C130.065 14.967 130.29 14.859 130.29 14.571ZM133.779 16.848C133.779 16.371 133.509 16.101 133.401 15.993C133.104 15.705 132.753 15.633 132.375 15.561C131.871 15.462 131.268 15.345 131.268 14.823C131.268 14.508 131.502 14.139 132.276 14.139C133.266 14.139 133.311 14.949 133.329 15.228C133.338 15.309 133.437 15.309 133.437 15.309C133.554 15.309 133.554 15.264 133.554 15.093V14.184C133.554 14.031 133.554 13.968 133.455 13.968C133.41 13.968 133.392 13.968 133.275 14.076C133.248 14.112 133.158 14.193 133.122 14.22C132.78 13.968 132.411 13.968 132.276 13.968C131.178 13.968 130.836 14.571 130.836 15.075C130.836 15.39 130.98 15.642 131.223 15.84C131.511 16.074 131.763 16.128 132.411 16.254C132.609 16.29 133.347 16.434 133.347 17.082C133.347 17.541 133.032 17.901 132.33 17.901C131.574 17.901 131.25 17.388 131.079 16.623C131.052 16.506 131.043 16.47 130.953 16.47C130.836 16.47 130.836 16.533 130.836 16.695V17.883C130.836 18.036 130.836 18.099 130.935 18.099C130.98 18.099 130.989 18.09 131.16 17.919C131.178 17.901 131.178 17.883 131.34 17.712C131.736 18.09 132.141 18.099 132.33 18.099C133.365 18.099 133.779 17.496 133.779 16.848Z" fill="black"/>
<path d="M53.8308 13.905L53.5788 11.88H48.6378V12.159H48.8538C49.5468 12.159 49.5648 12.258 49.5648 12.582V17.298C49.5648 17.622 49.5468 17.721 48.8538 17.721H48.6378V18C48.9528 17.973 49.6548 17.973 50.0058 17.973C50.3748 17.973 51.1938 17.973 51.5178 18V17.721H51.2208C50.3658 17.721 50.3658 17.604 50.3658 17.289V15.075H51.1398C52.0038 15.075 52.0938 15.363 52.0938 16.128H52.3188V13.743H52.0938C52.0938 14.499 52.0038 14.796 51.1398 14.796H50.3658V12.519C50.3658 12.222 50.3838 12.159 50.8068 12.159H51.8868C53.2368 12.159 53.4618 12.663 53.6058 13.905H53.8308ZM57.8206 17.199V16.695H57.5956V17.199C57.5956 17.721 57.3706 17.775 57.2716 17.775C56.9746 17.775 56.9386 17.37 56.9386 17.325V15.525C56.9386 15.147 56.9386 14.796 56.6146 14.463C56.2636 14.112 55.8136 13.968 55.3816 13.968C54.6436 13.968 54.0226 14.391 54.0226 14.985C54.0226 15.255 54.2026 15.408 54.4366 15.408C54.6886 15.408 54.8506 15.228 54.8506 14.994C54.8506 14.886 54.8056 14.589 54.3916 14.58C54.6346 14.265 55.0756 14.166 55.3636 14.166C55.8046 14.166 56.3176 14.517 56.3176 15.318V15.651C55.8586 15.678 55.2286 15.705 54.6616 15.975C53.9866 16.281 53.7616 16.749 53.7616 17.145C53.7616 17.874 54.6346 18.099 55.2016 18.099C55.7956 18.099 56.2096 17.739 56.3806 17.316C56.4166 17.676 56.6596 18.054 57.0826 18.054C57.2716 18.054 57.8206 17.928 57.8206 17.199ZM56.3176 16.74C56.3176 17.595 55.6696 17.901 55.2646 17.901C54.8236 17.901 54.4546 17.586 54.4546 17.136C54.4546 16.641 54.8326 15.894 56.3176 15.84V16.74ZM61.2496 14.571C61.2496 14.283 60.9706 14.022 60.5836 14.022C59.9266 14.022 59.6026 14.625 59.4766 15.012V14.022L58.2256 14.121V14.4C58.8556 14.4 58.9276 14.463 58.9276 14.904V17.316C58.9276 17.721 58.8286 17.721 58.2256 17.721V18L59.2516 17.973C59.6116 17.973 60.0346 17.973 60.3946 18V17.721H60.2056C59.5396 17.721 59.5216 17.622 59.5216 17.298V15.912C59.5216 15.021 59.8996 14.22 60.5836 14.22C60.6466 14.22 60.6646 14.22 60.6826 14.229C60.6556 14.238 60.4756 14.346 60.4756 14.58C60.4756 14.832 60.6646 14.967 60.8626 14.967C61.0246 14.967 61.2496 14.859 61.2496 14.571ZM68.815 18V17.721C68.347 17.721 68.122 17.721 68.113 17.451V15.732C68.113 14.958 68.113 14.679 67.834 14.355C67.708 14.202 67.411 14.022 66.889 14.022C66.133 14.022 65.737 14.562 65.584 14.904C65.458 14.121 64.792 14.022 64.387 14.022C63.73 14.022 63.307 14.409 63.055 14.967V14.022L61.786 14.121V14.4C62.416 14.4 62.488 14.463 62.488 14.904V17.316C62.488 17.721 62.389 17.721 61.786 17.721V18L62.803 17.973L63.811 18V17.721C63.208 17.721 63.109 17.721 63.109 17.316V15.66C63.109 14.724 63.748 14.22 64.324 14.22C64.891 14.22 64.99 14.706 64.99 15.219V17.316C64.99 17.721 64.891 17.721 64.288 17.721V18L65.305 17.973L66.313 18V17.721C65.71 17.721 65.611 17.721 65.611 17.316V15.66C65.611 14.724 66.25 14.22 66.826 14.22C67.393 14.22 67.492 14.706 67.492 15.219V17.316C67.492 17.721 67.393 17.721 66.79 17.721V18L67.807 17.973L68.815 18ZM72.7301 16.929C72.7301 16.839 72.6581 16.821 72.6131 16.821C72.5321 16.821 72.5141 16.875 72.4961 16.947C72.1811 17.874 71.3711 17.874 71.2811 17.874C70.8311 17.874 70.4711 17.604 70.2641 17.271C69.9941 16.839 69.9941 16.245 69.9941 15.921H72.5051C72.7031 15.921 72.7301 15.921 72.7301 15.732C72.7301 14.841 72.2441 13.968 71.1191 13.968C70.0751 13.968 69.2471 14.895 69.2471 16.02C69.2471 17.226 70.1921 18.099 71.2271 18.099C72.3251 18.099 72.7301 17.1 72.7301 16.929ZM72.1361 15.732H70.0031C70.0571 14.391 70.8131 14.166 71.1191 14.166C72.0461 14.166 72.1361 15.381 72.1361 15.732ZM76.2701 14.571C76.2701 14.283 75.9911 14.022 75.6041 14.022C74.9471 14.022 74.6231 14.625 74.4971 15.012V14.022L73.2461 14.121V14.4C73.8761 14.4 73.9481 14.463 73.9481 14.904V17.316C73.9481 17.721 73.8491 17.721 73.2461 17.721V18L74.2721 17.973C74.6321 17.973 75.0551 17.973 75.4151 18V17.721H75.2261C74.5601 17.721 74.5421 17.622 74.5421 17.298V15.912C74.5421 15.021 74.9201 14.22 75.6041 14.22C75.6671 14.22 75.6851 14.22 75.7031 14.229C75.6761 14.238 75.4961 14.346 75.4961 14.58C75.4961 14.832 75.6851 14.967 75.8831 14.967C76.0451 14.967 76.2701 14.859 76.2701 14.571Z" fill="black"/>
<path d="M166.752 20L170.943 15.5L166.752 11L162.561 15.5L166.752 20Z" fill="#FC8D59" stroke="black"/>
<path d="M38.246 19.746H45.4603V12H38.246V19.746Z" fill="#1A8D1A" stroke="black"/>
<g clip-path="url(#clip1)">
<path d="M37.676 137.892H37.304C37.328 138.252 37.34 138.624 37.34 138.984L37.304 140.412H37.676C37.688 139.608 38.084 139.368 38.312 139.368C38.384 139.368 38.48 139.404 38.552 139.428L44.096 141.228L38.216 143.148C38.168 143.16 38.096 143.184 38.036 143.184C37.676 143.184 37.676 142.488 37.676 142.176H37.304C37.34 142.608 37.34 143.424 37.34 143.88L37.304 145.344H37.676C37.676 144.66 37.676 144.408 38.108 144.264L38.948 144L44.096 145.668L38.192 147.6C38.156 147.612 38.072 147.624 38.036 147.624C37.676 147.624 37.676 146.928 37.676 146.616H37.304C37.34 147.048 37.34 147.864 37.34 148.32L37.304 149.784H37.676C37.676 148.884 37.736 148.836 38.18 148.692L45.536 146.292C45.644 146.256 45.764 146.22 45.764 146.064C45.764 145.896 45.68 145.872 45.524 145.824L39.428 143.844L45.536 141.852C45.644 141.816 45.764 141.78 45.764 141.624C45.764 141.456 45.68 141.432 45.524 141.384L38.48 139.092C37.796 138.876 37.676 138.36 37.676 137.892ZM44.432 132.86H43.76V133.16H44.432C45.128 133.16 45.2 133.46 45.2 133.592C45.2 133.988 44.66 134.036 44.6 134.036H42.2C41.696 134.036 41.228 134.036 40.784 134.468C40.316 134.936 40.124 135.536 40.124 136.112C40.124 137.096 40.688 137.924 41.48 137.924C41.84 137.924 42.044 137.684 42.044 137.372C42.044 137.036 41.804 136.82 41.492 136.82C41.348 136.82 40.952 136.88 40.94 137.432C40.52 137.108 40.388 136.52 40.388 136.136C40.388 135.548 40.856 134.864 41.924 134.864H42.368C42.404 135.476 42.44 136.316 42.8 137.072C43.208 137.972 43.832 138.272 44.36 138.272C45.332 138.272 45.632 137.108 45.632 136.352C45.632 135.56 45.152 135.008 44.588 134.78C45.068 134.732 45.572 134.408 45.572 133.844C45.572 133.592 45.404 132.86 44.432 132.86ZM43.82 134.864C44.96 134.864 45.368 135.728 45.368 136.268C45.368 136.856 44.948 137.348 44.348 137.348C43.688 137.348 42.692 136.844 42.62 134.864H43.82ZM44.012 128.672H43.328V128.972H43.988C44.876 128.972 45.332 129.332 45.332 129.776C45.332 130.58 44.24 130.58 44.036 130.58H40.7V128.864H40.328V130.58H38.12V130.88C39.104 130.892 40.388 131.252 40.436 132.428H40.7V131.408H44.012C45.488 131.408 45.632 130.292 45.632 129.86C45.632 129.008 44.78 128.672 44.012 128.672ZM44.072 123.012C43.952 123.012 43.928 123.108 43.928 123.168C43.928 123.276 44 123.3 44.096 123.324C45.332 123.744 45.332 124.824 45.332 124.944C45.332 125.544 44.972 126.024 44.528 126.3C43.952 126.66 43.16 126.66 42.728 126.66V123.312C42.728 123.048 42.728 123.012 42.476 123.012C41.288 123.012 40.124 123.66 40.124 125.16C40.124 126.552 41.36 127.656 42.86 127.656C44.468 127.656 45.632 126.396 45.632 125.016C45.632 123.552 44.3 123.012 44.072 123.012ZM42.476 123.804V126.648C40.688 126.576 40.388 125.568 40.388 125.16C40.388 123.924 42.008 123.804 42.476 123.804ZM40.928 118.292C40.544 118.292 40.196 118.664 40.196 119.18C40.196 120.056 41 120.488 41.516 120.656H40.196L40.328 122.324H40.7C40.7 121.484 40.784 121.388 41.372 121.388H44.588C45.128 121.388 45.128 121.52 45.128 122.324H45.5L45.464 120.956C45.464 120.476 45.464 119.912 45.5 119.432H45.128V119.684C45.128 120.572 44.996 120.596 44.564 120.596H42.716C41.528 120.596 40.46 120.092 40.46 119.18C40.46 119.096 40.46 119.072 40.472 119.048C40.484 119.084 40.628 119.324 40.94 119.324C41.276 119.324 41.456 119.072 41.456 118.808C41.456 118.592 41.312 118.292 40.928 118.292ZM45.5 110.905H45.128C45.128 111.709 45.128 111.841 44.588 111.841H37.172L37.304 113.569H37.676C37.676 112.729 37.76 112.633 38.348 112.633H44.588C45.128 112.633 45.128 112.765 45.128 113.569H45.5L45.464 112.237L45.5 110.905ZM42.932 104.973C41.396 104.973 40.124 106.173 40.124 107.625C40.124 109.125 41.432 110.289 42.932 110.289C44.48 110.289 45.632 109.041 45.632 107.637C45.632 106.185 44.456 104.973 42.932 104.973ZM42.836 105.969C43.268 105.969 43.916 105.969 44.444 106.233C44.984 106.497 45.332 107.025 45.332 107.625C45.332 108.141 45.08 108.669 44.528 108.993C44 109.293 43.268 109.293 42.836 109.293C42.368 109.293 41.72 109.293 41.192 109.005C40.64 108.681 40.388 108.117 40.388 107.637C40.388 107.109 40.652 106.593 41.168 106.281C41.684 105.969 42.38 105.969 42.836 105.969ZM43.964 100.305C43.328 100.305 42.968 100.665 42.824 100.809C42.44 101.205 42.344 101.673 42.248 102.177C42.116 102.849 41.96 103.653 41.264 103.653C40.844 103.653 40.352 103.341 40.352 102.309C40.352 100.989 41.432 100.929 41.804 100.905C41.912 100.893 41.912 100.761 41.912 100.761C41.912 100.605 41.852 100.605 41.624 100.605H40.412C40.208 100.605 40.124 100.605 40.124 100.737C40.124 100.797 40.124 100.821 40.268 100.977C40.316 101.013 40.424 101.133 40.46 101.181C40.124 101.637 40.124 102.129 40.124 102.309C40.124 103.773 40.928 104.229 41.6 104.229C42.02 104.229 42.356 104.037 42.62 103.713C42.932 103.329 43.004 102.993 43.172 102.129C43.22 101.865 43.412 100.881 44.276 100.881C44.888 100.881 45.368 101.301 45.368 102.237C45.368 103.245 44.684 103.677 43.664 103.905C43.508 103.941 43.46 103.953 43.46 104.073C43.46 104.229 43.544 104.229 43.76 104.229H45.344C45.548 104.229 45.632 104.229 45.632 104.097C45.632 104.037 45.62 104.025 45.392 103.797C45.368 103.773 45.344 103.773 45.116 103.557C45.62 103.029 45.632 102.489 45.632 102.237C45.632 100.857 44.828 100.305 43.964 100.305ZM43.964 95.5823C43.328 95.5823 42.968 95.9423 42.824 96.0863C42.44 96.4823 42.344 96.9503 42.248 97.4543C42.116 98.1263 41.96 98.9303 41.264 98.9303C40.844 98.9303 40.352 98.6183 40.352 97.5863C40.352 96.2663 41.432 96.2063 41.804 96.1823C41.912 96.1703 41.912 96.0383 41.912 96.0383C41.912 95.8823 41.852 95.8823 41.624 95.8823H40.412C40.208 95.8823 40.124 95.8823 40.124 96.0143C40.124 96.0743 40.124 96.0983 40.268 96.2543C40.316 96.2903 40.424 96.4103 40.46 96.4583C40.124 96.9143 40.124 97.4063 40.124 97.5863C40.124 99.0503 40.928 99.5063 41.6 99.5063C42.02 99.5063 42.356 99.3143 42.62 98.9903C42.932 98.6063 43.004 98.2703 43.172 97.4063C43.22 97.1423 43.412 96.1583 44.276 96.1583C44.888 96.1583 45.368 96.5783 45.368 97.5143C45.368 98.5223 44.684 98.9543 43.664 99.1823C43.508 99.2183 43.46 99.2303 43.46 99.3503C43.46 99.5063 43.544 99.5063 43.76 99.5063H45.344C45.548 99.5063 45.632 99.5063 45.632 99.3743C45.632 99.3143 45.62 99.3023 45.392 99.0743C45.368 99.0503 45.344 99.0503 45.116 98.8343C45.62 98.3063 45.632 97.7663 45.632 97.5143C45.632 96.1343 44.828 95.5823 43.964 95.5823ZM45.488 92.7437C44.72 92.7437 44.228 93.0317 44.228 93.5117C44.228 93.9317 44.552 94.1477 44.864 94.1477C45.176 94.1477 45.5 93.9437 45.5 93.5117C45.5 93.3317 45.428 93.1637 45.308 93.0317C46.256 93.0077 46.988 93.3437 47.552 93.8717C47.624 93.9437 47.636 93.9557 47.684 93.9557C47.768 93.9557 47.816 93.8957 47.816 93.8357C47.816 93.6917 46.868 92.7437 45.488 92.7437ZM44.072 82.8637C43.952 82.8637 43.952 82.9837 43.952 83.0197C43.952 83.1277 44 83.1517 44.072 83.1757C45.188 83.5237 45.332 84.3037 45.332 84.7477C45.332 85.3837 44.816 86.4397 42.884 86.4397C40.928 86.4397 40.424 85.4557 40.424 84.8197C40.424 84.7117 40.436 83.9557 40.868 83.5357C40.904 84.0277 41.264 84.0997 41.42 84.0997C41.732 84.0997 41.972 83.8837 41.972 83.5477C41.972 83.2357 41.768 82.9957 41.408 82.9957C40.592 82.9957 40.124 83.9077 40.124 84.8317C40.124 86.3317 41.42 87.4357 42.908 87.4357C44.444 87.4357 45.632 86.2477 45.632 84.8557C45.632 83.2477 44.192 82.8637 44.072 82.8637ZM45.5 72.7557H45.128C45.128 73.3797 45.128 73.6797 44.768 73.6917H42.476C41.444 73.6917 41.072 73.6917 40.64 74.0637C40.436 74.2317 40.196 74.6277 40.196 75.3237C40.196 76.3317 40.916 76.8597 41.372 77.0637C40.328 77.2317 40.196 78.1197 40.196 78.6597C40.196 79.5357 40.712 80.0997 41.456 80.4357H40.196L40.328 82.1277H40.7C40.7 81.2877 40.784 81.1917 41.372 81.1917H44.588C45.128 81.1917 45.128 81.3237 45.128 82.1277H45.5L45.464 80.7717L45.5 79.4277H45.128C45.128 80.2317 45.128 80.3637 44.588 80.3637H42.38C41.132 80.3637 40.46 79.5117 40.46 78.7437C40.46 77.9877 41.108 77.8557 41.792 77.8557H44.588C45.128 77.8557 45.128 77.9877 45.128 78.7917H45.5L45.464 77.4357L45.5 76.0917H45.128C45.128 76.8957 45.128 77.0277 44.588 77.0277H42.38C41.132 77.0277 40.46 76.1757 40.46 75.4077C40.46 74.6517 41.108 74.5197 41.792 74.5197H44.588C45.128 74.5197 45.128 74.6517 45.128 75.4557H45.5L45.464 74.0997L45.5 72.7557Z" fill="black"/>
<path d="M66.488 197.768C66.488 196.568 65.696 195.584 64.688 195.344L63.152 194.972C62.408 194.792 61.94 194.144 61.94 193.448C61.94 192.608 62.588 191.876 63.524 191.876C65.528 191.876 65.792 193.844 65.864 194.384C65.876 194.456 65.876 194.528 66.008 194.528C66.164 194.528 66.164 194.468 66.164 194.24V191.828C66.164 191.624 66.164 191.54 66.032 191.54C65.948 191.54 65.936 191.552 65.852 191.696L65.432 192.38C65.072 192.032 64.58 191.54 63.512 191.54C62.18 191.54 61.172 192.596 61.172 193.868C61.172 194.864 61.808 195.74 62.744 196.064C62.876 196.112 63.488 196.256 64.328 196.46C64.652 196.544 65.012 196.628 65.348 197.072C65.6 197.384 65.72 197.78 65.72 198.176C65.72 199.028 65.12 199.892 64.112 199.892C63.764 199.892 62.852 199.832 62.216 199.244C61.52 198.596 61.484 197.828 61.472 197.396C61.46 197.276 61.364 197.276 61.328 197.276C61.172 197.276 61.172 197.36 61.172 197.576V199.976C61.172 200.18 61.172 200.264 61.304 200.264C61.388 200.264 61.4 200.24 61.484 200.108C61.484 200.108 61.52 200.06 61.916 199.424C62.288 199.832 63.056 200.264 64.124 200.264C65.528 200.264 66.488 199.088 66.488 197.768ZM73.588 200V199.628C72.748 199.628 72.652 199.544 72.652 198.956V194.696L70.888 194.828V195.2C71.728 195.2 71.824 195.284 71.824 195.872V198.008C71.824 199.052 71.248 199.868 70.372 199.868C69.364 199.868 69.316 199.304 69.316 198.68V194.696L67.552 194.828V195.2C68.488 195.2 68.488 195.236 68.488 196.304V198.104C68.488 199.04 68.488 200.132 70.312 200.132C70.984 200.132 71.512 199.796 71.86 199.052V200.132L73.588 200ZM79.6559 195.152C79.6559 194.948 79.5119 194.564 79.0439 194.564C78.8039 194.564 78.2759 194.636 77.7719 195.128C77.2679 194.732 76.7639 194.696 76.4999 194.696C75.3839 194.696 74.5559 195.524 74.5559 196.448C74.5559 196.976 74.8199 197.432 75.1199 197.684C74.9639 197.864 74.7479 198.26 74.7479 198.68C74.7479 199.052 74.9039 199.508 75.2759 199.748C74.5559 199.952 74.1719 200.468 74.1719 200.948C74.1719 201.812 75.3599 202.472 76.8239 202.472C78.2399 202.472 79.4879 201.86 79.4879 200.924C79.4879 200.504 79.3199 199.892 78.7079 199.556C78.0719 199.22 77.3759 199.22 76.6439 199.22C76.3439 199.22 75.8279 199.22 75.7439 199.208C75.3599 199.16 75.1079 198.788 75.1079 198.404C75.1079 198.356 75.1079 198.08 75.3119 197.84C75.7799 198.176 76.2719 198.212 76.4999 198.212C77.6159 198.212 78.4439 197.384 78.4439 196.46C78.4439 196.016 78.2519 195.572 77.9519 195.296C78.3839 194.888 78.8159 194.828 79.0319 194.828C79.0319 194.828 79.1159 194.828 79.1519 194.84C79.0199 194.888 78.9599 195.02 78.9599 195.164C78.9599 195.368 79.1159 195.512 79.3079 195.512C79.4279 195.512 79.6559 195.428 79.6559 195.152ZM77.5439 196.448C77.5439 196.772 77.5319 197.156 77.3519 197.456C77.2559 197.6 76.9799 197.936 76.4999 197.936C75.4559 197.936 75.4559 196.736 75.4559 196.46C75.4559 196.136 75.4679 195.752 75.6479 195.452C75.7439 195.308 76.0199 194.972 76.4999 194.972C77.5439 194.972 77.5439 196.172 77.5439 196.448ZM78.8639 200.948C78.8639 201.596 78.0119 202.196 76.8359 202.196C75.6239 202.196 74.7959 201.584 74.7959 200.948C74.7959 200.396 75.2519 199.952 75.7799 199.916H76.4879C77.5199 199.916 78.8639 199.916 78.8639 200.948ZM85.6319 198.932V198.26H85.3319V198.932C85.3319 199.628 85.0319 199.7 84.8999 199.7C84.5039 199.7 84.4559 199.16 84.4559 199.1V196.7C84.4559 196.196 84.4559 195.728 84.0239 195.284C83.5559 194.816 82.9559 194.624 82.3799 194.624C81.3959 194.624 80.5679 195.188 80.5679 195.98C80.5679 196.34 80.8079 196.544 81.1199 196.544C81.4559 196.544 81.6719 196.304 81.6719 195.992C81.6719 195.848 81.6119 195.452 81.0599 195.44C81.3839 195.02 81.9719 194.888 82.3559 194.888C82.9439 194.888 83.6279 195.356 83.6279 196.424V196.868C83.0159 196.904 82.1759 196.94 81.4199 197.3C80.5199 197.708 80.2199 198.332 80.2199 198.86C80.2199 199.832 81.3839 200.132 82.1399 200.132C82.9319 200.132 83.4839 199.652 83.7119 199.088C83.7599 199.568 84.0839 200.072 84.6479 200.072C84.8999 200.072 85.6319 199.904 85.6319 198.932ZM83.6279 198.32C83.6279 199.46 82.7639 199.868 82.2239 199.868C81.6359 199.868 81.1439 199.448 81.1439 198.848C81.1439 198.188 81.6479 197.192 83.6279 197.12V198.32ZM90.2039 195.428C90.2039 195.044 89.8319 194.696 89.3159 194.696C88.4399 194.696 88.0079 195.5 87.8399 196.016V194.696L86.1719 194.828V195.2C87.0119 195.2 87.1079 195.284 87.1079 195.872V199.088C87.1079 199.628 86.9759 199.628 86.1719 199.628V200L87.5399 199.964C88.0199 199.964 88.5839 199.964 89.0639 200V199.628H88.8119C87.9239 199.628 87.8999 199.496 87.8999 199.064V197.216C87.8999 196.028 88.4039 194.96 89.3159 194.96C89.3999 194.96 89.4239 194.96 89.4479 194.972C89.4119 194.984 89.1719 195.128 89.1719 195.44C89.1719 195.776 89.4239 195.956 89.6879 195.956C89.9039 195.956 90.2039 195.812 90.2039 195.428ZM93.8472 197.756V197.06H90.6672V197.756H93.8472ZM100.783 197.408C100.783 195.884 99.6073 194.696 98.2393 194.696C97.3033 194.696 96.7873 195.26 96.5953 195.476V191.672L94.8673 191.804V192.176C95.7073 192.176 95.8033 192.26 95.8033 192.848V200H96.1033L96.5353 199.256C96.7153 199.532 97.2193 200.132 98.1073 200.132C99.5353 200.132 100.783 198.956 100.783 197.408ZM99.7873 197.396C99.7873 197.84 99.7633 198.56 99.4153 199.1C99.1633 199.472 98.7073 199.868 98.0592 199.868C97.5193 199.868 97.0873 199.58 96.7993 199.136C96.6313 198.884 96.6313 198.848 96.6313 198.632V196.16C96.6313 195.932 96.6313 195.92 96.7633 195.728C97.2313 195.056 97.8913 194.96 98.1793 194.96C98.7193 194.96 99.1513 195.272 99.4393 195.728C99.7513 196.22 99.7873 196.904 99.7873 197.396ZM106.519 198.572C106.519 198.452 106.423 198.428 106.363 198.428C106.255 198.428 106.231 198.5 106.207 198.596C105.787 199.832 104.707 199.832 104.587 199.832C103.987 199.832 103.507 199.472 103.231 199.028C102.871 198.452 102.871 197.66 102.871 197.228H106.219C106.483 197.228 106.519 197.228 106.519 196.976C106.519 195.788 105.871 194.624 104.371 194.624C102.979 194.624 101.875 195.86 101.875 197.36C101.875 198.968 103.135 200.132 104.515 200.132C105.979 200.132 106.519 198.8 106.519 198.572ZM105.727 196.976H102.883C102.955 195.188 103.963 194.888 104.371 194.888C105.607 194.888 105.727 196.508 105.727 196.976ZM111.851 198.572C111.851 198.452 111.755 198.428 111.695 198.428C111.587 198.428 111.563 198.5 111.539 198.596C111.119 199.832 110.039 199.832 109.919 199.832C109.319 199.832 108.839 199.472 108.563 199.028C108.203 198.452 108.203 197.66 108.203 197.228H111.551C111.815 197.228 111.851 197.228 111.851 196.976C111.851 195.788 111.203 194.624 109.703 194.624C108.311 194.624 107.207 195.86 107.207 197.36C107.207 198.968 108.467 200.132 109.847 200.132C111.311 200.132 111.851 198.8 111.851 198.572ZM111.059 196.976H108.215C108.287 195.188 109.295 194.888 109.703 194.888C110.939 194.888 111.059 196.508 111.059 196.976ZM116.187 198.512V197.828H115.887V198.488C115.887 199.376 115.527 199.832 115.083 199.832C114.279 199.832 114.279 198.74 114.279 198.536V195.2H115.995V194.828H114.279V192.62H113.979C113.967 193.604 113.607 194.888 112.431 194.936V195.2H113.451V198.512C113.451 199.988 114.567 200.132 114.999 200.132C115.851 200.132 116.187 199.28 116.187 198.512ZM125.843 198.572C125.843 198.452 125.723 198.452 125.687 198.452C125.579 198.452 125.555 198.5 125.531 198.572C125.183 199.688 124.403 199.832 123.959 199.832C123.323 199.832 122.267 199.316 122.267 197.384C122.267 195.428 123.251 194.924 123.887 194.924C123.995 194.924 124.751 194.936 125.171 195.368C124.679 195.404 124.607 195.764 124.607 195.92C124.607 196.232 124.823 196.472 125.159 196.472C125.471 196.472 125.711 196.268 125.711 195.908C125.711 195.092 124.799 194.624 123.875 194.624C122.375 194.624 121.271 195.92 121.271 197.408C121.271 198.944 122.459 200.132 123.851 200.132C125.459 200.132 125.843 198.692 125.843 198.572ZM130.563 195.428C130.563 195.044 130.191 194.696 129.675 194.696C128.799 194.696 128.367 195.5 128.199 196.016V194.696L126.531 194.828V195.2C127.371 195.2 127.467 195.284 127.467 195.872V199.088C127.467 199.628 127.335 199.628 126.531 199.628V200L127.899 199.964C128.379 199.964 128.943 199.964 129.423 200V199.628H129.171C128.283 199.628 128.259 199.496 128.259 199.064V197.216C128.259 196.028 128.763 194.96 129.675 194.96C129.759 194.96 129.783 194.96 129.807 194.972C129.771 194.984 129.531 195.128 129.531 195.44C129.531 195.776 129.783 195.956 130.047 195.956C130.263 195.956 130.563 195.812 130.563 195.428ZM136.547 197.432C136.547 195.896 135.347 194.624 133.895 194.624C132.395 194.624 131.231 195.932 131.231 197.432C131.231 198.98 132.479 200.132 133.883 200.132C135.335 200.132 136.547 198.956 136.547 197.432ZM135.551 197.336C135.551 197.768 135.551 198.416 135.287 198.944C135.023 199.484 134.495 199.832 133.895 199.832C133.379 199.832 132.851 199.58 132.527 199.028C132.227 198.5 132.227 197.768 132.227 197.336C132.227 196.868 132.227 196.22 132.515 195.692C132.839 195.14 133.403 194.888 133.883 194.888C134.411 194.888 134.927 195.152 135.239 195.668C135.551 196.184 135.551 196.88 135.551 197.336ZM143.147 197.408C143.147 195.884 141.983 194.696 140.639 194.696C139.703 194.696 139.199 195.224 138.959 195.488V194.696L137.231 194.828V195.2C138.083 195.2 138.167 195.272 138.167 195.8V201.416C138.167 201.956 138.035 201.956 137.231 201.956V202.328L138.575 202.292L139.931 202.328V201.956C139.127 201.956 138.995 201.956 138.995 201.416V199.4V199.292C139.055 199.484 139.559 200.132 140.471 200.132C141.899 200.132 143.147 198.956 143.147 197.408ZM142.151 197.408C142.151 198.86 141.311 199.868 140.423 199.868C139.943 199.868 139.487 199.628 139.163 199.136C138.995 198.884 138.995 198.872 138.995 198.632V195.956C139.343 195.344 139.931 194.996 140.543 194.996C141.419 194.996 142.151 196.052 142.151 197.408ZM153.655 195.2V194.828C153.379 194.852 153.031 194.864 152.755 194.864L151.711 194.828V195.2C152.083 195.212 152.275 195.416 152.275 195.716C152.275 195.836 152.263 195.86 152.203 196.004L150.991 198.956L149.659 195.728C149.611 195.608 149.587 195.56 149.587 195.512C149.587 195.2 150.031 195.2 150.259 195.2V194.828L148.951 194.864C148.627 194.864 148.147 194.852 147.787 194.828V195.2C148.363 195.2 148.591 195.2 148.759 195.62L150.559 200L150.259 200.708C149.995 201.368 149.659 202.196 148.891 202.196C148.831 202.196 148.555 202.196 148.327 201.98C148.699 201.932 148.795 201.668 148.795 201.476C148.795 201.164 148.567 200.972 148.291 200.972C148.051 200.972 147.787 201.128 147.787 201.488C147.787 202.028 148.291 202.46 148.891 202.46C149.647 202.46 150.139 201.776 150.427 201.092L152.539 195.968C152.851 195.212 153.463 195.2 153.655 195.2ZM156.862 200V199.628C156.07 199.628 156.022 199.568 156.022 199.1V194.696L154.342 194.828V195.2C155.122 195.2 155.23 195.272 155.23 195.86V199.088C155.23 199.628 155.098 199.628 154.294 199.628V200L155.614 199.964C156.034 199.964 156.454 199.988 156.862 200ZM156.202 192.752C156.202 192.428 155.926 192.116 155.566 192.116C155.158 192.116 154.918 192.452 154.918 192.752C154.918 193.076 155.194 193.388 155.554 193.388C155.962 193.388 156.202 193.052 156.202 192.752ZM162.218 198.572C162.218 198.452 162.122 198.428 162.062 198.428C161.954 198.428 161.93 198.5 161.906 198.596C161.486 199.832 160.406 199.832 160.286 199.832C159.686 199.832 159.206 199.472 158.93 199.028C158.57 198.452 158.57 197.66 158.57 197.228H161.918C162.182 197.228 162.218 197.228 162.218 196.976C162.218 195.788 161.57 194.624 160.07 194.624C158.678 194.624 157.574 195.86 157.574 197.36C157.574 198.968 158.834 200.132 160.214 200.132C161.678 200.132 162.218 198.8 162.218 198.572ZM161.426 196.976H158.582C158.654 195.188 159.662 194.888 160.07 194.888C161.306 194.888 161.426 196.508 161.426 196.976ZM165.63 200V199.628C164.826 199.628 164.694 199.628 164.694 199.088V191.672L162.966 191.804V192.176C163.806 192.176 163.902 192.26 163.902 192.848V199.088C163.902 199.628 163.77 199.628 162.966 199.628V200L164.298 199.964L165.63 200ZM172.234 200V199.628C171.394 199.628 171.298 199.544 171.298 198.956V191.672L169.57 191.804V192.176C170.41 192.176 170.506 192.26 170.506 192.848V195.44C170.158 195.008 169.642 194.696 168.994 194.696C167.578 194.696 166.318 195.872 166.318 197.42C166.318 198.944 167.494 200.132 168.862 200.132C169.63 200.132 170.17 199.724 170.47 199.34V200.132L172.234 200ZM170.47 198.584C170.47 198.8 170.47 198.824 170.338 199.028C169.978 199.604 169.438 199.868 168.922 199.868C168.382 199.868 167.95 199.556 167.662 199.1C167.35 198.608 167.314 197.924 167.314 197.432C167.314 196.988 167.338 196.268 167.686 195.728C167.938 195.356 168.394 194.96 169.042 194.96C169.462 194.96 169.966 195.14 170.338 195.68C170.47 195.884 170.47 195.908 170.47 196.124V198.584ZM175.014 199.988C175.014 199.22 174.726 198.728 174.246 198.728C173.826 198.728 173.61 199.052 173.61 199.364C173.61 199.676 173.814 200 174.246 200C174.426 200 174.594 199.928 174.726 199.808C174.75 200.756 174.414 201.488 173.886 202.052C173.814 202.124 173.802 202.136 173.802 202.184C173.802 202.268 173.862 202.316 173.922 202.316C174.066 202.316 175.014 201.368 175.014 199.988ZM183.898 198.512V197.828H183.598V198.488C183.598 199.376 183.238 199.832 182.794 199.832C181.99 199.832 181.99 198.74 181.99 198.536V195.2H183.706V194.828H181.99V192.62H181.69C181.678 193.604 181.318 194.888 180.142 194.936V195.2H181.162V198.512C181.162 199.988 182.278 200.132 182.71 200.132C183.562 200.132 183.898 199.28 183.898 198.512ZM189.894 191.24C189.894 191.108 189.786 191 189.654 191C189.486 191 189.438 191.12 189.402 191.24L185.31 202.544C185.25 202.7 185.25 202.76 185.25 202.76C185.25 202.892 185.358 203 185.49 203C185.658 203 185.706 202.88 185.742 202.76L189.834 191.456C189.894 191.3 189.894 191.24 189.894 191.24ZM196.998 200V199.628C196.374 199.628 196.074 199.628 196.062 199.268V196.976C196.062 195.944 196.062 195.572 195.69 195.14C195.522 194.936 195.126 194.696 194.43 194.696C193.422 194.696 192.894 195.416 192.702 195.848H192.69V191.672L190.962 191.804V192.176C191.802 192.176 191.898 192.26 191.898 192.848V199.088C191.898 199.628 191.766 199.628 190.962 199.628V200L192.318 199.964L193.662 200V199.628C192.858 199.628 192.726 199.628 192.726 199.088V196.88C192.726 195.632 193.578 194.96 194.346 194.96C195.102 194.96 195.234 195.608 195.234 196.292V199.088C195.234 199.628 195.102 199.628 194.298 199.628V200L195.654 199.964L196.998 200ZM203.042 198.932V198.26H202.742V198.932C202.742 199.628 202.442 199.7 202.31 199.7C201.914 199.7 201.866 199.16 201.866 199.1V196.7C201.866 196.196 201.866 195.728 201.434 195.284C200.966 194.816 200.366 194.624 199.79 194.624C198.806 194.624 197.978 195.188 197.978 195.98C197.978 196.34 198.218 196.544 198.53 196.544C198.866 196.544 199.082 196.304 199.082 195.992C199.082 195.848 199.022 195.452 198.47 195.44C198.794 195.02 199.382 194.888 199.766 194.888C200.354 194.888 201.038 195.356 201.038 196.424V196.868C200.426 196.904 199.586 196.94 198.83 197.3C197.93 197.708 197.63 198.332 197.63 198.86C197.63 199.832 198.794 200.132 199.55 200.132C200.342 200.132 200.894 199.652 201.122 199.088C201.17 199.568 201.494 200.072 202.058 200.072C202.31 200.072 203.042 199.904 203.042 198.932ZM201.038 198.32C201.038 199.46 200.174 199.868 199.634 199.868C199.046 199.868 198.554 199.448 198.554 198.848C198.554 198.188 199.058 197.192 201.038 197.12V198.32Z" fill="black"/>
<path d="M32.0627 176.295H227.363V33.6H32.0627V176.295Z" fill="white"/>
<path d="M196.372 62.4974L201.849 57.0202L196.372 51.5429L190.895 57.0202L196.372 62.4974Z" fill="#FC8D59" stroke="black"/>
<path d="M40.94 172.547C41.6663 172.547 42.3629 172.259 42.8765 171.745C43.39 171.232 43.6786 170.535 43.6786 169.809C43.6786 169.083 43.39 168.386 42.8765 167.872C42.3629 167.359 41.6663 167.07 40.94 167.07C40.2137 167.07 39.517 167.359 39.0035 167.872C38.4899 168.386 38.2014 169.083 38.2014 169.809C38.2014 170.535 38.4899 171.232 39.0035 171.745C39.517 172.259 40.2137 172.547 40.94 172.547Z" fill="#C585DB" stroke="black"/>
<path d="M218.485 42.8247C219.212 42.8247 219.908 42.5362 220.422 42.0226C220.935 41.5091 221.224 40.8124 221.224 40.0861C221.224 39.3598 220.935 38.6632 220.422 38.1496C219.908 37.6361 219.212 37.3475 218.485 37.3475C217.759 37.3475 217.063 37.6361 216.549 38.1496C216.035 38.6632 215.747 39.3598 215.747 40.0861C215.747 40.8124 216.035 41.5091 216.549 42.0226C217.063 42.5362 217.759 42.8247 218.485 42.8247Z" fill="#C585DB" stroke="black"/>
<path d="M184.323 137.401C185.049 137.401 185.746 137.112 186.259 136.599C186.773 136.085 187.061 135.389 187.061 134.662C187.061 133.936 186.773 133.239 186.259 132.726C185.746 132.212 185.049 131.924 184.323 131.924C183.596 131.924 182.9 132.212 182.386 132.726C181.873 133.239 181.584 133.936 181.584 134.662C181.584 135.389 181.873 136.085 182.386 136.599C182.9 137.112 183.596 137.401 184.323 137.401Z" fill="#C585DB" stroke="black"/>
<path d="M218.086 62.3297C218.812 62.3297 219.509 62.0411 220.022 61.5276C220.536 61.014 220.824 60.3174 220.824 59.5911C220.824 58.8648 220.536 58.1682 220.022 57.6546C219.509 57.141 218.812 56.8525 218.086 56.8525C217.359 56.8525 216.663 57.141 216.149 57.6546C215.636 58.1682 215.347 58.8648 215.347 59.5911C215.347 60.3174 215.636 61.014 216.149 61.5276C216.663 62.0411 217.359 62.3297 218.086 62.3297Z" fill="#C585DB" stroke="black"/>
<path d="M195.699 130.028C196.426 130.028 197.122 129.739 197.636 129.226C198.149 128.712 198.438 128.016 198.438 127.289C198.438 126.563 198.149 125.866 197.636 125.353C197.122 124.839 196.426 124.551 195.699 124.551C194.973 124.551 194.276 124.839 193.763 125.353C193.249 125.866 192.961 126.563 192.961 127.289C192.961 128.016 193.249 128.712 193.763 129.226C194.276 129.739 194.973 130.028 195.699 130.028Z" fill="#C585DB" stroke="black"/>
<path d="M217.213 71.9119C217.94 71.9119 218.636 71.6234 219.15 71.1098C219.663 70.5963 219.952 69.8996 219.952 69.1733C219.952 68.447 219.663 67.7504 219.15 67.2368C218.636 66.7233 217.94 66.4347 217.213 66.4347C216.487 66.4347 215.79 66.7233 215.277 67.2368C214.763 67.7504 214.475 68.447 214.475 69.1733C214.475 69.8996 214.763 70.5963 215.277 71.1098C215.79 71.6234 216.487 71.9119 217.213 71.9119Z" fill="#C585DB" stroke="black"/>
<path d="M154.58 151.233C155.306 151.233 156.003 150.944 156.516 150.431C157.03 149.917 157.318 149.22 157.318 148.494C157.318 147.768 157.03 147.071 156.516 146.558C156.003 146.044 155.306 145.755 154.58 145.755C153.853 145.755 153.157 146.044 152.643 146.558C152.13 147.071 151.841 147.768 151.841 148.494C151.841 149.22 152.13 149.917 152.643 150.431C153.157 150.944 153.853 151.233 154.58 151.233Z" fill="#C585DB" stroke="black"/>
<path d="M215.933 101.691C216.659 101.691 217.356 101.403 217.87 100.889C218.383 100.376 218.672 99.679 218.672 98.9527C218.672 98.2264 218.383 97.5298 217.87 97.0162C217.356 96.5027 216.659 96.2141 215.933 96.2141C215.207 96.2141 214.51 96.5027 213.997 97.0162C213.483 97.5298 213.194 98.2264 213.194 98.9527C213.194 99.679 213.483 100.376 213.997 100.889C214.51 101.403 215.207 101.691 215.933 101.691Z" fill="#C585DB" stroke="black"/>
<path d="M218.226 45.7764C218.952 45.7764 219.649 45.4879 220.162 44.9743C220.676 44.4607 220.964 43.7641 220.964 43.0378C220.964 42.3115 220.676 41.6149 220.162 41.1013C219.649 40.5877 218.952 40.2992 218.226 40.2992C217.499 40.2992 216.803 40.5877 216.289 41.1013C215.776 41.6149 215.487 42.3115 215.487 43.0378C215.487 43.7641 215.776 44.4607 216.289 44.9743C216.803 45.4879 217.499 45.7764 218.226 45.7764Z" fill="#C585DB" stroke="black"/>
<path d="M84.6296 168.487C85.3559 168.487 86.0525 168.199 86.5661 167.685C87.0797 167.171 87.3682 166.475 87.3682 165.748C87.3682 165.022 87.0797 164.326 86.5661 163.812C86.0525 163.298 85.3559 163.01 84.6296 163.01C83.9033 163.01 83.2067 163.298 82.6931 163.812C82.1795 164.326 81.891 165.022 81.891 165.748C81.891 166.475 82.1795 167.171 82.6931 167.685C83.2067 168.199 83.9033 168.487 84.6296 168.487Z" fill="#C585DB" stroke="black"/>
<path d="M69.9766 169.662C70.7029 169.662 71.3996 169.373 71.9131 168.86C72.4267 168.346 72.7153 167.649 72.7153 166.923C72.7153 166.197 72.4267 165.5 71.9131 164.987C71.3996 164.473 70.7029 164.184 69.9766 164.184C69.2504 164.184 68.5537 164.473 68.0402 164.987C67.5266 165.5 67.238 166.197 67.238 166.923C67.238 167.649 67.5266 168.346 68.0402 168.86C68.5537 169.373 69.2504 169.662 69.9766 169.662Z" fill="#C585DB" stroke="black"/>
<path d="M172.414 143.888C173.141 143.888 173.837 143.599 174.351 143.086C174.864 142.572 175.153 141.875 175.153 141.149C175.153 140.423 174.864 139.726 174.351 139.213C173.837 138.699 173.141 138.411 172.414 138.411C171.688 138.411 170.991 138.699 170.478 139.213C169.964 139.726 169.676 140.423 169.676 141.149C169.676 141.875 169.964 142.572 170.478 143.086C170.991 143.599 171.688 143.888 172.414 143.888Z" fill="#C585DB" stroke="black"/>
<path d="M217.15 85.7906C217.877 85.7906 218.573 85.5021 219.087 84.9885C219.6 84.475 219.889 83.7783 219.889 83.052C219.889 82.3257 219.6 81.6291 219.087 81.1155C218.573 80.602 217.877 80.3134 217.15 80.3134C216.424 80.3134 215.727 80.602 215.214 81.1155C214.7 81.6291 214.412 82.3257 214.412 83.052C214.412 83.7783 214.7 84.475 215.214 84.9885C215.727 85.5021 216.424 85.7906 217.15 85.7906Z" fill="#C585DB" stroke="black"/>
<path d="M203.351 126.01C204.077 126.01 204.774 125.721 205.287 125.208C205.801 124.694 206.089 123.997 206.089 123.271C206.089 122.545 205.801 121.848 205.287 121.335C204.774 120.821 204.077 120.533 203.351 120.533C202.625 120.533 201.928 120.821 201.414 121.335C200.901 121.848 200.612 122.545 200.612 123.271C200.612 123.997 200.901 124.694 201.414 125.208C201.928 125.721 202.625 126.01 203.351 126.01Z" fill="#C585DB" stroke="black"/>
<path d="M168.62 146.165C169.346 146.165 170.043 145.876 170.556 145.363C171.07 144.849 171.359 144.153 171.359 143.426C171.359 142.7 171.07 142.003 170.556 141.49C170.043 140.976 169.346 140.688 168.62 140.688C167.894 140.688 167.197 140.976 166.683 141.49C166.17 142.003 165.881 142.7 165.881 143.426C165.881 144.153 166.17 144.849 166.683 145.363C167.197 145.876 167.894 146.165 168.62 146.165Z" fill="#C585DB" stroke="black"/>
<path d="M216.958 89.254C217.685 89.254 218.381 88.9655 218.895 88.4519C219.409 87.9383 219.697 87.2417 219.697 86.5154C219.697 85.7891 219.409 85.0925 218.895 84.5789C218.381 84.0654 217.685 83.7768 216.958 83.7768C216.232 83.7768 215.536 84.0654 215.022 84.5789C214.508 85.0925 214.22 85.7891 214.22 86.5154C214.22 87.2417 214.508 87.9383 215.022 88.4519C215.536 88.9655 216.232 89.254 216.958 89.254Z" fill="#C585DB" stroke="black"/>
<path d="M108.844 163.525C109.571 163.525 110.267 163.236 110.781 162.723C111.294 162.209 111.583 161.513 111.583 160.786C111.583 160.06 111.294 159.363 110.781 158.85C110.267 158.336 109.571 158.048 108.844 158.048C108.118 158.048 107.421 158.336 106.908 158.85C106.394 159.363 106.106 160.06 106.106 160.786C106.106 161.513 106.394 162.209 106.908 162.723C107.421 163.236 108.118 163.525 108.844 163.525Z" fill="#C585DB" stroke="black"/>
<path d="M94.1821 167.887C94.9084 167.887 95.605 167.598 96.1186 167.084C96.6321 166.571 96.9207 165.874 96.9207 165.148C96.9207 164.422 96.6321 163.725 96.1186 163.211C95.605 162.698 94.9084 162.409 94.1821 162.409C93.4558 162.409 92.7592 162.698 92.2456 163.211C91.732 163.725 91.4435 164.422 91.4435 165.148C91.4435 165.874 91.732 166.571 92.2456 167.084C92.7592 167.598 93.4558 167.887 94.1821 167.887Z" fill="#C585DB" stroke="black"/>
<path d="M101.265 165.505C101.991 165.505 102.687 165.216 103.201 164.703C103.715 164.189 104.003 163.493 104.003 162.766C104.003 162.04 103.715 161.343 103.201 160.83C102.687 160.316 101.991 160.028 101.265 160.028C100.538 160.028 99.8416 160.316 99.3281 160.83C98.8145 161.343 98.5259 162.04 98.5259 162.766C98.5259 163.493 98.8145 164.189 99.3281 164.703C99.8416 165.216 100.538 165.505 101.265 165.505Z" fill="#C585DB" stroke="black"/>
<path d="M214.491 111.983C215.218 111.983 215.914 111.695 216.428 111.181C216.941 110.667 217.23 109.971 217.23 109.244C217.23 108.518 216.941 107.822 216.428 107.308C215.914 106.794 215.218 106.506 214.491 106.506C213.765 106.506 213.068 106.794 212.555 107.308C212.041 107.822 211.753 108.518 211.753 109.244C211.753 109.971 212.041 110.667 212.555 111.181C213.068 111.695 213.765 111.983 214.491 111.983Z" fill="#C585DB" stroke="black"/>
<path d="M128.741 157.982C129.468 157.982 130.164 157.693 130.678 157.18C131.191 156.666 131.48 155.97 131.48 155.243C131.48 154.517 131.191 153.82 130.678 153.307C130.164 152.793 129.468 152.505 128.741 152.505C128.015 152.505 127.318 152.793 126.805 153.307C126.291 153.82 126.003 154.517 126.003 155.243C126.003 155.97 126.291 156.666 126.805 157.18C127.318 157.693 128.015 157.982 128.741 157.982Z" fill="#C585DB" stroke="black"/>
<path d="M209.748 119.094C210.474 119.094 211.17 118.806 211.684 118.292C212.198 117.779 212.486 117.082 212.486 116.356C212.486 115.629 212.198 114.933 211.684 114.419C211.17 113.906 210.474 113.617 209.748 113.617C209.021 113.617 208.325 113.906 207.811 114.419C207.297 114.933 207.009 115.629 207.009 116.356C207.009 117.082 207.297 117.779 207.811 118.292C208.325 118.806 209.021 119.094 209.748 119.094Z" fill="#C585DB" stroke="black"/>
<path d="M141.538 154.725C142.265 154.725 142.961 154.437 143.475 153.923C143.988 153.41 144.277 152.713 144.277 151.987C144.277 151.26 143.988 150.564 143.475 150.05C142.961 149.537 142.265 149.248 141.538 149.248C140.812 149.248 140.115 149.537 139.602 150.05C139.088 150.564 138.8 151.26 138.8 151.987C138.8 152.713 139.088 153.41 139.602 153.923C140.115 154.437 140.812 154.725 141.538 154.725Z" fill="#C585DB" stroke="black"/>
<path d="M149.056 152.121C149.782 152.121 150.478 151.833 150.992 151.319C151.506 150.806 151.794 150.109 151.794 149.383C151.794 148.656 151.506 147.96 150.992 147.446C150.478 146.933 149.782 146.644 149.056 146.644C148.329 146.644 147.633 146.933 147.119 147.446C146.605 147.96 146.317 148.656 146.317 149.383C146.317 150.109 146.605 150.806 147.119 151.319C147.633 151.833 148.329 152.121 149.056 152.121Z" fill="#C585DB" stroke="black"/>
<path d="M136.978 156.949C137.705 156.949 138.401 156.661 138.915 156.147C139.429 155.633 139.717 154.937 139.717 154.21C139.717 153.484 139.429 152.788 138.915 152.274C138.401 151.76 137.705 151.472 136.978 151.472C136.252 151.472 135.556 151.76 135.042 152.274C134.528 152.788 134.24 153.484 134.24 154.21C134.24 154.937 134.528 155.633 135.042 156.147C135.556 156.661 136.252 156.949 136.978 156.949Z" fill="#C585DB" stroke="black"/>
<path d="M62.5549 171.103C63.2812 171.103 63.9778 170.814 64.4914 170.301C65.005 169.787 65.2935 169.09 65.2935 168.364C65.2935 167.638 65.005 166.941 64.4914 166.428C63.9778 165.914 63.2812 165.625 62.5549 165.625C61.8286 165.625 61.132 165.914 60.6184 166.428C60.1048 166.941 59.8163 167.638 59.8163 168.364C59.8163 169.09 60.1048 169.787 60.6184 170.301C61.132 170.814 61.8286 171.103 62.5549 171.103Z" fill="#C585DB" stroke="black"/>
<path d="M118.435 161.725C119.161 161.725 119.858 161.436 120.371 160.923C120.885 160.409 121.173 159.712 121.173 158.986C121.173 158.26 120.885 157.563 120.371 157.05C119.858 156.536 119.161 156.248 118.435 156.248C117.708 156.248 117.012 156.536 116.498 157.05C115.985 157.563 115.696 158.26 115.696 158.986C115.696 159.712 115.985 160.409 116.498 160.923C117.012 161.436 117.708 161.725 118.435 161.725Z" fill="#C585DB" stroke="black"/>
<path d="M55.8608 171.666C56.5871 171.666 57.2837 171.377 57.7973 170.864C58.3109 170.35 58.5994 169.653 58.5994 168.927C58.5994 168.201 58.3109 167.504 57.7973 166.991C57.2837 166.477 56.5871 166.188 55.8608 166.188C55.1345 166.188 54.4379 166.477 53.9243 166.991C53.4108 167.504 53.1222 168.201 53.1222 168.927C53.1222 169.653 53.4108 170.35 53.9243 170.864C54.4379 171.377 55.1345 171.666 55.8608 171.666Z" fill="#C585DB" stroke="black"/>
<path d="M208.09 121.888C208.816 121.888 209.513 121.6 210.026 121.086C210.54 120.572 210.828 119.876 210.828 119.149C210.828 118.423 210.54 117.727 210.026 117.213C209.513 116.699 208.816 116.411 208.09 116.411C207.363 116.411 206.667 116.699 206.153 117.213C205.64 117.727 205.351 118.423 205.351 119.149C205.351 119.876 205.64 120.572 206.153 121.086C206.667 121.6 207.363 121.888 208.09 121.888Z" fill="#C585DB" stroke="black"/>
<path d="M215.003 107.945C215.729 107.945 216.426 107.657 216.939 107.143C217.453 106.63 217.742 105.933 217.742 105.207C217.742 104.48 217.453 103.784 216.939 103.27C216.426 102.757 215.729 102.468 215.003 102.468C214.277 102.468 213.58 102.757 213.066 103.27C212.553 103.784 212.264 104.48 212.264 105.207C212.264 105.933 212.553 106.63 213.066 107.143C213.58 107.657 214.277 107.945 215.003 107.945Z" fill="#C585DB" stroke="black"/>
<path d="M148.124 122.002H155.87V114.256H148.124V122.002Z" fill="#1A8D1A" stroke="black"/>
<path d="M203.351 128.972C204.863 128.972 206.313 128.371 207.382 127.302C208.451 126.233 209.052 124.783 209.052 123.271C209.052 121.759 208.451 120.309 207.382 119.24C206.313 118.171 204.863 117.57 203.351 117.57C201.839 117.57 200.389 118.171 199.32 119.24C198.251 120.309 197.65 121.759 197.65 123.271C197.65 124.783 198.251 126.233 199.32 127.302C200.389 128.371 201.839 128.972 203.351 128.972Z" fill="#C585DB" stroke="black"/>
<path d="M33.2018 176.295V33.6" stroke="black" stroke-opacity="0.5" stroke-width="0.5" stroke-dasharray="0.5 0.82"/>
<path d="M33.2018 176.295V173.295V176.295Z" fill="black"/>
<path d="M33.2018 176.295V173.295" stroke="black" stroke-width="0.5"/>
<path d="M33.2018 33.6V36.6V33.6Z" fill="black"/>
<path d="M33.2018 33.6V36.6" stroke="black" stroke-width="0.5"/>
<path d="M26.9955 180.397C26.9955 180.188 26.9862 180.188 26.8461 180.188C26.4585 180.618 25.87 180.756 25.3128 180.756C25.2832 180.756 25.2334 180.756 25.2225 180.786C25.2131 180.806 25.2131 180.826 25.2131 181.035C25.5214 181.035 26.0397 180.976 26.4382 180.737V185.996C26.4382 186.346 26.418 186.464 25.5618 186.464H25.2629V186.714C25.7408 186.714 26.239 186.714 26.7169 186.714C27.1948 186.714 27.6929 186.714 28.1724 186.714V186.464H27.8735C27.0157 186.464 26.9955 186.355 26.9955 186.001V180.397Z" fill="black"/>
<path d="M31.5645 180.397C31.5645 180.188 31.5552 180.188 31.4151 180.188C31.0275 180.618 30.4391 180.756 29.8818 180.756C29.8522 180.756 29.8024 180.756 29.7915 180.786C29.7822 180.806 29.7822 180.826 29.7822 181.035C30.0904 181.035 30.6088 180.976 31.0073 180.737V185.996C31.0073 186.346 30.987 186.464 30.1309 186.464H29.832V186.714C30.3099 186.714 30.808 186.714 31.2859 186.714C31.7638 186.714 32.2619 186.714 32.7414 186.714V186.464H32.4425C31.5848 186.464 31.5645 186.355 31.5645 186.001V180.397Z" fill="black"/>
<path d="M35.3179 186.236C35.3179 185.948 35.0782 185.75 34.8385 185.75C34.5505 185.75 34.3513 185.988 34.3513 186.226C34.3513 186.514 34.5894 186.714 34.8292 186.714C35.1187 186.714 35.3179 186.475 35.3179 186.236Z" fill="black"/>
<path d="M37.2493 183.326C37.2493 180.969 38.3654 180.437 39.013 180.437C39.2231 180.437 39.7306 180.473 39.9299 180.836C39.7711 180.836 39.4722 180.836 39.4722 181.183C39.4722 181.45 39.6901 181.541 39.8302 181.541C39.9205 181.541 40.1883 181.502 40.1883 181.172C40.1883 180.558 39.6901 180.208 39.0037 180.208C37.8175 180.208 36.5721 181.436 36.5721 183.625C36.5721 186.32 37.6976 186.913 38.4946 186.913C39.4613 186.913 40.3782 186.049 40.3782 184.716C40.3782 183.474 39.5718 182.57 38.5553 182.57C37.9467 182.57 37.4984 182.967 37.2493 183.662V183.326ZM38.4946 186.675C37.2695 186.675 37.2695 184.846 37.2695 184.478C37.2695 183.762 37.6089 182.728 38.5351 182.728C38.7048 182.728 39.192 182.728 39.522 183.413C39.701 183.803 39.701 184.209 39.701 184.707C39.701 185.244 39.701 185.639 39.4909 186.038C39.273 186.447 38.9538 186.675 38.4946 186.675Z" fill="black"/>
<path d="M92.6138 176.295V33.6" stroke="black" stroke-opacity="0.5" stroke-width="0.5" stroke-dasharray="0.5 0.82"/>
<path d="M92.6138 176.295V173.295V176.295Z" fill="black"/>
<path d="M92.6138 176.295V173.295" stroke="black" stroke-width="0.5"/>
<path d="M92.6138 33.6V36.6V33.6Z" fill="black"/>
<path d="M92.6138 33.6V36.6" stroke="black" stroke-width="0.5"/>
<path d="M86.4076 180.397C86.4076 180.188 86.3982 180.188 86.2581 180.188C85.8705 180.618 85.2821 180.756 84.7248 180.756C84.6952 180.756 84.6454 180.756 84.6345 180.786C84.6252 180.806 84.6252 180.826 84.6252 181.035C84.9334 181.035 85.4518 180.976 85.8503 180.737V185.996C85.8503 186.346 85.83 186.464 84.9739 186.464H84.675V186.714C85.1529 186.714 85.651 186.714 86.1289 186.714C86.6068 186.714 87.1049 186.714 87.5844 186.714V186.464H87.2855C86.4278 186.464 86.4076 186.355 86.4076 186.001V180.397Z" fill="black"/>
<path d="M90.9766 180.397C90.9766 180.188 90.9673 180.188 90.8272 180.188C90.4395 180.618 89.8511 180.756 89.2938 180.756C89.2643 180.756 89.2145 180.756 89.2036 180.786C89.1942 180.806 89.1942 180.826 89.1942 181.035C89.5024 181.035 90.0208 180.976 90.4193 180.737V185.996C90.4193 186.346 90.3991 186.464 89.5429 186.464H89.244V186.714C89.7219 186.714 90.2201 186.714 90.6979 186.714C91.1758 186.714 91.674 186.714 92.1534 186.714V186.464H91.8546C90.9968 186.464 90.9766 186.355 90.9766 186.001V180.397Z" fill="black"/>
<path d="M94.73 186.236C94.73 185.948 94.4903 185.75 94.2505 185.75C93.9626 185.75 93.7633 185.988 93.7633 186.226C93.7633 186.514 94.0015 186.714 94.2412 186.714C94.5307 186.714 94.73 186.475 94.73 186.236Z" fill="black"/>
<path d="M98.3161 183.189C98.9434 182.873 99.5816 182.397 99.5816 181.634C99.5816 180.734 98.7037 180.208 97.8973 180.208C96.9914 180.208 96.1943 180.862 96.1943 181.763C96.1943 182.011 96.2535 182.437 96.6427 182.814C96.7423 182.912 97.1595 183.209 97.4288 183.398C96.9805 183.627 95.9344 184.17 95.9344 185.26C95.9344 186.279 96.9104 186.913 97.8771 186.913C98.9434 186.913 99.8401 186.15 99.8401 185.141C99.8401 184.238 99.233 183.823 98.8344 183.555L98.3161 183.189ZM97.01 182.321C96.9307 182.271 96.5321 181.964 96.5321 181.497C96.5321 180.893 97.1595 180.437 97.8771 180.437C98.6648 180.437 99.2423 180.991 99.2423 181.636C99.2423 182.559 98.2056 183.085 98.1557 183.085C98.1464 183.085 98.1371 183.085 98.0561 183.024L97.01 182.321ZM98.8438 184.349C98.9932 184.458 99.4711 184.783 99.4711 185.389C99.4711 186.12 98.7348 186.675 97.8973 186.675C96.9914 186.675 96.3033 186.032 96.3033 185.25C96.3033 184.467 96.9104 183.815 97.5985 183.507L98.8438 184.349Z" fill="black"/>
<path d="M152.026 176.295V33.6" stroke="black" stroke-opacity="0.5" stroke-width="0.5" stroke-dasharray="0.5 0.82"/>
<path d="M152.026 176.295V173.295V176.295Z" fill="black"/>
<path d="M152.026 176.295V173.295" stroke="black" stroke-width="0.5"/>
<path d="M152.026 33.6V36.6V33.6Z" fill="black"/>
<path d="M152.026 33.6V36.6" stroke="black" stroke-width="0.5"/>
<path d="M145.82 180.397C145.82 180.188 145.81 180.188 145.67 180.188C145.283 180.618 144.694 180.756 144.137 180.756C144.107 180.756 144.057 180.756 144.047 180.786C144.037 180.806 144.037 180.826 144.037 181.035C144.345 181.035 144.864 180.976 145.262 180.737V185.996C145.262 186.346 145.242 186.464 144.386 186.464H144.087V186.713C144.565 186.713 145.063 186.713 145.541 186.713C146.019 186.713 146.517 186.713 146.996 186.713V186.464H146.698C145.84 186.464 145.82 186.355 145.82 186.001V180.397Z" fill="black"/>
<path d="M151.894 185.174H151.715C151.615 185.879 151.534 185.999 151.495 186.06C151.446 186.139 150.728 186.139 150.588 186.139H148.676C149.034 185.75 149.732 185.045 150.579 184.228C151.186 183.652 151.894 182.974 151.894 181.989C151.894 180.814 150.957 180.138 149.911 180.138C148.815 180.138 148.147 181.103 148.147 181.997C148.147 182.386 148.437 182.436 148.556 182.436C148.656 182.436 148.955 182.375 148.955 182.028C148.955 181.721 148.695 181.633 148.556 181.633C148.496 181.633 148.437 181.642 148.396 181.662C148.586 180.814 149.164 180.397 149.772 180.397C150.638 180.397 151.206 181.083 151.206 181.989C151.206 182.855 150.698 183.6 150.13 184.248L148.147 186.486V186.713H151.654L151.894 185.174Z" fill="black"/>
<path d="M154.142 186.236C154.142 185.948 153.902 185.75 153.663 185.75C153.375 185.75 153.175 185.988 153.175 186.226C153.175 186.514 153.414 186.713 153.653 186.713C153.943 186.713 154.142 186.475 154.142 186.236Z" fill="black"/>
<path d="M159.202 183.561C159.202 182.953 159.193 181.919 158.774 181.124C158.405 180.426 157.817 180.179 157.3 180.179C156.821 180.179 156.213 180.397 155.835 181.114C155.437 181.86 155.396 182.784 155.396 183.561C155.396 184.128 155.407 184.992 155.715 185.75C156.143 186.774 156.911 186.913 157.3 186.913C157.758 186.913 158.455 186.724 158.863 185.779C159.162 185.091 159.202 184.287 159.202 183.561ZM157.3 186.754C156.662 186.754 156.284 186.208 156.143 185.449C156.034 184.864 156.034 184.008 156.034 183.451C156.034 182.685 156.034 182.048 156.164 181.441C156.354 180.597 156.911 180.337 157.3 180.337C157.708 180.337 158.236 180.607 158.426 181.421C158.555 181.987 158.564 182.655 158.564 183.451C158.564 184.098 158.564 184.894 158.446 185.481C158.236 186.566 157.649 186.754 157.3 186.754Z" fill="black"/>
<path d="M211.438 176.295V33.6" stroke="black" stroke-opacity="0.5" stroke-width="0.5" stroke-dasharray="0.5 0.82"/>
<path d="M211.438 176.295V173.295V176.295Z" fill="black"/>
<path d="M211.438 176.295V173.295" stroke="black" stroke-width="0.5"/>
<path d="M211.438 33.6V36.6V33.6Z" fill="black"/>
<path d="M211.438 33.6V36.6" stroke="black" stroke-width="0.5"/>
<path d="M205.232 180.397C205.232 180.188 205.222 180.188 205.082 180.188C204.695 180.618 204.106 180.756 203.549 180.756C203.519 180.756 203.47 180.756 203.459 180.786C203.449 180.806 203.449 180.826 203.449 181.035C203.758 181.035 204.276 180.976 204.674 180.737V185.996C204.674 186.346 204.654 186.464 203.798 186.464H203.499V186.713C203.977 186.713 204.475 186.713 204.953 186.713C205.431 186.713 205.929 186.713 206.409 186.713V186.464H206.11C205.252 186.464 205.232 186.355 205.232 186.001V180.397Z" fill="black"/>
<path d="M211.306 185.174H211.127C211.027 185.879 210.946 185.999 210.908 186.06C210.858 186.139 210.14 186.139 210 186.139H208.088C208.446 185.75 209.144 185.045 209.991 184.227C210.598 183.652 211.306 182.974 211.306 181.989C211.306 180.814 210.369 180.138 209.323 180.138C208.227 180.138 207.559 181.103 207.559 181.997C207.559 182.386 207.849 182.436 207.969 182.436C208.068 182.436 208.367 182.375 208.367 182.028C208.367 181.721 208.107 181.633 207.969 181.633C207.908 181.633 207.849 181.642 207.808 181.662C207.998 180.814 208.576 180.397 209.184 180.397C210.05 180.397 210.618 181.083 210.618 181.989C210.618 182.855 210.111 183.6 209.542 184.248L207.559 186.486V186.713H211.066L211.306 185.174Z" fill="black"/>
<path d="M213.554 186.236C213.554 185.948 213.314 185.75 213.075 185.75C212.787 185.75 212.587 185.988 212.587 186.226C212.587 186.514 212.826 186.713 213.065 186.713C213.355 186.713 213.554 186.475 213.554 186.236Z" fill="black"/>
<path d="M218.585 185.174H218.406C218.306 185.879 218.225 185.999 218.186 186.06C218.137 186.139 217.419 186.139 217.279 186.139H215.367C215.725 185.75 216.423 185.045 217.269 184.227C217.877 183.652 218.585 182.974 218.585 181.989C218.585 180.814 217.648 180.138 216.602 180.138C215.506 180.138 214.838 181.103 214.838 181.997C214.838 182.386 215.127 182.436 215.247 182.436C215.347 182.436 215.646 182.375 215.646 182.028C215.646 181.721 215.386 181.633 215.247 181.633C215.187 181.633 215.127 181.642 215.087 181.662C215.277 180.814 215.854 180.397 216.463 180.397C217.329 180.397 217.897 181.083 217.897 181.989C217.897 182.855 217.389 183.6 216.821 184.248L214.838 186.486V186.713H218.345L218.585 185.174Z" fill="black"/>
<path d="M48.0548 176.295V174.795V176.295Z" fill="black"/>
<path d="M48.0548 176.295V174.795" stroke="black" stroke-width="0.5"/>
<path d="M48.0548 33.6V35.1V33.6Z" fill="black"/>
<path d="M48.0548 33.6V35.1" stroke="black" stroke-width="0.5"/>
<path d="M62.9078 176.295V174.795V176.295Z" fill="black"/>
<path d="M62.9078 176.295V174.795" stroke="black" stroke-width="0.5"/>
<path d="M62.9078 33.6V35.1V33.6Z" fill="black"/>
<path d="M62.9078 33.6V35.1" stroke="black" stroke-width="0.5"/>
<path d="M77.7608 176.295V174.795V176.295Z" fill="black"/>
<path d="M77.7608 176.295V174.795" stroke="black" stroke-width="0.5"/>
<path d="M77.7608 33.6V35.1V33.6Z" fill="black"/>
<path d="M77.7608 33.6V35.1" stroke="black" stroke-width="0.5"/>
<path d="M107.467 176.295V174.795V176.295Z" fill="black"/>
<path d="M107.467 176.295V174.795" stroke="black" stroke-width="0.5"/>
<path d="M107.467 33.6V35.1V33.6Z" fill="black"/>
<path d="M107.467 33.6V35.1" stroke="black" stroke-width="0.5"/>
<path d="M122.32 176.295V174.795V176.295Z" fill="black"/>
<path d="M122.32 176.295V174.795" stroke="black" stroke-width="0.5"/>
<path d="M122.32 33.6V35.1V33.6Z" fill="black"/>
<path d="M122.32 33.6V35.1" stroke="black" stroke-width="0.5"/>
<path d="M137.173 176.295V174.795V176.295Z" fill="black"/>
<path d="M137.173 176.295V174.795" stroke="black" stroke-width="0.5"/>
<path d="M137.173 33.6V35.1V33.6Z" fill="black"/>
<path d="M137.173 33.6V35.1" stroke="black" stroke-width="0.5"/>
<path d="M166.879 176.295V174.795V176.295Z" fill="black"/>
<path d="M166.879 176.295V174.795" stroke="black" stroke-width="0.5"/>
<path d="M166.879 33.6V35.1V33.6Z" fill="black"/>
<path d="M166.879 33.6V35.1" stroke="black" stroke-width="0.5"/>
<path d="M181.732 176.295V174.795V176.295Z" fill="black"/>
<path d="M181.732 176.295V174.795" stroke="black" stroke-width="0.5"/>
<path d="M181.732 33.6V35.1V33.6Z" fill="black"/>
<path d="M181.732 33.6V35.1" stroke="black" stroke-width="0.5"/>
<path d="M196.585 176.295V174.795V176.295Z" fill="black"/>
<path d="M196.585 176.295V174.795" stroke="black" stroke-width="0.5"/>
<path d="M196.585 33.6V35.1V33.6Z" fill="black"/>
<path d="M196.585 33.6V35.1" stroke="black" stroke-width="0.5"/>
<path d="M226.291 176.295V174.795V176.295Z" fill="black"/>
<path d="M226.291 176.295V174.795" stroke="black" stroke-width="0.5"/>
<path d="M226.291 33.6V35.1V33.6Z" fill="black"/>
<path d="M226.291 33.6V35.1" stroke="black" stroke-width="0.5"/>
<path d="M32.0627 157.151H227.363" stroke="black" stroke-opacity="0.5" stroke-width="0.5" stroke-dasharray="0.5 0.82"/>
<path d="M32.0627 157.151H35.0627H32.0627Z" fill="black"/>
<path d="M32.0627 157.151H35.0627" stroke="black" stroke-width="0.5"/>
<path d="M227.363 157.151H224.363H227.363Z" fill="black"/>
<path d="M227.363 157.151H224.363" stroke="black" stroke-width="0.5"/>
<path d="M22.7548 159.071H22.5757C22.4761 159.776 22.3952 159.896 22.3563 159.956C22.3064 160.036 21.5888 160.036 21.4487 160.036H19.5371C19.8952 159.647 20.5926 158.941 21.4394 158.124C22.0465 157.548 22.7548 156.871 22.7548 155.886C22.7548 154.71 21.8176 154.035 20.7716 154.035C19.6757 154.035 19.0079 155 19.0079 155.893C19.0079 156.283 19.2974 156.332 19.4173 156.332C19.5169 156.332 19.8158 156.272 19.8158 155.925C19.8158 155.618 19.5558 155.529 19.4173 155.529C19.3566 155.529 19.2974 155.539 19.2569 155.559C19.4469 154.71 20.0244 154.293 20.633 154.293C21.4985 154.293 22.0667 154.98 22.0667 155.886C22.0667 156.751 21.5592 157.497 20.9911 158.144L19.0079 160.383V160.61H22.515L22.7548 159.071Z" fill="black"/>
<path d="M24.3054 154.863C24.405 154.903 24.8129 155.031 25.2316 155.031C26.1579 155.031 26.6653 154.522 26.9549 154.228C26.9549 154.139 26.9549 154.085 26.8957 154.085C26.8848 154.085 26.8646 154.085 26.7852 154.13C26.4365 154.293 26.0286 154.426 25.5305 154.426C25.2316 154.426 24.7833 154.385 24.2945 154.167C24.1856 154.117 24.1653 154.117 24.156 154.117C24.1062 154.117 24.0953 154.128 24.0953 154.326V157.181C24.0953 157.358 24.0953 157.408 24.1949 157.408C24.2447 157.408 24.2649 157.388 24.3148 157.319C24.6339 156.873 25.0713 156.684 25.5694 156.684C25.9181 156.684 26.6653 156.902 26.6653 158.604C26.6653 158.921 26.6653 159.497 26.3664 159.955C26.1174 160.363 25.7298 160.571 25.3017 160.571C24.6432 160.571 23.9754 160.112 23.7964 159.343C23.8369 159.354 23.9163 159.373 23.9567 159.373C24.0859 159.373 24.335 159.303 24.335 158.994C24.335 158.727 24.1451 158.618 23.9567 158.618C23.7263 158.618 23.5769 158.758 23.5769 159.036C23.5769 159.903 24.2649 160.809 25.3204 160.809C26.3478 160.809 27.3238 159.925 27.3238 158.643C27.3238 157.45 26.547 156.525 25.5803 156.525C25.0713 156.525 24.6432 156.714 24.3054 157.07V154.863Z" fill="black"/>
<path d="M32.0627 125.261H227.363" stroke="black" stroke-opacity="0.5" stroke-width="0.5" stroke-dasharray="0.5 0.82"/>
<path d="M32.0627 125.261H35.0627H32.0627Z" fill="black"/>
<path d="M32.0627 125.261H35.0627" stroke="black" stroke-width="0.5"/>
<path d="M227.363 125.261H224.363H227.363Z" fill="black"/>
<path d="M227.363 125.261H224.363" stroke="black" stroke-width="0.5"/>
<path d="M20.8011 125.363C21.6884 125.363 22.0776 126.133 22.0776 127.023C22.0776 128.222 21.4394 128.681 20.8618 128.681C20.3341 128.681 19.4764 128.418 19.2071 127.641C19.2569 127.662 19.3067 127.662 19.3565 127.662C19.5963 127.662 19.7753 127.503 19.7753 127.245C19.7753 126.957 19.5558 126.827 19.3565 126.827C19.1884 126.827 18.9285 126.907 18.9285 127.279C18.9285 128.199 19.8251 128.92 20.8821 128.92C21.9873 128.92 22.8341 128.051 22.8341 127.031C22.8341 126.063 22.0371 125.363 21.0907 125.254C21.8472 125.096 22.5757 124.43 22.5757 123.538C22.5757 122.774 21.7881 122.215 20.8914 122.215C19.9854 122.215 19.1884 122.76 19.1884 123.538C19.1884 123.879 19.4468 123.938 19.576 123.938C19.7862 123.938 19.9652 123.809 19.9652 123.551C19.9652 123.294 19.7862 123.165 19.576 123.165C19.5371 123.165 19.4873 123.165 19.4468 123.183C19.7364 122.557 20.5225 122.444 20.8712 122.444C21.2199 122.444 21.8783 122.61 21.8783 123.552C21.8783 123.828 21.8379 124.318 21.4985 124.751C21.1996 125.134 20.8618 125.134 20.5334 125.165C20.4836 125.165 20.2532 125.188 20.2143 125.188C20.1442 125.198 20.1037 125.207 20.1037 125.283C20.1037 125.353 20.1146 125.363 20.3139 125.363H20.8011Z" fill="black"/>
<path d="M27.3533 125.568C27.3533 124.959 27.344 123.926 26.9253 123.13C26.5563 122.433 25.9679 122.185 25.4511 122.185C24.9716 122.185 24.3646 122.403 23.9863 123.121C23.5878 123.867 23.5473 124.791 23.5473 125.568C23.5473 126.135 23.5582 126.999 23.8664 127.757C24.2945 128.781 25.0619 128.92 25.4511 128.92C25.9088 128.92 26.6061 128.731 27.014 127.786C27.3129 127.098 27.3533 126.293 27.3533 125.568ZM25.4511 128.761C24.8129 128.761 24.4346 128.214 24.2945 127.456C24.1855 126.871 24.1855 126.015 24.1855 125.457C24.1855 124.692 24.1855 124.055 24.3147 123.448C24.5046 122.604 25.0619 122.344 25.4511 122.344C25.8589 122.344 26.3867 122.613 26.5766 123.428C26.7058 123.994 26.7151 124.662 26.7151 125.457C26.7151 126.105 26.7151 126.901 26.5968 127.487C26.3867 128.572 25.7998 128.761 25.4511 128.761Z" fill="black"/>
<path d="M32.0627 93.3711H227.363" stroke="black" stroke-opacity="0.5" stroke-width="0.5" stroke-dasharray="0.5 0.82"/>
<path d="M32.0627 93.3711H35.0627H32.0627Z" fill="black"/>
<path d="M32.0627 93.3711H35.0627" stroke="black" stroke-width="0.5"/>
<path d="M227.363 93.3711H224.363H227.363Z" fill="black"/>
<path d="M227.363 93.3711H224.363" stroke="black" stroke-width="0.5"/>
<path d="M20.8011 93.4726C21.6884 93.4726 22.0776 94.2432 22.0776 95.1336C22.0776 96.3322 21.4394 96.7914 20.8618 96.7914C20.3341 96.7914 19.4764 96.5284 19.2071 95.7516C19.2569 95.7718 19.3067 95.7718 19.3565 95.7718C19.5963 95.7718 19.7753 95.6131 19.7753 95.3546C19.7753 95.0667 19.5558 94.9375 19.3565 94.9375C19.1884 94.9375 18.9285 95.0168 18.9285 95.3889C18.9285 96.3089 19.8251 97.0296 20.8821 97.0296C21.9873 97.0296 22.8341 96.161 22.8341 95.1414C22.8341 94.1731 22.0371 93.4726 21.0907 93.3637C21.8472 93.2065 22.5757 92.5402 22.5757 91.6482C22.5757 90.8839 21.7881 90.3251 20.8914 90.3251C19.9854 90.3251 19.1884 90.8699 19.1884 91.6482C19.1884 91.9891 19.4468 92.0483 19.576 92.0483C19.7862 92.0483 19.9652 91.9191 19.9652 91.6607C19.9652 91.4038 19.7862 91.2746 19.576 91.2746C19.5371 91.2746 19.4873 91.2746 19.4468 91.2933C19.7364 90.6675 20.5225 90.5539 20.8712 90.5539C21.2199 90.5539 21.8783 90.7205 21.8783 91.6622C21.8783 91.9378 21.8379 92.4281 21.4985 92.8609C21.1996 93.2438 20.8618 93.2438 20.5334 93.2749C20.4836 93.2749 20.2532 93.2983 20.2143 93.2983C20.1442 93.3076 20.1037 93.317 20.1037 93.3933C20.1037 93.4633 20.1146 93.4726 20.3139 93.4726H20.8011Z" fill="black"/>
<path d="M24.3054 91.0832C24.405 91.1236 24.8129 91.2513 25.2316 91.2513C26.1579 91.2513 26.6653 90.7423 26.9549 90.448C26.9549 90.3593 26.9549 90.3048 26.8957 90.3048C26.8848 90.3048 26.8646 90.3048 26.7852 90.35C26.4365 90.5134 26.0286 90.6457 25.5305 90.6457C25.2316 90.6457 24.7833 90.6053 24.2945 90.3873C24.1856 90.3375 24.1653 90.3375 24.156 90.3375C24.1062 90.3375 24.0953 90.3484 24.0953 90.5461V93.401C24.0953 93.5785 24.0953 93.6283 24.1949 93.6283C24.2447 93.6283 24.2649 93.6081 24.3148 93.5396C24.6339 93.0928 25.0713 92.9045 25.5694 92.9045C25.9181 92.9045 26.6653 93.1224 26.6653 94.8238C26.6653 95.1414 26.6653 95.7173 26.3664 96.175C26.1174 96.5829 25.7298 96.7914 25.3017 96.7914C24.6432 96.7914 23.9754 96.3322 23.7964 95.5632C23.8369 95.5741 23.9163 95.5928 23.9567 95.5928C24.0859 95.5928 24.335 95.5228 24.335 95.2145C24.335 94.9468 24.1451 94.8378 23.9567 94.8378C23.7263 94.8378 23.5769 94.9779 23.5769 95.2566C23.5769 96.1236 24.2649 97.0296 25.3204 97.0296C26.3478 97.0296 27.3238 96.1454 27.3238 94.8627C27.3238 93.6703 26.547 92.7457 25.5803 92.7457C25.0713 92.7457 24.6432 92.934 24.3054 93.2905V91.0832Z" fill="black"/>
<path d="M32.0627 61.4812H227.363" stroke="black" stroke-opacity="0.5" stroke-width="0.5" stroke-dasharray="0.5 0.82"/>
<path d="M32.0627 61.4812H35.0627H32.0627Z" fill="black"/>
<path d="M32.0627 61.4812H35.0627" stroke="black" stroke-width="0.5"/>
<path d="M227.363 61.4812H224.363H227.363Z" fill="black"/>
<path d="M227.363 61.4812H224.363" stroke="black" stroke-width="0.5"/>
<path d="M21.9468 58.5239C21.9468 58.3153 21.9375 58.3153 21.7585 58.3153L18.7993 62.9884V63.2468H21.3693V64.2291C21.3693 64.5918 21.3491 64.6914 20.6517 64.6914H20.4633V64.9405C20.7824 64.9405 21.3195 64.9405 21.6588 64.9405C21.9966 64.9405 22.5352 64.9405 22.8544 64.9405V64.6914H22.6644C21.9671 64.6914 21.9468 64.5918 21.9468 64.2291V63.2468H22.9633V62.9884H21.9468V58.5239ZM21.3989 59.1762V62.9884H18.9985L21.3989 59.1762Z" fill="black"/>
<path d="M27.3533 61.7882C27.3533 61.1796 27.344 60.146 26.9253 59.3505C26.5563 58.6531 25.9679 58.4056 25.4511 58.4056C24.9716 58.4056 24.3646 58.6235 23.9863 59.3412C23.5878 60.0868 23.5473 61.0115 23.5473 61.7882C23.5473 62.3549 23.5582 63.2188 23.8664 63.9769C24.2945 65.0012 25.0619 65.1397 25.4511 65.1397C25.9088 65.1397 26.6061 64.9514 27.014 64.0065C27.3129 63.3184 27.3533 62.5136 27.3533 61.7882ZM25.4511 64.981C24.8129 64.981 24.4346 64.4346 24.2945 63.6765C24.1855 63.0912 24.1855 62.235 24.1855 61.6777C24.1855 60.9118 24.1855 60.2752 24.3147 59.6681C24.5046 58.8244 25.0619 58.5644 25.4511 58.5644C25.8589 58.5644 26.3867 58.8337 26.5766 59.6478C26.7058 60.2145 26.7151 60.8823 26.7151 61.6777C26.7151 62.3253 26.7151 63.1207 26.5968 63.7076C26.3867 64.7926 25.7998 64.981 25.4511 64.981Z" fill="black"/>
<path d="M32.0627 176.285H33.5627H32.0627Z" fill="black"/>
<path d="M32.0627 176.285H33.5627" stroke="black" stroke-width="0.5"/>
<path d="M227.363 176.285H225.863H227.363Z" fill="black"/>
<path d="M227.363 176.285H225.863" stroke="black" stroke-width="0.5"/>
<path d="M32.0627 169.907H33.5627H32.0627Z" fill="black"/>
<path d="M32.0627 169.907H33.5627" stroke="black" stroke-width="0.5"/>
<path d="M227.363 169.907H225.863H227.363Z" fill="black"/>
<path d="M227.363 169.907H225.863" stroke="black" stroke-width="0.5"/>
<path d="M32.0627 163.529H33.5627H32.0627Z" fill="black"/>
<path d="M32.0627 163.529H33.5627" stroke="black" stroke-width="0.5"/>
<path d="M227.363 163.529H225.863H227.363Z" fill="black"/>
<path d="M227.363 163.529H225.863" stroke="black" stroke-width="0.5"/>
<path d="M32.0627 150.773H33.5627H32.0627Z" fill="black"/>
<path d="M32.0627 150.773H33.5627" stroke="black" stroke-width="0.5"/>
<path d="M227.363 150.773H225.863H227.363Z" fill="black"/>
<path d="M227.363 150.773H225.863" stroke="black" stroke-width="0.5"/>
<path d="M32.0627 144.395H33.5627H32.0627Z" fill="black"/>
<path d="M32.0627 144.395H33.5627" stroke="black" stroke-width="0.5"/>
<path d="M227.363 144.395H225.863H227.363Z" fill="black"/>
<path d="M227.363 144.395H225.863" stroke="black" stroke-width="0.5"/>
<path d="M32.0627 138.017H33.5627H32.0627Z" fill="black"/>
<path d="M32.0627 138.017H33.5627" stroke="black" stroke-width="0.5"/>
<path d="M227.363 138.017H225.863H227.363Z" fill="black"/>
<path d="M227.363 138.017H225.863" stroke="black" stroke-width="0.5"/>
<path d="M32.0627 131.639H33.5627H32.0627Z" fill="black"/>
<path d="M32.0627 131.639H33.5627" stroke="black" stroke-width="0.5"/>
<path d="M227.363 131.639H225.863H227.363Z" fill="black"/>
<path d="M227.363 131.639H225.863" stroke="black" stroke-width="0.5"/>
<path d="M32.0627 118.883H33.5627H32.0627Z" fill="black"/>
<path d="M32.0627 118.883H33.5627" stroke="black" stroke-width="0.5"/>
<path d="M227.363 118.883H225.863H227.363Z" fill="black"/>
<path d="M227.363 118.883H225.863" stroke="black" stroke-width="0.5"/>
<path d="M32.0627 112.505H33.5627H32.0627Z" fill="black"/>
<path d="M32.0627 112.505H33.5627" stroke="black" stroke-width="0.5"/>
<path d="M227.363 112.505H225.863H227.363Z" fill="black"/>
<path d="M227.363 112.505H225.863" stroke="black" stroke-width="0.5"/>
<path d="M32.0627 106.127H33.5627H32.0627Z" fill="black"/>
<path d="M32.0627 106.127H33.5627" stroke="black" stroke-width="0.5"/>
<path d="M227.363 106.127H225.863H227.363Z" fill="black"/>
<path d="M227.363 106.127H225.863" stroke="black" stroke-width="0.5"/>
<path d="M32.0627 99.7491H33.5627H32.0627Z" fill="black"/>
<path d="M32.0627 99.7491H33.5627" stroke="black" stroke-width="0.5"/>
<path d="M227.363 99.7491H225.863H227.363Z" fill="black"/>
<path d="M227.363 99.7491H225.863" stroke="black" stroke-width="0.5"/>
<path d="M32.0627 86.9931H33.5627H32.0627Z" fill="black"/>
<path d="M32.0627 86.9931H33.5627" stroke="black" stroke-width="0.5"/>
<path d="M227.363 86.9931H225.863H227.363Z" fill="black"/>
<path d="M227.363 86.9931H225.863" stroke="black" stroke-width="0.5"/>
<path d="M32.0627 80.6152H33.5627H32.0627Z" fill="black"/>
<path d="M32.0627 80.6152H33.5627" stroke="black" stroke-width="0.5"/>
<path d="M227.363 80.6152H225.863H227.363Z" fill="black"/>
<path d="M227.363 80.6152H225.863" stroke="black" stroke-width="0.5"/>
<path d="M32.0627 74.2372H33.5627H32.0627Z" fill="black"/>
<path d="M32.0627 74.2372H33.5627" stroke="black" stroke-width="0.5"/>
<path d="M227.363 74.2372H225.863H227.363Z" fill="black"/>
<path d="M227.363 74.2372H225.863" stroke="black" stroke-width="0.5"/>
<path d="M32.0627 67.8592H33.5627H32.0627Z" fill="black"/>
<path d="M32.0627 67.8592H33.5627" stroke="black" stroke-width="0.5"/>
<path d="M227.363 67.8592H225.863H227.363Z" fill="black"/>
<path d="M227.363 67.8592H225.863" stroke="black" stroke-width="0.5"/>
<path d="M32.0627 55.1032H33.5627H32.0627Z" fill="black"/>
<path d="M32.0627 55.1032H33.5627" stroke="black" stroke-width="0.5"/>
<path d="M227.363 55.1032H225.863H227.363Z" fill="black"/>
<path d="M227.363 55.1032H225.863" stroke="black" stroke-width="0.5"/>
<path d="M32.0627 48.7253H33.5627H32.0627Z" fill="black"/>
<path d="M32.0627 48.7253H33.5627" stroke="black" stroke-width="0.5"/>
<path d="M227.363 48.7253H225.863H227.363Z" fill="black"/>
<path d="M227.363 48.7253H225.863" stroke="black" stroke-width="0.5"/>
<path d="M32.0627 42.3473H33.5627H32.0627Z" fill="black"/>
<path d="M32.0627 42.3473H33.5627" stroke="black" stroke-width="0.5"/>
<path d="M227.363 42.3473H225.863H227.363Z" fill="black"/>
<path d="M227.363 42.3473H225.863" stroke="black" stroke-width="0.5"/>
<path d="M32.0627 35.9693H33.5627H32.0627Z" fill="black"/>
<path d="M32.0627 35.9693H33.5627" stroke="black" stroke-width="0.5"/>
<path d="M227.363 35.9693H225.863H227.363Z" fill="black"/>
<path d="M227.363 35.9693H225.863" stroke="black" stroke-width="0.5"/>
<path d="M32.0627 176.295V33.6" stroke="black" stroke-width="0.5" stroke-linecap="square"/>
<path d="M227.363 176.295V33.6" stroke="black" stroke-width="0.5" stroke-linecap="square"/>
<path d="M32.0627 176.295H227.363" stroke="black" stroke-width="0.5" stroke-linecap="square"/>
<path d="M32.0627 33.6H227.363" stroke="black" stroke-width="0.5" stroke-linecap="square"/>
<path d="M6.176 131.892H5.804C5.828 132.252 5.84 132.624 5.84 132.984L5.804 134.412H6.176C6.188 133.608 6.584 133.368 6.812 133.368C6.884 133.368 6.98 133.404 7.052 133.428L12.596 135.228L6.716 137.148C6.668 137.16 6.596 137.184 6.536 137.184C6.176 137.184 6.176 136.488 6.176 136.176H5.804C5.84 136.608 5.84 137.424 5.84 137.88L5.804 139.344H6.176C6.176 138.66 6.176 138.408 6.608 138.264L7.448 138L12.596 139.668L6.692 141.6C6.656 141.612 6.572 141.624 6.536 141.624C6.176 141.624 6.176 140.928 6.176 140.616H5.804C5.84 141.048 5.84 141.864 5.84 142.32L5.804 143.784H6.176C6.176 142.884 6.236 142.836 6.68 142.692L14.036 140.292C14.144 140.256 14.264 140.22 14.264 140.064C14.264 139.896 14.18 139.872 14.024 139.824L7.928 137.844L14.036 135.852C14.144 135.816 14.264 135.78 14.264 135.624C14.264 135.456 14.18 135.432 14.024 135.384L6.98 133.092C6.296 132.876 6.176 132.36 6.176 131.892ZM12.932 126.86H12.26V127.16H12.932C13.628 127.16 13.7 127.46 13.7 127.592C13.7 127.988 13.16 128.036 13.1 128.036H10.7C10.196 128.036 9.728 128.036 9.284 128.468C8.816 128.936 8.624 129.536 8.624 130.112C8.624 131.096 9.188 131.924 9.98 131.924C10.34 131.924 10.544 131.684 10.544 131.372C10.544 131.036 10.304 130.82 9.992 130.82C9.848 130.82 9.452 130.88 9.44 131.432C9.02 131.108 8.888 130.52 8.888 130.136C8.888 129.548 9.356 128.864 10.424 128.864H10.868C10.904 129.476 10.94 130.316 11.3 131.072C11.708 131.972 12.332 132.272 12.86 132.272C13.832 132.272 14.132 131.108 14.132 130.352C14.132 129.56 13.652 129.008 13.088 128.78C13.568 128.732 14.072 128.408 14.072 127.844C14.072 127.592 13.904 126.86 12.932 126.86ZM12.32 128.864C13.46 128.864 13.868 129.728 13.868 130.268C13.868 130.856 13.448 131.348 12.848 131.348C12.188 131.348 11.192 130.844 11.12 128.864H12.32ZM12.512 122.672H11.828V122.972H12.488C13.376 122.972 13.832 123.332 13.832 123.776C13.832 124.58 12.74 124.58 12.536 124.58H9.2V122.864H8.828V124.58H6.62V124.88C7.604 124.892 8.888 125.252 8.936 126.428H9.2V125.408H12.512C13.988 125.408 14.132 124.292 14.132 123.86C14.132 123.008 13.28 122.672 12.512 122.672ZM12.572 117.012C12.452 117.012 12.428 117.108 12.428 117.168C12.428 117.276 12.5 117.3 12.596 117.324C13.832 117.744 13.832 118.824 13.832 118.944C13.832 119.544 13.472 120.024 13.028 120.3C12.452 120.66 11.66 120.66 11.228 120.66V117.312C11.228 117.048 11.228 117.012 10.976 117.012C9.788 117.012 8.624 117.66 8.624 119.16C8.624 120.552 9.86 121.656 11.36 121.656C12.968 121.656 14.132 120.396 14.132 119.016C14.132 117.552 12.8 117.012 12.572 117.012ZM10.976 117.804V120.648C9.188 120.576 8.888 119.568 8.888 119.16C8.888 117.924 10.508 117.804 10.976 117.804ZM9.428 112.292C9.044 112.292 8.696 112.664 8.696 113.18C8.696 114.056 9.5 114.488 10.016 114.656H8.696L8.828 116.324H9.2C9.2 115.484 9.284 115.388 9.872 115.388H13.088C13.628 115.388 13.628 115.52 13.628 116.324H14L13.964 114.956C13.964 114.476 13.964 113.912 14 113.432H13.628V113.684C13.628 114.572 13.496 114.596 13.064 114.596H11.216C10.028 114.596 8.96 114.092 8.96 113.18C8.96 113.096 8.96 113.072 8.972 113.048C8.984 113.084 9.128 113.324 9.44 113.324C9.776 113.324 9.956 113.072 9.956 112.808C9.956 112.592 9.812 112.292 9.428 112.292ZM14 104.905H13.628C13.628 105.709 13.628 105.841 13.088 105.841H5.672L5.804 107.569H6.176C6.176 106.729 6.26 106.633 6.848 106.633H13.088C13.628 106.633 13.628 106.765 13.628 107.569H14L13.964 106.237L14 104.905ZM11.432 98.973C9.896 98.973 8.624 100.173 8.624 101.625C8.624 103.125 9.932 104.289 11.432 104.289C12.98 104.289 14.132 103.041 14.132 101.637C14.132 100.185 12.956 98.973 11.432 98.973ZM11.336 99.969C11.768 99.969 12.416 99.969 12.944 100.233C13.484 100.497 13.832 101.025 13.832 101.625C13.832 102.141 13.58 102.669 13.028 102.993C12.5 103.293 11.768 103.293 11.336 103.293C10.868 103.293 10.22 103.293 9.692 103.005C9.14 102.681 8.888 102.117 8.888 101.637C8.888 101.109 9.152 100.593 9.668 100.281C10.184 99.969 10.88 99.969 11.336 99.969ZM12.464 94.305C11.828 94.305 11.468 94.665 11.324 94.809C10.94 95.205 10.844 95.673 10.748 96.177C10.616 96.849 10.46 97.653 9.764 97.653C9.344 97.653 8.852 97.341 8.852 96.309C8.852 94.989 9.932 94.929 10.304 94.905C10.412 94.893 10.412 94.761 10.412 94.761C10.412 94.605 10.352 94.605 10.124 94.605H8.912C8.708 94.605 8.624 94.605 8.624 94.737C8.624 94.797 8.624 94.821 8.768 94.977C8.816 95.013 8.924 95.133 8.96 95.181C8.624 95.637 8.624 96.129 8.624 96.309C8.624 97.773 9.428 98.229 10.1 98.229C10.52 98.229 10.856 98.037 11.12 97.713C11.432 97.329 11.504 96.993 11.672 96.129C11.72 95.865 11.912 94.881 12.776 94.881C13.388 94.881 13.868 95.301 13.868 96.237C13.868 97.245 13.184 97.677 12.164 97.905C12.008 97.941 11.96 97.953 11.96 98.073C11.96 98.229 12.044 98.229 12.26 98.229H13.844C14.048 98.229 14.132 98.229 14.132 98.097C14.132 98.037 14.12 98.025 13.892 97.797C13.868 97.773 13.844 97.773 13.616 97.557C14.12 97.029 14.132 96.489 14.132 96.237C14.132 94.857 13.328 94.305 12.464 94.305ZM12.464 89.5823C11.828 89.5823 11.468 89.9423 11.324 90.0863C10.94 90.4823 10.844 90.9503 10.748 91.4543C10.616 92.1263 10.46 92.9303 9.764 92.9303C9.344 92.9303 8.852 92.6183 8.852 91.5863C8.852 90.2663 9.932 90.2063 10.304 90.1823C10.412 90.1703 10.412 90.0383 10.412 90.0383C10.412 89.8823 10.352 89.8823 10.124 89.8823H8.912C8.708 89.8823 8.624 89.8823 8.624 90.0143C8.624 90.0743 8.624 90.0983 8.768 90.2543C8.816 90.2903 8.924 90.4103 8.96 90.4583C8.624 90.9143 8.624 91.4063 8.624 91.5863C8.624 93.0503 9.428 93.5063 10.1 93.5063C10.52 93.5063 10.856 93.3143 11.12 92.9903C11.432 92.6063 11.504 92.2703 11.672 91.4063C11.72 91.1423 11.912 90.1583 12.776 90.1583C13.388 90.1583 13.868 90.5783 13.868 91.5143C13.868 92.5223 13.184 92.9543 12.164 93.1823C12.008 93.2183 11.96 93.2303 11.96 93.3503C11.96 93.5063 12.044 93.5063 12.26 93.5063H13.844C14.048 93.5063 14.132 93.5063 14.132 93.3743C14.132 93.3143 14.12 93.3023 13.892 93.0743C13.868 93.0503 13.844 93.0503 13.616 92.8343C14.12 92.3063 14.132 91.7663 14.132 91.5143C14.132 90.1343 13.328 89.5823 12.464 89.5823ZM13.988 86.7437C13.22 86.7437 12.728 87.0317 12.728 87.5117C12.728 87.9317 13.052 88.1477 13.364 88.1477C13.676 88.1477 14 87.9437 14 87.5117C14 87.3317 13.928 87.1637 13.808 87.0317C14.756 87.0077 15.488 87.3437 16.052 87.8717C16.124 87.9437 16.136 87.9557 16.184 87.9557C16.268 87.9557 16.316 87.8957 16.316 87.8357C16.316 87.6917 15.368 86.7437 13.988 86.7437ZM12.572 76.8637C12.452 76.8637 12.452 76.9837 12.452 77.0197C12.452 77.1277 12.5 77.1517 12.572 77.1757C13.688 77.5237 13.832 78.3037 13.832 78.7477C13.832 79.3837 13.316 80.4397 11.384 80.4397C9.428 80.4397 8.924 79.4557 8.924 78.8197C8.924 78.7117 8.936 77.9557 9.368 77.5357C9.404 78.0277 9.764 78.0997 9.92 78.0997C10.232 78.0997 10.472 77.8837 10.472 77.5477C10.472 77.2357 10.268 76.9957 9.908 76.9957C9.092 76.9957 8.624 77.9077 8.624 78.8317C8.624 80.3317 9.92 81.4357 11.408 81.4357C12.944 81.4357 14.132 80.2477 14.132 78.8557C14.132 77.2477 12.692 76.8637 12.572 76.8637ZM14 66.7557H13.628C13.628 67.3797 13.628 67.6797 13.268 67.6917H10.976C9.944 67.6917 9.572 67.6917 9.14 68.0637C8.936 68.2317 8.696 68.6277 8.696 69.3237C8.696 70.3317 9.416 70.8597 9.872 71.0637C8.828 71.2317 8.696 72.1197 8.696 72.6597C8.696 73.5357 9.212 74.0997 9.956 74.4357H8.696L8.828 76.1277H9.2C9.2 75.2877 9.284 75.1917 9.872 75.1917H13.088C13.628 75.1917 13.628 75.3237 13.628 76.1277H14L13.964 74.7717L14 73.4277H13.628C13.628 74.2317 13.628 74.3637 13.088 74.3637H10.88C9.632 74.3637 8.96 73.5117 8.96 72.7437C8.96 71.9877 9.608 71.8557 10.292 71.8557H13.088C13.628 71.8557 13.628 71.9877 13.628 72.7917H14L13.964 71.4357L14 70.0917H13.628C13.628 70.8957 13.628 71.0277 13.088 71.0277H10.88C9.632 71.0277 8.96 70.1757 8.96 69.4077C8.96 68.6517 9.608 68.5197 10.292 68.5197H13.088C13.628 68.5197 13.628 68.6517 13.628 69.4557H14L13.964 68.0997L14 66.7557Z" fill="black"/>
</g>
<path opacity="0.8" d="M49.5574 145.931H119.981C121.293 145.931 121.949 145.745 121.949 145.374V133.557C121.949 133.186 121.293 133 119.981 133H49.5574C48.2456 133 47.5897 133.186 47.5897 133.557V145.374C47.5897 145.745 48.2456 145.931 49.5574 145.931Z" fill="white" stroke="#CCCCCC" stroke-width="0.7"/>
<path d="M60.488 137.036C60.488 135.86 59.3 134.804 57.656 134.804H53.42V135.176H53.708C54.632 135.176 54.656 135.308 54.656 135.74V142.064C54.656 142.496 54.632 142.628 53.708 142.628H53.42V143C53.84 142.964 54.728 142.964 55.184 142.964C55.64 142.964 56.54 142.964 56.96 143V142.628H56.672C55.748 142.628 55.724 142.496 55.724 142.064V139.208H57.752C59.192 139.208 60.488 138.236 60.488 137.036ZM59.252 137.036C59.252 137.6 59.252 138.896 57.344 138.896H55.688V135.656C55.688 135.26 55.712 135.176 56.276 135.176H57.344C59.252 135.176 59.252 136.448 59.252 137.036ZM66.6241 141.932V141.26H66.3241V141.932C66.3241 142.628 66.0241 142.7 65.8921 142.7C65.4961 142.7 65.4481 142.16 65.4481 142.1V139.7C65.4481 139.196 65.4481 138.728 65.0161 138.284C64.5481 137.816 63.9481 137.624 63.3721 137.624C62.3881 137.624 61.5601 138.188 61.5601 138.98C61.5601 139.34 61.8001 139.544 62.1121 139.544C62.4481 139.544 62.6641 139.304 62.6641 138.992C62.6641 138.848 62.6041 138.452 62.0521 138.44C62.3761 138.02 62.9641 137.888 63.3481 137.888C63.9361 137.888 64.6201 138.356 64.6201 139.424V139.868C64.0081 139.904 63.1681 139.94 62.4121 140.3C61.5121 140.708 61.2121 141.332 61.2121 141.86C61.2121 142.832 62.3761 143.132 63.1321 143.132C63.9241 143.132 64.4761 142.652 64.7041 142.088C64.7521 142.568 65.0761 143.072 65.6401 143.072C65.8921 143.072 66.6241 142.904 66.6241 141.932ZM64.6201 141.32C64.6201 142.46 63.7561 142.868 63.2161 142.868C62.6281 142.868 62.1361 142.448 62.1361 141.848C62.1361 141.188 62.6401 140.192 64.6201 140.12V141.32ZM71.1961 138.428C71.1961 138.044 70.8241 137.696 70.3081 137.696C69.4321 137.696 69.0001 138.5 68.8321 139.016V137.696L67.1641 137.828V138.2C68.0041 138.2 68.1001 138.284 68.1001 138.872V142.088C68.1001 142.628 67.9681 142.628 67.1641 142.628V143L68.5321 142.964C69.0121 142.964 69.5761 142.964 70.0561 143V142.628H69.8041C68.9161 142.628 68.8921 142.496 68.8921 142.064V140.216C68.8921 139.028 69.3961 137.96 70.3081 137.96C70.3921 137.96 70.4161 137.96 70.4401 137.972C70.4041 137.984 70.1641 138.128 70.1641 138.44C70.1641 138.776 70.4161 138.956 70.6801 138.956C70.8961 138.956 71.1961 138.812 71.1961 138.428ZM76.5073 141.572C76.5073 141.452 76.4113 141.428 76.3513 141.428C76.2433 141.428 76.2193 141.5 76.1953 141.596C75.7753 142.832 74.6953 142.832 74.5753 142.832C73.9753 142.832 73.4953 142.472 73.2193 142.028C72.8593 141.452 72.8593 140.66 72.8593 140.228H76.2073C76.4713 140.228 76.5073 140.228 76.5073 139.976C76.5073 138.788 75.8593 137.624 74.3593 137.624C72.9673 137.624 71.8633 138.86 71.8633 140.36C71.8633 141.968 73.1233 143.132 74.5033 143.132C75.9673 143.132 76.5073 141.8 76.5073 141.572ZM75.7153 139.976H72.8713C72.9433 138.188 73.9513 137.888 74.3593 137.888C75.5953 137.888 75.7153 139.508 75.7153 139.976ZM80.8434 141.512V140.828H80.5434V141.488C80.5434 142.376 80.1834 142.832 79.7394 142.832C78.9354 142.832 78.9354 141.74 78.9354 141.536V138.2H80.6514V137.828H78.9354V135.62H78.6354C78.6234 136.604 78.2634 137.888 77.0874 137.936V138.2H78.1074V141.512C78.1074 142.988 79.2234 143.132 79.6554 143.132C80.5074 143.132 80.8434 142.28 80.8434 141.512ZM87.1754 140.432C87.1754 138.896 85.9754 137.624 84.5234 137.624C83.0234 137.624 81.8594 138.932 81.8594 140.432C81.8594 141.98 83.1074 143.132 84.5114 143.132C85.9634 143.132 87.1754 141.956 87.1754 140.432ZM86.1794 140.336C86.1794 140.768 86.1794 141.416 85.9154 141.944C85.6514 142.484 85.1234 142.832 84.5234 142.832C84.0074 142.832 83.4794 142.58 83.1554 142.028C82.8554 141.5 82.8554 140.768 82.8554 140.336C82.8554 139.868 82.8554 139.22 83.1434 138.692C83.4674 138.14 84.0314 137.888 84.5114 137.888C85.0394 137.888 85.5554 138.152 85.8674 138.668C86.1794 139.184 86.1794 139.88 86.1794 140.336ZM95.8035 135.38C95.8035 134.936 95.3595 134.54 94.7235 134.54C93.8835 134.54 92.8635 135.176 92.8635 136.448V137.828H91.9155V138.2H92.8635V142.088C92.8635 142.628 92.7315 142.628 91.9275 142.628V143L93.2955 142.964C93.7755 142.964 94.3395 142.964 94.8195 143V142.628H94.5675C93.6795 142.628 93.6555 142.496 93.6555 142.064V138.2H95.0235V137.828H93.6195V136.436C93.6195 135.38 94.1955 134.804 94.7235 134.804C94.7595 134.804 94.9395 134.804 95.1195 134.888C94.9755 134.936 94.7595 135.092 94.7595 135.392C94.7595 135.668 94.9515 135.908 95.2755 135.908C95.6235 135.908 95.8035 135.668 95.8035 135.38ZM99.5555 138.428C99.5555 138.044 99.1835 137.696 98.6675 137.696C97.7915 137.696 97.3595 138.5 97.1915 139.016V137.696L95.5235 137.828V138.2C96.3635 138.2 96.4595 138.284 96.4595 138.872V142.088C96.4595 142.628 96.3275 142.628 95.5235 142.628V143L96.8915 142.964C97.3715 142.964 97.9355 142.964 98.4155 143V142.628H98.1635C97.2755 142.628 97.2515 142.496 97.2515 142.064V140.216C97.2515 139.028 97.7555 137.96 98.6675 137.96C98.7515 137.96 98.7755 137.96 98.7995 137.972C98.7635 137.984 98.5235 138.128 98.5235 138.44C98.5235 138.776 98.7755 138.956 99.0395 138.956C99.2555 138.956 99.5555 138.812 99.5555 138.428ZM105.539 140.432C105.539 138.896 104.339 137.624 102.887 137.624C101.387 137.624 100.223 138.932 100.223 140.432C100.223 141.98 101.471 143.132 102.875 143.132C104.327 143.132 105.539 141.956 105.539 140.432ZM104.543 140.336C104.543 140.768 104.543 141.416 104.279 141.944C104.015 142.484 103.487 142.832 102.887 142.832C102.371 142.832 101.843 142.58 101.519 142.028C101.219 141.5 101.219 140.768 101.219 140.336C101.219 139.868 101.219 139.22 101.507 138.692C101.831 138.14 102.395 137.888 102.875 137.888C103.403 137.888 103.919 138.152 104.231 138.668C104.543 139.184 104.543 139.88 104.543 140.336ZM112.307 143V142.628C111.683 142.628 111.383 142.628 111.371 142.268V139.976C111.371 138.944 111.371 138.572 110.999 138.14C110.831 137.936 110.435 137.696 109.739 137.696C108.863 137.696 108.299 138.212 107.963 138.956V137.696L106.271 137.828V138.2C107.111 138.2 107.207 138.284 107.207 138.872V142.088C107.207 142.628 107.075 142.628 106.271 142.628V143L107.627 142.964L108.971 143V142.628C108.167 142.628 108.035 142.628 108.035 142.088V139.88C108.035 138.632 108.887 137.96 109.655 137.96C110.411 137.96 110.543 138.608 110.543 139.292V142.088C110.543 142.628 110.411 142.628 109.607 142.628V143L110.963 142.964L112.307 143ZM116.199 141.512V140.828H115.899V141.488C115.899 142.376 115.539 142.832 115.095 142.832C114.291 142.832 114.291 141.74 114.291 141.536V138.2H116.007V137.828H114.291V135.62H113.991C113.979 136.604 113.619 137.888 112.443 137.936V138.2H113.463V141.512C113.463 142.988 114.579 143.132 115.011 143.132C115.863 143.132 116.199 142.28 116.199 141.512Z" fill="black"/>
</g>
<defs>
<clipPath id="clip0">
<rect width="232" height="206" fill="white"/>
</clipPath>
<clipPath id="clip1">
<rect width="259" height="176" fill="white" transform="translate(2 29)"/>
</clipPath>
</defs>
</svg>
