<svg width="236" height="206" viewBox="0 0 236 206" fill="none" xmlns="http://www.w3.org/2000/svg">
<rect width="236" height="206" fill="white"/>
<path opacity="0.8" d="M32.1271 21.931H215.63C219.049 21.931 220.758 21.7453 220.758 21.3738V9.55728C220.758 9.18576 219.049 9 215.63 9H32.1271C28.709 9 27 9.18576 27 9.55728V21.3738C27 21.7453 28.709 21.931 32.1271 21.931Z" fill="white" stroke="#CCCCCC" stroke-width="0.7"/>
<path d="M108.831 15.5C108.831 14.3066 108.386 13.1619 107.593 12.318C106.801 11.4741 105.725 11 104.604 11C103.483 11 102.408 11.4741 101.615 12.318C100.822 13.1619 100.377 14.3066 100.377 15.5C100.377 16.6934 100.822 17.8381 101.615 18.682C102.408 19.5259 103.483 20 104.604 20C105.725 20 106.801 19.5259 107.593 18.682C108.386 17.8381 108.831 16.6934 108.831 15.5Z" fill="#ABD9E9" stroke="black" stroke-opacity="0.9"/>
<path d="M177.669 18V17.721H177.453C176.76 17.721 176.742 17.622 176.742 17.298V12.555C176.742 12.231 176.76 12.132 177.453 12.132H177.669V11.853H176.148C175.914 11.853 175.914 11.862 175.851 12.024L173.88 17.091L171.927 12.051C171.846 11.853 171.819 11.853 171.612 11.853H170.091V12.132H170.307C171 12.132 171.018 12.231 171.018 12.555V17.055C171.018 17.298 171.018 17.721 170.091 17.721V18L171.144 17.973L172.197 18V17.721C171.27 17.721 171.27 17.298 171.27 17.055V12.204H171.279L173.448 17.802C173.493 17.919 173.538 18 173.628 18C173.727 18 173.754 17.928 173.79 17.829L176.004 12.132H176.013V17.298C176.013 17.622 175.995 17.721 175.302 17.721H175.086V18C175.419 17.973 176.031 17.973 176.382 17.973C176.733 17.973 177.336 17.973 177.669 18ZM182.249 16.074C182.249 14.922 181.349 13.968 180.26 13.968C179.135 13.968 178.262 14.949 178.262 16.074C178.262 17.235 179.198 18.099 180.251 18.099C181.34 18.099 182.249 17.217 182.249 16.074ZM181.502 16.002C181.502 16.326 181.502 16.812 181.304 17.208C181.106 17.613 180.71 17.874 180.26 17.874C179.873 17.874 179.477 17.685 179.234 17.271C179.009 16.875 179.009 16.326 179.009 16.002C179.009 15.651 179.009 15.165 179.225 14.769C179.468 14.355 179.891 14.166 180.251 14.166C180.647 14.166 181.034 14.364 181.268 14.751C181.502 15.138 181.502 15.66 181.502 16.002ZM187.325 18V17.721C186.857 17.721 186.632 17.721 186.623 17.451V15.732C186.623 14.958 186.623 14.679 186.344 14.355C186.218 14.202 185.921 14.022 185.399 14.022C184.742 14.022 184.319 14.409 184.067 14.967V14.022L182.798 14.121V14.4C183.428 14.4 183.5 14.463 183.5 14.904V17.316C183.5 17.721 183.401 17.721 182.798 17.721V18L183.815 17.973L184.823 18V17.721C184.22 17.721 184.121 17.721 184.121 17.316V15.66C184.121 14.724 184.76 14.22 185.336 14.22C185.903 14.22 186.002 14.706 186.002 15.219V17.316C186.002 17.721 185.903 17.721 185.3 17.721V18L186.317 17.973L187.325 18ZM190.245 16.884V16.371H190.02V16.866C190.02 17.532 189.75 17.874 189.417 17.874C188.814 17.874 188.814 17.055 188.814 16.902V14.4H190.101V14.121H188.814V12.465H188.589C188.58 13.203 188.31 14.166 187.428 14.202V14.4H188.193V16.884C188.193 17.991 189.03 18.099 189.354 18.099C189.993 18.099 190.245 17.46 190.245 16.884ZM194.49 16.929C194.49 16.839 194.418 16.821 194.373 16.821C194.292 16.821 194.274 16.875 194.256 16.947C193.941 17.874 193.131 17.874 193.041 17.874C192.591 17.874 192.231 17.604 192.024 17.271C191.754 16.839 191.754 16.245 191.754 15.921H194.265C194.463 15.921 194.49 15.921 194.49 15.732C194.49 14.841 194.004 13.968 192.879 13.968C191.835 13.968 191.007 14.895 191.007 16.02C191.007 17.226 191.952 18.099 192.987 18.099C194.085 18.099 194.49 17.1 194.49 16.929ZM193.896 15.732H191.763C191.817 14.391 192.573 14.166 192.879 14.166C193.806 14.166 193.896 15.381 193.896 15.732ZM197.238 16.317V15.795H194.853V16.317H197.238ZM201.486 16.929C201.486 16.839 201.396 16.839 201.369 16.839C201.288 16.839 201.27 16.875 201.252 16.929C200.991 17.766 200.406 17.874 200.073 17.874C199.596 17.874 198.804 17.487 198.804 16.038C198.804 14.571 199.542 14.193 200.019 14.193C200.1 14.193 200.667 14.202 200.982 14.526C200.613 14.553 200.559 14.823 200.559 14.94C200.559 15.174 200.721 15.354 200.973 15.354C201.207 15.354 201.387 15.201 201.387 14.931C201.387 14.319 200.703 13.968 200.01 13.968C198.885 13.968 198.057 14.94 198.057 16.056C198.057 17.208 198.948 18.099 199.992 18.099C201.198 18.099 201.486 17.019 201.486 16.929ZM206.097 17.199V16.695H205.872V17.199C205.872 17.721 205.647 17.775 205.548 17.775C205.251 17.775 205.215 17.37 205.215 17.325V15.525C205.215 15.147 205.215 14.796 204.891 14.463C204.54 14.112 204.09 13.968 203.658 13.968C202.92 13.968 202.299 14.391 202.299 14.985C202.299 15.255 202.479 15.408 202.713 15.408C202.965 15.408 203.127 15.228 203.127 14.994C203.127 14.886 203.082 14.589 202.668 14.58C202.911 14.265 203.352 14.166 203.64 14.166C204.081 14.166 204.594 14.517 204.594 15.318V15.651C204.135 15.678 203.505 15.705 202.938 15.975C202.263 16.281 202.038 16.749 202.038 17.145C202.038 17.874 202.911 18.099 203.478 18.099C204.072 18.099 204.486 17.739 204.657 17.316C204.693 17.676 204.936 18.054 205.359 18.054C205.548 18.054 206.097 17.928 206.097 17.199ZM204.594 16.74C204.594 17.595 203.946 17.901 203.541 17.901C203.1 17.901 202.731 17.586 202.731 17.136C202.731 16.641 203.109 15.894 204.594 15.84V16.74ZM209.526 14.571C209.526 14.283 209.247 14.022 208.86 14.022C208.203 14.022 207.879 14.625 207.753 15.012V14.022L206.502 14.121V14.4C207.132 14.4 207.204 14.463 207.204 14.904V17.316C207.204 17.721 207.105 17.721 206.502 17.721V18L207.528 17.973C207.888 17.973 208.311 17.973 208.671 18V17.721H208.482C207.816 17.721 207.798 17.622 207.798 17.298V15.912C207.798 15.021 208.176 14.22 208.86 14.22C208.923 14.22 208.941 14.22 208.959 14.229C208.932 14.238 208.752 14.346 208.752 14.58C208.752 14.832 208.941 14.967 209.139 14.967C209.301 14.967 209.526 14.859 209.526 14.571ZM212.069 18V17.721C211.466 17.721 211.367 17.721 211.367 17.316V11.754L210.071 11.853V12.132C210.701 12.132 210.773 12.195 210.773 12.636V17.316C210.773 17.721 210.674 17.721 210.071 17.721V18L211.07 17.973L212.069 18ZM216.518 16.074C216.518 14.922 215.618 13.968 214.529 13.968C213.404 13.968 212.531 14.949 212.531 16.074C212.531 17.235 213.467 18.099 214.52 18.099C215.609 18.099 216.518 17.217 216.518 16.074ZM215.771 16.002C215.771 16.326 215.771 16.812 215.573 17.208C215.375 17.613 214.979 17.874 214.529 17.874C214.142 17.874 213.746 17.685 213.503 17.271C213.278 16.875 213.278 16.326 213.278 16.002C213.278 15.651 213.278 15.165 213.494 14.769C213.737 14.355 214.16 14.166 214.52 14.166C214.916 14.166 215.303 14.364 215.537 14.751C215.771 15.138 215.771 15.66 215.771 16.002Z" fill="black"/>
<path d="M118.247 14.949C118.247 13.113 116.888 11.655 115.25 11.655C113.639 11.655 112.262 13.095 112.262 14.949C112.262 16.794 113.648 18.198 115.25 18.198C116.888 18.198 118.247 16.767 118.247 14.949ZM117.32 14.823C117.32 17.208 116.087 17.964 115.259 17.964C114.395 17.964 113.189 17.172 113.189 14.823C113.189 12.492 114.503 11.88 115.25 11.88C116.033 11.88 117.32 12.519 117.32 14.823ZM123.577 18V17.721C122.947 17.721 122.875 17.658 122.875 17.217V14.022L121.552 14.121V14.4C122.182 14.4 122.254 14.463 122.254 14.904V16.506C122.254 17.289 121.822 17.901 121.165 17.901C120.409 17.901 120.373 17.478 120.373 17.01V14.022L119.05 14.121V14.4C119.752 14.4 119.752 14.427 119.752 15.228V16.578C119.752 17.28 119.752 18.099 121.12 18.099C121.624 18.099 122.02 17.847 122.281 17.289V18.099L123.577 18ZM127.039 14.571C127.039 14.283 126.76 14.022 126.373 14.022C125.716 14.022 125.392 14.625 125.266 15.012V14.022L124.015 14.121V14.4C124.645 14.4 124.717 14.463 124.717 14.904V17.316C124.717 17.721 124.618 17.721 124.015 17.721V18L125.041 17.973C125.401 17.973 125.824 17.973 126.184 18V17.721H125.995C125.329 17.721 125.311 17.622 125.311 17.298V15.912C125.311 15.021 125.689 14.22 126.373 14.22C126.436 14.22 126.454 14.22 126.472 14.229C126.445 14.238 126.265 14.346 126.265 14.58C126.265 14.832 126.454 14.967 126.652 14.967C126.814 14.967 127.039 14.859 127.039 14.571ZM130.528 16.848C130.528 16.371 130.258 16.101 130.15 15.993C129.853 15.705 129.502 15.633 129.124 15.561C128.62 15.462 128.017 15.345 128.017 14.823C128.017 14.508 128.251 14.139 129.025 14.139C130.015 14.139 130.06 14.949 130.078 15.228C130.087 15.309 130.186 15.309 130.186 15.309C130.303 15.309 130.303 15.264 130.303 15.093V14.184C130.303 14.031 130.303 13.968 130.204 13.968C130.159 13.968 130.141 13.968 130.024 14.076C129.997 14.112 129.907 14.193 129.871 14.22C129.529 13.968 129.16 13.968 129.025 13.968C127.927 13.968 127.585 14.571 127.585 15.075C127.585 15.39 127.729 15.642 127.972 15.84C128.26 16.074 128.512 16.128 129.16 16.254C129.358 16.29 130.096 16.434 130.096 17.082C130.096 17.541 129.781 17.901 129.079 17.901C128.323 17.901 127.999 17.388 127.828 16.623C127.801 16.506 127.792 16.47 127.702 16.47C127.585 16.47 127.585 16.533 127.585 16.695V17.883C127.585 18.036 127.585 18.099 127.684 18.099C127.729 18.099 127.738 18.09 127.909 17.919C127.927 17.901 127.927 17.883 128.089 17.712C128.485 18.09 128.89 18.099 129.079 18.099C130.114 18.099 130.528 17.496 130.528 16.848Z" fill="black"/>
<path d="M49.2476 13.905L48.9956 11.88H44.0546V12.159H44.2706C44.9636 12.159 44.9816 12.258 44.9816 12.582V17.298C44.9816 17.622 44.9636 17.721 44.2706 17.721H44.0546V18C44.3696 17.973 45.0716 17.973 45.4226 17.973C45.7916 17.973 46.6106 17.973 46.9346 18V17.721H46.6376C45.7826 17.721 45.7826 17.604 45.7826 17.289V15.075H46.5566C47.4206 15.075 47.5106 15.363 47.5106 16.128H47.7356V13.743H47.5106C47.5106 14.499 47.4206 14.796 46.5566 14.796H45.7826V12.519C45.7826 12.222 45.8006 12.159 46.2236 12.159H47.3036C48.6536 12.159 48.8786 12.663 49.0226 13.905H49.2476ZM53.2374 17.199V16.695H53.0124V17.199C53.0124 17.721 52.7874 17.775 52.6884 17.775C52.3914 17.775 52.3554 17.37 52.3554 17.325V15.525C52.3554 15.147 52.3554 14.796 52.0314 14.463C51.6804 14.112 51.2304 13.968 50.7984 13.968C50.0604 13.968 49.4394 14.391 49.4394 14.985C49.4394 15.255 49.6194 15.408 49.8534 15.408C50.1054 15.408 50.2674 15.228 50.2674 14.994C50.2674 14.886 50.2224 14.589 49.8084 14.58C50.0514 14.265 50.4924 14.166 50.7804 14.166C51.2214 14.166 51.7344 14.517 51.7344 15.318V15.651C51.2754 15.678 50.6454 15.705 50.0784 15.975C49.4034 16.281 49.1784 16.749 49.1784 17.145C49.1784 17.874 50.0514 18.099 50.6184 18.099C51.2124 18.099 51.6264 17.739 51.7974 17.316C51.8334 17.676 52.0764 18.054 52.4994 18.054C52.6884 18.054 53.2374 17.928 53.2374 17.199ZM51.7344 16.74C51.7344 17.595 51.0864 17.901 50.6814 17.901C50.2404 17.901 49.8714 17.586 49.8714 17.136C49.8714 16.641 50.2494 15.894 51.7344 15.84V16.74ZM56.6664 14.571C56.6664 14.283 56.3874 14.022 56.0004 14.022C55.3434 14.022 55.0194 14.625 54.8934 15.012V14.022L53.6424 14.121V14.4C54.2724 14.4 54.3444 14.463 54.3444 14.904V17.316C54.3444 17.721 54.2454 17.721 53.6424 17.721V18L54.6684 17.973C55.0284 17.973 55.4514 17.973 55.8114 18V17.721H55.6224C54.9564 17.721 54.9384 17.622 54.9384 17.298V15.912C54.9384 15.021 55.3164 14.22 56.0004 14.22C56.0634 14.22 56.0814 14.22 56.0994 14.229C56.0724 14.238 55.8924 14.346 55.8924 14.58C55.8924 14.832 56.0814 14.967 56.2794 14.967C56.4414 14.967 56.6664 14.859 56.6664 14.571ZM64.2318 18V17.721C63.7638 17.721 63.5388 17.721 63.5298 17.451V15.732C63.5298 14.958 63.5298 14.679 63.2508 14.355C63.1248 14.202 62.8278 14.022 62.3058 14.022C61.5498 14.022 61.1538 14.562 61.0008 14.904C60.8748 14.121 60.2088 14.022 59.8038 14.022C59.1468 14.022 58.7238 14.409 58.4718 14.967V14.022L57.2028 14.121V14.4C57.8328 14.4 57.9048 14.463 57.9048 14.904V17.316C57.9048 17.721 57.8058 17.721 57.2028 17.721V18L58.2198 17.973L59.2278 18V17.721C58.6248 17.721 58.5258 17.721 58.5258 17.316V15.66C58.5258 14.724 59.1648 14.22 59.7408 14.22C60.3078 14.22 60.4068 14.706 60.4068 15.219V17.316C60.4068 17.721 60.3078 17.721 59.7048 17.721V18L60.7218 17.973L61.7298 18V17.721C61.1268 17.721 61.0278 17.721 61.0278 17.316V15.66C61.0278 14.724 61.6668 14.22 62.2428 14.22C62.8098 14.22 62.9088 14.706 62.9088 15.219V17.316C62.9088 17.721 62.8098 17.721 62.2068 17.721V18L63.2238 17.973L64.2318 18ZM68.1469 16.929C68.1469 16.839 68.0749 16.821 68.0299 16.821C67.9489 16.821 67.9309 16.875 67.9129 16.947C67.5979 17.874 66.7879 17.874 66.6979 17.874C66.2479 17.874 65.8879 17.604 65.6809 17.271C65.4109 16.839 65.4109 16.245 65.4109 15.921H67.9219C68.1199 15.921 68.1469 15.921 68.1469 15.732C68.1469 14.841 67.6609 13.968 66.5359 13.968C65.4919 13.968 64.6639 14.895 64.6639 16.02C64.6639 17.226 65.6089 18.099 66.6439 18.099C67.7419 18.099 68.1469 17.1 68.1469 16.929ZM67.5529 15.732H65.4199C65.4739 14.391 66.2299 14.166 66.5359 14.166C67.4629 14.166 67.5529 15.381 67.5529 15.732ZM71.6869 14.571C71.6869 14.283 71.4079 14.022 71.0209 14.022C70.3639 14.022 70.0399 14.625 69.9139 15.012V14.022L68.6629 14.121V14.4C69.2929 14.4 69.3649 14.463 69.3649 14.904V17.316C69.3649 17.721 69.2659 17.721 68.6629 17.721V18L69.6889 17.973C70.0489 17.973 70.4719 17.973 70.8319 18V17.721H70.6429C69.9769 17.721 69.9589 17.622 69.9589 17.298V15.912C69.9589 15.021 70.3369 14.22 71.0209 14.22C71.0839 14.22 71.1019 14.22 71.1199 14.229C71.0929 14.238 70.9129 14.346 70.9129 14.58C70.9129 14.832 71.1019 14.967 71.2999 14.967C71.4619 14.967 71.6869 14.859 71.6869 14.571Z" fill="black"/>
<path d="M163.189 20L167.416 15.5L163.189 11L158.962 15.5L163.189 20Z" fill="#FC8D59" stroke="black"/>
<path d="M33.5757 19.746H40.8522V12H33.5757V19.746Z" fill="#1A8D1A" stroke="black"/>
<g clip-path="url(#clip0)">
<path d="M29.0627 176.295H224.363V33.6H29.0627V176.295Z" fill="white"/>
<path d="M166.832 128.529L172.31 123.051L166.832 117.574L161.355 123.051L166.832 128.529Z" fill="#FC8D59" stroke="black"/>
<path d="M37.94 172.547C38.6663 172.547 39.3629 172.259 39.8765 171.745C40.39 171.232 40.6786 170.535 40.6786 169.809C40.6786 169.083 40.39 168.386 39.8765 167.872C39.3629 167.359 38.6663 167.07 37.94 167.07C37.2137 167.07 36.517 167.359 36.0035 167.872C35.4899 168.386 35.2014 169.083 35.2014 169.809C35.2014 170.535 35.4899 171.232 36.0035 171.745C36.517 172.259 37.2137 172.547 37.94 172.547Z" fill="#ABD9E9" stroke="black"/>
<path d="M215.485 42.8247C216.212 42.8247 216.908 42.5362 217.422 42.0226C217.935 41.5091 218.224 40.8124 218.224 40.0861C218.224 39.3598 217.935 38.6632 217.422 38.1496C216.908 37.6361 216.212 37.3475 215.485 37.3475C214.759 37.3475 214.063 37.6361 213.549 38.1496C213.035 38.6632 212.747 39.3598 212.747 40.0861C212.747 40.8124 213.035 41.5091 213.549 42.0226C214.063 42.5362 214.759 42.8247 215.485 42.8247Z" fill="#ABD9E9" stroke="black"/>
<path d="M53.6302 172.237C54.3565 172.237 55.0531 171.948 55.5667 171.435C56.0803 170.921 56.3688 170.225 56.3688 169.498C56.3688 168.772 56.0803 168.075 55.5667 167.562C55.0531 167.048 54.3565 166.76 53.6302 166.76C52.9039 166.76 52.2073 167.048 51.6937 167.562C51.1802 168.075 50.8916 168.772 50.8916 169.498C50.8916 170.225 51.1802 170.921 51.6937 171.435C52.2073 171.948 52.9039 172.237 53.6302 172.237Z" fill="#ABD9E9" stroke="black"/>
<path d="M210.457 109.949C211.183 109.949 211.88 109.661 212.393 109.147C212.907 108.634 213.195 107.937 213.195 107.211C213.195 106.484 212.907 105.788 212.393 105.274C211.88 104.761 211.183 104.472 210.457 104.472C209.73 104.472 209.034 104.761 208.52 105.274C208.007 105.788 207.718 106.484 207.718 107.211C207.718 107.937 208.007 108.634 208.52 109.147C209.034 109.661 209.73 109.949 210.457 109.949Z" fill="#ABD9E9" stroke="black"/>
<path d="M213.345 92.7447C214.071 92.7447 214.768 92.4562 215.281 91.9426C215.795 91.429 216.083 90.7324 216.083 90.0061C216.083 89.2798 215.795 88.5832 215.281 88.0696C214.768 87.5561 214.071 87.2675 213.345 87.2675C212.619 87.2675 211.922 87.5561 211.408 88.0696C210.895 88.5832 210.606 89.2798 210.606 90.0061C210.606 90.7324 210.895 91.429 211.408 91.9426C211.922 92.4562 212.619 92.7447 213.345 92.7447Z" fill="#ABD9E9" stroke="black"/>
<path d="M189.526 136.875C190.252 136.875 190.949 136.586 191.462 136.072C191.976 135.559 192.264 134.862 192.264 134.136C192.264 133.41 191.976 132.713 191.462 132.2C190.949 131.686 190.252 131.397 189.526 131.397C188.799 131.397 188.103 131.686 187.589 132.2C187.076 132.713 186.787 133.41 186.787 134.136C186.787 134.862 187.076 135.559 187.589 136.072C188.103 136.586 188.799 136.875 189.526 136.875Z" fill="#ABD9E9" stroke="black"/>
<path d="M136.902 161.46C137.629 161.46 138.325 161.171 138.839 160.658C139.352 160.144 139.641 159.448 139.641 158.721C139.641 157.995 139.352 157.298 138.839 156.785C138.325 156.271 137.629 155.983 136.902 155.983C136.176 155.983 135.48 156.271 134.966 156.785C134.452 157.298 134.164 157.995 134.164 158.721C134.164 159.448 134.452 160.144 134.966 160.658C135.48 161.171 136.176 161.46 136.902 161.46Z" fill="#ABD9E9" stroke="black"/>
<path d="M180.574 147.463C181.3 147.463 181.997 147.175 182.511 146.661C183.024 146.148 183.313 145.451 183.313 144.725C183.313 143.998 183.024 143.302 182.511 142.788C181.997 142.275 181.3 141.986 180.574 141.986C179.848 141.986 179.151 142.275 178.638 142.788C178.124 143.302 177.836 143.998 177.836 144.725C177.836 145.451 178.124 146.148 178.638 146.661C179.151 147.175 179.848 147.463 180.574 147.463Z" fill="#ABD9E9" stroke="black"/>
<path d="M152.617 157.696C153.343 157.696 154.04 157.407 154.553 156.894C155.067 156.38 155.355 155.684 155.355 154.957C155.355 154.231 155.067 153.534 154.553 153.021C154.04 152.507 153.343 152.219 152.617 152.219C151.89 152.219 151.194 152.507 150.68 153.021C150.167 153.534 149.878 154.231 149.878 154.957C149.878 155.684 150.167 156.38 150.68 156.894C151.194 157.407 151.89 157.696 152.617 157.696Z" fill="#ABD9E9" stroke="black"/>
<path d="M205.602 124.203C206.329 124.203 207.025 123.915 207.539 123.401C208.052 122.888 208.341 122.191 208.341 121.465C208.341 120.738 208.052 120.042 207.539 119.528C207.025 119.015 206.329 118.726 205.602 118.726C204.876 118.726 204.179 119.015 203.666 119.528C203.152 120.042 202.864 120.738 202.864 121.465C202.864 122.191 203.152 122.888 203.666 123.401C204.179 123.915 204.876 124.203 205.602 124.203Z" fill="#ABD9E9" stroke="black"/>
<path d="M74.6292 170.45C75.3555 170.45 76.0522 170.162 76.5657 169.648C77.0793 169.135 77.3679 168.438 77.3679 167.712C77.3679 166.985 77.0793 166.289 76.5657 165.775C76.0522 165.262 75.3555 164.973 74.6292 164.973C73.9029 164.973 73.2063 165.262 72.6927 165.775C72.1792 166.289 71.8906 166.985 71.8906 167.712C71.8906 168.438 72.1792 169.135 72.6927 169.648C73.2063 170.162 73.9029 170.45 74.6292 170.45Z" fill="#ABD9E9" stroke="black"/>
<path d="M209.234 117.573C209.96 117.573 210.657 117.284 211.17 116.771C211.684 116.257 211.973 115.56 211.973 114.834C211.973 114.108 211.684 113.411 211.17 112.898C210.657 112.384 209.96 112.095 209.234 112.095C208.508 112.095 207.811 112.384 207.297 112.898C206.784 113.411 206.495 114.108 206.495 114.834C206.495 115.56 206.784 116.257 207.297 116.771C207.811 117.284 208.508 117.573 209.234 117.573Z" fill="#ABD9E9" stroke="black"/>
<path d="M215.16 73.2425C215.886 73.2425 216.583 72.9539 217.097 72.4404C217.61 71.9268 217.899 71.2302 217.899 70.5039C217.899 69.7776 217.61 69.0809 217.097 68.5674C216.583 68.0538 215.886 67.7653 215.16 67.7653C214.434 67.7653 213.737 68.0538 213.224 68.5674C212.71 69.0809 212.422 69.7776 212.422 70.5039C212.422 71.2302 212.71 71.9268 213.224 72.4404C213.737 72.9539 214.434 73.2425 215.16 73.2425Z" fill="#ABD9E9" stroke="black"/>
<path d="M215.433 47.5575C216.159 47.5575 216.856 47.2689 217.369 46.7553C217.883 46.2418 218.171 45.5451 218.171 44.8189C218.171 44.0926 217.883 43.3959 217.369 42.8824C216.856 42.3688 216.159 42.0802 215.433 42.0802C214.706 42.0802 214.01 42.3688 213.496 42.8824C212.983 43.3959 212.694 44.0926 212.694 44.8189C212.694 45.5451 212.983 46.2418 213.496 46.7553C214.01 47.2689 214.706 47.5575 215.433 47.5575Z" fill="#ABD9E9" stroke="black"/>
<path d="M107.769 167.283C108.495 167.283 109.192 166.995 109.705 166.481C110.219 165.968 110.507 165.271 110.507 164.545C110.507 163.818 110.219 163.122 109.705 162.608C109.192 162.095 108.495 161.806 107.769 161.806C107.042 161.806 106.346 162.095 105.832 162.608C105.319 163.122 105.03 163.818 105.03 164.545C105.03 165.271 105.319 165.968 105.832 166.481C106.346 166.995 107.042 167.283 107.769 167.283Z" fill="#ABD9E9" stroke="black"/>
<path d="M160.001 155.885C160.727 155.885 161.424 155.596 161.937 155.082C162.451 154.569 162.739 153.872 162.739 153.146C162.739 152.42 162.451 151.723 161.937 151.21C161.424 150.696 160.727 150.407 160.001 150.407C159.274 150.407 158.578 150.696 158.064 151.21C157.551 151.723 157.262 152.42 157.262 153.146C157.262 153.872 157.551 154.569 158.064 155.082C158.578 155.596 159.274 155.885 160.001 155.885Z" fill="#ABD9E9" stroke="black"/>
<path d="M200.676 131.217C201.402 131.217 202.098 130.928 202.612 130.415C203.126 129.901 203.414 129.204 203.414 128.478C203.414 127.752 203.126 127.055 202.612 126.542C202.098 126.028 201.402 125.739 200.676 125.739C199.949 125.739 199.253 126.028 198.739 126.542C198.225 127.055 197.937 127.752 197.937 128.478C197.937 129.204 198.225 129.901 198.739 130.415C199.253 130.928 199.949 131.217 200.676 131.217Z" fill="#ABD9E9" stroke="black"/>
<path d="M215.414 59.9193C216.14 59.9193 216.837 59.6307 217.351 59.1172C217.864 58.6036 218.153 57.907 218.153 57.1807C218.153 56.4544 217.864 55.7578 217.351 55.2442C216.837 54.7306 216.14 54.4421 215.414 54.4421C214.688 54.4421 213.991 54.7306 213.478 55.2442C212.964 55.7578 212.676 56.4544 212.676 57.1807C212.676 57.907 212.964 58.6036 213.478 59.1172C213.991 59.6307 214.688 59.9193 215.414 59.9193Z" fill="#ABD9E9" stroke="black"/>
<path d="M76.3103 170.189C77.0366 170.189 77.7332 169.901 78.2468 169.387C78.7603 168.873 79.0489 168.177 79.0489 167.45C79.0489 166.724 78.7603 166.028 78.2468 165.514C77.7332 165 77.0366 164.712 76.3103 164.712C75.584 164.712 74.8873 165 74.3738 165.514C73.8602 166.028 73.5717 166.724 73.5717 167.45C73.5717 168.177 73.8602 168.873 74.3738 169.387C74.8873 169.901 75.584 170.189 76.3103 170.189Z" fill="#ABD9E9" stroke="black"/>
<path d="M126.282 163.429C127.008 163.429 127.705 163.141 128.219 162.627C128.732 162.114 129.021 161.417 129.021 160.691C129.021 159.965 128.732 159.268 128.219 158.754C127.705 158.241 127.008 157.952 126.282 157.952C125.556 157.952 124.859 158.241 124.346 158.754C123.832 159.268 123.544 159.965 123.544 160.691C123.544 161.417 123.832 162.114 124.346 162.627C124.859 163.141 125.556 163.429 126.282 163.429Z" fill="#ABD9E9" stroke="black"/>
<path d="M198.257 134.437C198.983 134.437 199.68 134.149 200.193 133.635C200.707 133.121 200.996 132.425 200.996 131.698C200.996 130.972 200.707 130.276 200.193 129.762C199.68 129.248 198.983 128.96 198.257 128.96C197.531 128.96 196.834 129.248 196.32 129.762C195.807 130.276 195.518 130.972 195.518 131.698C195.518 132.425 195.807 133.121 196.32 133.635C196.834 134.149 197.531 134.437 198.257 134.437Z" fill="#ABD9E9" stroke="black"/>
<path d="M91.5393 167.805C92.2656 167.805 92.9622 167.517 93.4758 167.003C93.9893 166.49 94.2779 165.793 94.2779 165.067C94.2779 164.34 93.9893 163.644 93.4758 163.13C92.9622 162.617 92.2656 162.328 91.5393 162.328C90.813 162.328 90.1163 162.617 89.6028 163.13C89.0892 163.644 88.8007 164.34 88.8007 165.067C88.8007 165.793 89.0892 166.49 89.6028 167.003C90.1163 167.517 90.813 167.805 91.5393 167.805Z" fill="#ABD9E9" stroke="black"/>
<path d="M215.337 63.0735C216.063 63.0735 216.76 62.7849 217.273 62.2714C217.787 61.7578 218.076 61.0612 218.076 60.3349C218.076 59.6086 217.787 58.912 217.273 58.3984C216.76 57.8848 216.063 57.5963 215.337 57.5963C214.611 57.5963 213.914 57.8848 213.401 58.3984C212.887 58.912 212.598 59.6086 212.598 60.3349C212.598 61.0612 212.887 61.7578 213.401 62.2714C213.914 62.7849 214.611 63.0735 215.337 63.0735Z" fill="#ABD9E9" stroke="black"/>
<path d="M213.638 84.6171C214.364 84.6171 215.061 84.3285 215.575 83.8149C216.088 83.3014 216.377 82.6047 216.377 81.8784C216.377 81.1522 216.088 80.4555 215.575 79.9419C215.061 79.4284 214.364 79.1398 213.638 79.1398C212.912 79.1398 212.215 79.4284 211.702 79.9419C211.188 80.4555 210.9 81.1522 210.9 81.8784C210.9 82.6047 211.188 83.3014 211.702 83.8149C212.215 84.3285 212.912 84.6171 213.638 84.6171Z" fill="#ABD9E9" stroke="black"/>
<path d="M121.114 164.858C121.84 164.858 122.537 164.569 123.05 164.056C123.564 163.542 123.852 162.845 123.852 162.119C123.852 161.393 123.564 160.696 123.05 160.183C122.537 159.669 121.84 159.381 121.114 159.381C120.387 159.381 119.691 159.669 119.177 160.183C118.664 160.696 118.375 161.393 118.375 162.119C118.375 162.845 118.664 163.542 119.177 164.056C119.691 164.569 120.387 164.858 121.114 164.858Z" fill="#ABD9E9" stroke="black"/>
<path d="M170.249 147.604C170.975 147.604 171.671 147.315 172.185 146.802C172.699 146.288 172.987 145.591 172.987 144.865C172.987 144.139 172.699 143.442 172.185 142.929C171.671 142.415 170.975 142.127 170.249 142.127C169.522 142.127 168.826 142.415 168.312 142.929C167.798 143.442 167.51 144.139 167.51 144.865C167.51 145.591 167.798 146.288 168.312 146.802C168.826 147.315 169.522 147.604 170.249 147.604Z" fill="#ABD9E9" stroke="black"/>
<path d="M214.349 80.052C215.075 80.052 215.772 79.7634 216.285 79.2499C216.799 78.7363 217.087 78.0397 217.087 77.3134C217.087 76.5871 216.799 75.8905 216.285 75.3769C215.772 74.8633 215.075 74.5748 214.349 74.5748C213.623 74.5748 212.926 74.8633 212.412 75.3769C211.899 75.8905 211.61 76.5871 211.61 77.3134C211.61 78.0397 211.899 78.7363 212.412 79.2499C212.926 79.7634 213.623 80.052 214.349 80.052Z" fill="#ABD9E9" stroke="black"/>
<path d="M91.6682 167.783C92.3945 167.783 93.0911 167.495 93.6047 166.981C94.1182 166.468 94.4068 165.771 94.4068 165.045C94.4068 164.318 94.1182 163.622 93.6047 163.108C93.0911 162.595 92.3945 162.306 91.6682 162.306C90.9419 162.306 90.2453 162.595 89.7317 163.108C89.2181 163.622 88.9296 164.318 88.9296 165.045C88.9296 165.771 89.2181 166.468 89.7317 166.981C90.2453 167.495 90.9419 167.783 91.6682 167.783Z" fill="#ABD9E9" stroke="black"/>
<path d="M110.666 165.112C111.392 165.112 112.089 164.823 112.603 164.309C113.116 163.796 113.405 163.099 113.405 162.373C113.405 161.647 113.116 160.95 112.603 160.436C112.089 159.923 111.392 159.634 110.666 159.634C109.94 159.634 109.243 159.923 108.73 160.436C108.216 160.95 107.927 161.647 107.927 162.373C107.927 163.099 108.216 163.796 108.73 164.309C109.243 164.823 109.94 165.112 110.666 165.112Z" fill="#ABD9E9" stroke="black"/>
<path d="M38.2424 172.518C38.9687 172.518 39.6653 172.229 40.1789 171.716C40.6925 171.202 40.981 170.506 40.981 169.779C40.981 169.053 40.6925 168.356 40.1789 167.843C39.6653 167.329 38.9687 167.041 38.2424 167.041C37.5161 167.041 36.8195 167.329 36.3059 167.843C35.7923 168.356 35.5038 169.053 35.5038 169.779C35.5038 170.506 35.7923 171.202 36.3059 171.716C36.8195 172.229 37.5161 172.518 38.2424 172.518Z" fill="#ABD9E9" stroke="black"/>
<path d="M96.1807 151.548H103.927V143.802H96.1807V151.548Z" fill="#1A8D1A" stroke="black"/>
<path d="M179.873 149.024C181.199 149.024 182.471 148.497 183.409 147.559C184.346 146.622 184.873 145.35 184.873 144.024C184.873 142.698 184.346 141.426 183.409 140.488C182.471 139.551 181.199 139.024 179.873 139.024C178.547 139.024 177.275 139.551 176.338 140.488C175.4 141.426 174.873 142.698 174.873 144.024C174.873 145.35 175.4 146.622 176.338 147.559C177.275 148.497 178.547 149.024 179.873 149.024Z" fill="#ABD9E9" stroke="black"/>
<path d="M46.26 176.295V33.6" stroke="black" stroke-opacity="0.5" stroke-width="0.5" stroke-dasharray="0.5 0.82"/>
<path d="M46.26 176.295V173.295V176.295Z" fill="black"/>
<path d="M46.26 176.295V173.295" stroke="black" stroke-width="0.5"/>
<path d="M46.26 33.6V36.6V33.6Z" fill="black"/>
<path d="M46.26 33.6V36.6" stroke="black" stroke-width="0.5"/>
<path d="M40.0537 180.397C40.0537 180.188 40.0444 180.188 39.9043 180.188C39.5167 180.618 38.9283 180.756 38.371 180.756C38.3414 180.756 38.2916 180.756 38.2807 180.786C38.2714 180.806 38.2714 180.826 38.2714 181.035C38.5796 181.035 39.098 180.976 39.4965 180.737V185.996C39.4965 186.346 39.4762 186.464 38.6201 186.464H38.3212V186.713C38.7991 186.713 39.2972 186.713 39.7751 186.713C40.253 186.713 40.7511 186.713 41.2306 186.713V186.464H40.9317C40.074 186.464 40.0537 186.355 40.0537 186.001V180.397Z" fill="black"/>
<path d="M46.1281 185.174H45.9491C45.8495 185.879 45.7685 185.999 45.7296 186.06C45.6798 186.139 44.9622 186.139 44.8221 186.139H42.9105C43.2685 185.75 43.9659 185.045 44.8127 184.228C45.4198 183.652 46.1281 182.974 46.1281 181.989C46.1281 180.814 45.191 180.138 44.1449 180.138C43.049 180.138 42.3812 181.103 42.3812 181.997C42.3812 182.386 42.6708 182.436 42.7906 182.436C42.8903 182.436 43.1891 182.375 43.1891 182.028C43.1891 181.721 42.9292 181.633 42.7906 181.633C42.7299 181.633 42.6708 181.642 42.6303 181.662C42.8202 180.814 43.3977 180.397 44.0064 180.397C44.8719 180.397 45.4401 181.083 45.4401 181.989C45.4401 182.855 44.9326 183.6 44.3644 184.248L42.3812 186.486V186.713H45.8884L46.1281 185.174Z" fill="black"/>
<path d="M48.3761 186.236C48.3761 185.948 48.1364 185.75 47.8967 185.75C47.6087 185.75 47.4094 185.988 47.4094 186.226C47.4094 186.514 47.6476 186.713 47.8873 186.713C48.1769 186.713 48.3761 186.475 48.3761 186.236Z" fill="black"/>
<path d="M53.4364 183.561C53.4364 182.953 53.4271 181.919 53.0083 181.124C52.6394 180.426 52.051 180.179 51.5342 180.179C51.0547 180.179 50.4476 180.397 50.0693 181.114C49.6708 181.86 49.6304 182.784 49.6304 183.561C49.6304 184.128 49.6413 184.992 49.9495 185.75C50.3776 186.774 51.145 186.913 51.5342 186.913C51.9918 186.913 52.6892 186.724 53.0971 185.779C53.3959 185.091 53.4364 184.287 53.4364 183.561ZM51.5342 186.754C50.8959 186.754 50.5177 186.208 50.3776 185.449C50.2686 184.864 50.2686 184.008 50.2686 183.451C50.2686 182.685 50.2686 182.048 50.3978 181.441C50.5877 180.597 51.145 180.337 51.5342 180.337C51.942 180.337 52.4697 180.607 52.6596 181.421C52.7888 181.987 52.7982 182.655 52.7982 183.451C52.7982 184.098 52.7982 184.894 52.6799 185.481C52.4697 186.566 51.8829 186.754 51.5342 186.754Z" fill="black"/>
<path d="M80.386 176.295V33.6" stroke="black" stroke-opacity="0.5" stroke-width="0.5" stroke-dasharray="0.5 0.82"/>
<path d="M80.386 176.295V173.295V176.295Z" fill="black"/>
<path d="M80.386 176.295V173.295" stroke="black" stroke-width="0.5"/>
<path d="M80.386 33.6V36.6V33.6Z" fill="black"/>
<path d="M80.386 33.6V36.6" stroke="black" stroke-width="0.5"/>
<path d="M74.1797 180.397C74.1797 180.188 74.1704 180.188 74.0303 180.188C73.6427 180.618 73.0543 180.756 72.497 180.756C72.4674 180.756 72.4176 180.756 72.4067 180.786C72.3973 180.806 72.3973 180.826 72.3973 181.035C72.7056 181.035 73.2239 180.976 73.6224 180.737V185.996C73.6224 186.346 73.6022 186.464 72.746 186.464H72.4472V186.713C72.925 186.713 73.4232 186.713 73.9011 186.713C74.379 186.713 74.8771 186.713 75.3566 186.713V186.464H75.0577C74.2 186.464 74.1797 186.355 74.1797 186.001V180.397Z" fill="black"/>
<path d="M80.2541 185.174H80.0751C79.9754 185.879 79.8945 185.999 79.8556 186.06C79.8058 186.139 79.0881 186.139 78.948 186.139H77.0365C77.3945 185.75 78.0919 185.045 78.9387 184.228C79.5458 183.652 80.2541 182.974 80.2541 181.989C80.2541 180.814 79.317 180.138 78.2709 180.138C77.175 180.138 76.5072 181.103 76.5072 181.997C76.5072 182.386 76.7967 182.436 76.9166 182.436C77.0162 182.436 77.3151 182.375 77.3151 182.028C77.3151 181.721 77.0551 181.633 76.9166 181.633C76.8559 181.633 76.7967 181.642 76.7563 181.662C76.9462 180.814 77.5237 180.397 78.1324 180.397C78.9979 180.397 79.566 181.083 79.566 181.989C79.566 182.855 79.0586 183.6 78.4904 184.248L76.5072 186.486V186.713H80.0144L80.2541 185.174Z" fill="black"/>
<path d="M82.5021 186.236C82.5021 185.948 82.2624 185.75 82.0226 185.75C81.7347 185.75 81.5354 185.988 81.5354 186.226C81.5354 186.514 81.7736 186.713 82.0133 186.713C82.3028 186.713 82.5021 186.475 82.5021 186.236Z" fill="black"/>
<path d="M84.5144 180.966C84.614 181.007 85.0219 181.134 85.4406 181.134C86.3668 181.134 86.8743 180.625 87.1638 180.331C87.1638 180.242 87.1638 180.188 87.1047 180.188C87.0938 180.188 87.0736 180.188 86.9942 180.233C86.6455 180.397 86.2376 180.529 85.7395 180.529C85.4406 180.529 84.9923 180.488 84.5035 180.27C84.3945 180.221 84.3743 180.221 84.365 180.221C84.3152 180.221 84.3043 180.232 84.3043 180.429V183.284C84.3043 183.462 84.3043 183.511 84.4039 183.511C84.4537 183.511 84.4739 183.491 84.5237 183.423C84.8429 182.976 85.2803 182.788 85.7784 182.788C86.1271 182.788 86.8743 183.006 86.8743 184.707C86.8743 185.025 86.8743 185.6 86.5754 186.058C86.3264 186.466 85.9388 186.675 85.5107 186.675C84.8522 186.675 84.1844 186.215 84.0054 185.446C84.0459 185.457 84.1252 185.476 84.1657 185.476C84.2949 185.476 84.544 185.406 84.544 185.098C84.544 184.83 84.3541 184.721 84.1657 184.721C83.9353 184.721 83.7859 184.861 83.7859 185.14C83.7859 186.007 84.4739 186.913 85.5294 186.913C86.5567 186.913 87.5328 186.029 87.5328 184.746C87.5328 183.553 86.756 182.629 85.7893 182.629C85.2803 182.629 84.8522 182.817 84.5144 183.174V180.966Z" fill="black"/>
<path d="M114.512 176.295V33.6" stroke="black" stroke-opacity="0.5" stroke-width="0.5" stroke-dasharray="0.5 0.82"/>
<path d="M114.512 176.295V173.295V176.295Z" fill="black"/>
<path d="M114.512 176.295V173.295" stroke="black" stroke-width="0.5"/>
<path d="M114.512 33.6V36.6V33.6Z" fill="black"/>
<path d="M114.512 33.6V36.6" stroke="black" stroke-width="0.5"/>
<path d="M108.306 180.397C108.306 180.188 108.296 180.188 108.156 180.188C107.769 180.618 107.18 180.756 106.623 180.756C106.593 180.756 106.544 180.756 106.533 180.786C106.523 180.806 106.523 180.826 106.523 181.035C106.832 181.035 107.35 180.976 107.749 180.737V185.996C107.749 186.346 107.728 186.464 106.872 186.464H106.573V186.714C107.051 186.714 107.549 186.714 108.027 186.714C108.505 186.714 109.003 186.714 109.483 186.714V186.464H109.184C108.326 186.464 108.306 186.355 108.306 186.001V180.397Z" fill="black"/>
<path d="M112.426 183.356C113.314 183.356 113.703 184.126 113.703 185.017C113.703 186.215 113.065 186.675 112.487 186.675C111.959 186.675 111.102 186.412 110.832 185.635C110.882 185.655 110.932 185.655 110.982 185.655C111.222 185.655 111.401 185.496 111.401 185.238C111.401 184.95 111.181 184.821 110.982 184.821C110.814 184.821 110.554 184.9 110.554 185.272C110.554 186.192 111.45 186.913 112.507 186.913C113.613 186.913 114.459 186.044 114.459 185.025C114.459 184.056 113.662 183.356 112.716 183.247C113.473 183.09 114.201 182.423 114.201 181.531C114.201 180.767 113.413 180.208 112.517 180.208C111.611 180.208 110.814 180.753 110.814 181.531C110.814 181.872 111.072 181.931 111.201 181.931C111.412 181.931 111.591 181.802 111.591 181.544C111.591 181.287 111.412 181.158 111.201 181.158C111.162 181.158 111.113 181.158 111.072 181.176C111.362 180.551 112.148 180.437 112.497 180.437C112.845 180.437 113.504 180.604 113.504 181.545C113.504 181.821 113.463 182.311 113.124 182.744C112.825 183.127 112.487 183.127 112.159 183.158C112.109 183.158 111.879 183.181 111.84 183.181C111.77 183.191 111.729 183.2 111.729 183.276C111.729 183.346 111.74 183.356 111.939 183.356H112.426Z" fill="black"/>
<path d="M116.628 186.236C116.628 185.948 116.388 185.75 116.149 185.75C115.861 185.75 115.661 185.988 115.661 186.226C115.661 186.514 115.9 186.714 116.139 186.714C116.429 186.714 116.628 186.475 116.628 186.236Z" fill="black"/>
<path d="M121.688 183.561C121.688 182.953 121.679 181.919 121.26 181.124C120.891 180.426 120.303 180.179 119.786 180.179C119.307 180.179 118.7 180.397 118.321 181.114C117.923 181.86 117.882 182.784 117.882 183.561C117.882 184.128 117.893 184.992 118.202 185.75C118.63 186.774 119.397 186.913 119.786 186.913C120.244 186.913 120.941 186.724 121.349 185.78C121.648 185.091 121.688 184.287 121.688 183.561ZM119.786 186.754C119.148 186.754 118.77 186.208 118.63 185.449C118.521 184.864 118.521 184.008 118.521 183.451C118.521 182.685 118.521 182.048 118.65 181.441C118.84 180.597 119.397 180.337 119.786 180.337C120.194 180.337 120.722 180.607 120.912 181.421C121.041 181.987 121.05 182.655 121.05 183.451C121.05 184.098 121.05 184.894 120.932 185.481C120.722 186.566 120.135 186.754 119.786 186.754Z" fill="black"/>
<path d="M148.638 176.295V33.6" stroke="black" stroke-opacity="0.5" stroke-width="0.5" stroke-dasharray="0.5 0.82"/>
<path d="M148.638 176.295V173.295V176.295Z" fill="black"/>
<path d="M148.638 176.295V173.295" stroke="black" stroke-width="0.5"/>
<path d="M148.638 33.6V36.6V33.6Z" fill="black"/>
<path d="M148.638 33.6V36.6" stroke="black" stroke-width="0.5"/>
<path d="M142.432 180.397C142.432 180.188 142.423 180.188 142.282 180.188C141.895 180.618 141.306 180.756 140.749 180.756C140.72 180.756 140.67 180.756 140.659 180.786C140.65 180.806 140.65 180.826 140.65 181.035C140.958 181.035 141.476 180.976 141.875 180.737V185.996C141.875 186.346 141.854 186.464 140.998 186.464H140.699V186.714C141.177 186.714 141.675 186.714 142.153 186.714C142.631 186.714 143.129 186.714 143.609 186.714V186.464H143.31C142.452 186.464 142.432 186.355 142.432 186.001V180.397Z" fill="black"/>
<path d="M146.553 183.356C147.44 183.356 147.829 184.126 147.829 185.017C147.829 186.215 147.191 186.675 146.613 186.675C146.086 186.675 145.228 186.412 144.959 185.635C145.008 185.655 145.058 185.655 145.108 185.655C145.348 185.655 145.527 185.496 145.527 185.238C145.527 184.95 145.307 184.821 145.108 184.821C144.94 184.821 144.68 184.9 144.68 185.272C144.68 186.192 145.577 186.913 146.634 186.913C147.739 186.913 148.586 186.044 148.586 185.025C148.586 184.056 147.789 183.356 146.842 183.247C147.599 183.09 148.327 182.423 148.327 181.531C148.327 180.767 147.54 180.208 146.643 180.208C145.737 180.208 144.94 180.753 144.94 181.531C144.94 181.872 145.198 181.931 145.328 181.931C145.538 181.931 145.717 181.802 145.717 181.544C145.717 181.287 145.538 181.158 145.328 181.158C145.289 181.158 145.239 181.158 145.198 181.176C145.488 180.551 146.274 180.437 146.623 180.437C146.971 180.437 147.63 180.604 147.63 181.545C147.63 181.821 147.589 182.311 147.25 182.744C146.951 183.127 146.613 183.127 146.285 183.158C146.235 183.158 146.005 183.181 145.966 183.181C145.896 183.191 145.855 183.2 145.855 183.276C145.855 183.346 145.866 183.356 146.065 183.356H146.553Z" fill="black"/>
<path d="M150.754 186.236C150.754 185.948 150.515 185.75 150.275 185.75C149.987 185.75 149.788 185.988 149.788 186.226C149.788 186.514 150.026 186.714 150.265 186.714C150.555 186.714 150.754 186.475 150.754 186.236Z" fill="black"/>
<path d="M152.767 180.966C152.866 181.007 153.274 181.134 153.693 181.134C154.619 181.134 155.127 180.625 155.416 180.331C155.416 180.242 155.416 180.188 155.357 180.188C155.346 180.188 155.326 180.188 155.246 180.233C154.898 180.397 154.49 180.529 153.992 180.529C153.693 180.529 153.244 180.488 152.756 180.27C152.647 180.221 152.627 180.221 152.617 180.221C152.567 180.221 152.556 180.232 152.556 180.429V183.284C152.556 183.462 152.556 183.511 152.656 183.511C152.706 183.511 152.726 183.491 152.776 183.423C153.095 182.976 153.532 182.788 154.031 182.788C154.379 182.788 155.127 183.006 155.127 184.707C155.127 185.025 155.127 185.6 154.828 186.058C154.579 186.466 154.191 186.675 153.763 186.675C153.104 186.675 152.437 186.215 152.258 185.446C152.298 185.457 152.377 185.476 152.418 185.476C152.547 185.476 152.796 185.406 152.796 185.098C152.796 184.83 152.606 184.721 152.418 184.721C152.188 184.721 152.038 184.861 152.038 185.14C152.038 186.007 152.726 186.913 153.782 186.913C154.809 186.913 155.785 186.029 155.785 184.746C155.785 183.553 155.008 182.629 154.042 182.629C153.532 182.629 153.104 182.817 152.767 183.174V180.966Z" fill="black"/>
<path d="M182.764 176.295V33.6" stroke="black" stroke-opacity="0.5" stroke-width="0.5" stroke-dasharray="0.5 0.82"/>
<path d="M182.764 176.295V173.295V176.295Z" fill="black"/>
<path d="M182.764 176.295V173.295" stroke="black" stroke-width="0.5"/>
<path d="M182.764 33.6V36.6V33.6Z" fill="black"/>
<path d="M182.764 33.6V36.6" stroke="black" stroke-width="0.5"/>
<path d="M176.558 180.397C176.558 180.188 176.549 180.188 176.409 180.188C176.021 180.618 175.433 180.756 174.875 180.756C174.846 180.756 174.796 180.756 174.785 180.786C174.776 180.806 174.776 180.826 174.776 181.035C175.084 181.035 175.602 180.976 176.001 180.737V185.996C176.001 186.346 175.98 186.464 175.124 186.464H174.825V186.714C175.303 186.714 175.801 186.714 176.279 186.714C176.757 186.714 177.255 186.714 177.735 186.714V186.464H177.436C176.578 186.464 176.558 186.355 176.558 186.001V180.397Z" fill="black"/>
<path d="M181.824 180.297C181.824 180.088 181.815 180.088 181.636 180.088L178.677 184.761V185.02H181.247V186.002C181.247 186.365 181.227 186.464 180.529 186.464H180.341V186.714C180.66 186.714 181.197 186.714 181.536 186.714C181.874 186.714 182.413 186.714 182.732 186.714V186.464H182.542C181.845 186.464 181.824 186.365 181.824 186.002V185.02H182.841V184.761H181.824V180.297ZM181.277 180.949V184.761H178.876L181.277 180.949Z" fill="black"/>
<path d="M184.88 186.236C184.88 185.948 184.641 185.75 184.401 185.75C184.113 185.75 183.914 185.988 183.914 186.226C183.914 186.514 184.152 186.714 184.392 186.714C184.681 186.714 184.88 186.475 184.88 186.236Z" fill="black"/>
<path d="M189.941 183.561C189.941 182.953 189.931 181.919 189.513 181.124C189.144 180.426 188.555 180.179 188.038 180.179C187.559 180.179 186.952 180.397 186.574 181.114C186.175 181.86 186.135 182.784 186.135 183.561C186.135 184.128 186.146 184.992 186.454 185.75C186.882 186.774 187.649 186.913 188.038 186.913C188.496 186.913 189.193 186.724 189.601 185.78C189.9 185.091 189.941 184.287 189.941 183.561ZM188.038 186.754C187.4 186.754 187.022 186.208 186.882 185.449C186.773 184.864 186.773 184.008 186.773 183.451C186.773 182.685 186.773 182.048 186.902 181.441C187.092 180.597 187.649 180.337 188.038 180.337C188.446 180.337 188.974 180.607 189.164 181.421C189.293 181.987 189.302 182.655 189.302 183.451C189.302 184.098 189.302 184.894 189.184 185.481C188.974 186.566 188.387 186.754 188.038 186.754Z" fill="black"/>
<path d="M216.89 176.295V33.6" stroke="black" stroke-opacity="0.5" stroke-width="0.5" stroke-dasharray="0.5 0.82"/>
<path d="M216.89 176.295V173.295V176.295Z" fill="black"/>
<path d="M216.89 176.295V173.295" stroke="black" stroke-width="0.5"/>
<path d="M216.89 33.6V36.6V33.6Z" fill="black"/>
<path d="M216.89 33.6V36.6" stroke="black" stroke-width="0.5"/>
<path d="M210.684 180.397C210.684 180.188 210.675 180.188 210.535 180.188C210.147 180.618 209.559 180.756 209.001 180.756C208.972 180.756 208.922 180.756 208.911 180.786C208.902 180.806 208.902 180.826 208.902 181.035C209.21 181.035 209.728 180.976 210.127 180.737V185.996C210.127 186.346 210.106 186.464 209.25 186.464H208.951V186.714C209.429 186.714 209.927 186.714 210.405 186.714C210.883 186.714 211.381 186.714 211.861 186.714V186.464H211.562C210.704 186.464 210.684 186.355 210.684 186.001V180.397Z" fill="black"/>
<path d="M215.95 180.297C215.95 180.088 215.941 180.088 215.762 180.088L212.803 184.761V185.02H215.373V186.002C215.373 186.365 215.353 186.464 214.655 186.464H214.467V186.714C214.786 186.714 215.323 186.714 215.662 186.714C216 186.714 216.539 186.714 216.858 186.714V186.464H216.668C215.971 186.464 215.95 186.365 215.95 186.002V185.02H216.967V184.761H215.95V180.297ZM215.402 180.949V184.761H213.002L215.402 180.949Z" fill="black"/>
<path d="M219.006 186.236C219.006 185.948 218.767 185.75 218.527 185.75C218.239 185.75 218.04 185.988 218.04 186.226C218.04 186.514 218.278 186.714 218.518 186.714C218.807 186.714 219.006 186.475 219.006 186.236Z" fill="black"/>
<path d="M221.019 180.966C221.118 181.007 221.526 181.134 221.945 181.134C222.871 181.134 223.379 180.625 223.668 180.331C223.668 180.242 223.668 180.188 223.609 180.188C223.598 180.188 223.578 180.188 223.498 180.233C223.15 180.397 222.742 180.529 222.244 180.529C221.945 180.529 221.497 180.488 221.008 180.27C220.899 180.221 220.879 180.221 220.869 180.221C220.819 180.221 220.809 180.232 220.809 180.429V183.284C220.809 183.462 220.809 183.511 220.908 183.511C220.958 183.511 220.978 183.491 221.028 183.423C221.347 182.976 221.785 182.788 222.283 182.788C222.631 182.788 223.379 183.006 223.379 184.707C223.379 185.025 223.379 185.6 223.08 186.058C222.831 186.466 222.443 186.675 222.015 186.675C221.356 186.675 220.689 186.215 220.51 185.446C220.55 185.457 220.63 185.476 220.67 185.476C220.799 185.476 221.048 185.406 221.048 185.098C221.048 184.83 220.858 184.721 220.67 184.721C220.44 184.721 220.29 184.861 220.29 185.14C220.29 186.007 220.978 186.913 222.034 186.913C223.061 186.913 224.037 186.029 224.037 184.746C224.037 183.553 223.26 182.629 222.294 182.629C221.785 182.629 221.356 182.817 221.019 183.174V180.966Z" fill="black"/>
<path d="M32.6096 176.295V174.795V176.295Z" fill="black"/>
<path d="M32.6096 176.295V174.795" stroke="black" stroke-width="0.5"/>
<path d="M32.6096 33.6V35.1V33.6Z" fill="black"/>
<path d="M32.6096 33.6V35.1" stroke="black" stroke-width="0.5"/>
<path d="M39.4348 176.295V174.795V176.295Z" fill="black"/>
<path d="M39.4348 176.295V174.795" stroke="black" stroke-width="0.5"/>
<path d="M39.4348 33.6V35.1V33.6Z" fill="black"/>
<path d="M39.4348 33.6V35.1" stroke="black" stroke-width="0.5"/>
<path d="M53.0852 176.295V174.795V176.295Z" fill="black"/>
<path d="M53.0852 176.295V174.795" stroke="black" stroke-width="0.5"/>
<path d="M53.0852 33.6V35.1V33.6Z" fill="black"/>
<path d="M53.0852 33.6V35.1" stroke="black" stroke-width="0.5"/>
<path d="M59.9104 176.295V174.795V176.295Z" fill="black"/>
<path d="M59.9104 176.295V174.795" stroke="black" stroke-width="0.5"/>
<path d="M59.9104 33.6V35.1V33.6Z" fill="black"/>
<path d="M59.9104 33.6V35.1" stroke="black" stroke-width="0.5"/>
<path d="M66.7356 176.295V174.795V176.295Z" fill="black"/>
<path d="M66.7356 176.295V174.795" stroke="black" stroke-width="0.5"/>
<path d="M66.7356 33.6V35.1V33.6Z" fill="black"/>
<path d="M66.7356 33.6V35.1" stroke="black" stroke-width="0.5"/>
<path d="M73.5608 176.295V174.795V176.295Z" fill="black"/>
<path d="M73.5608 176.295V174.795" stroke="black" stroke-width="0.5"/>
<path d="M73.5608 33.6V35.1V33.6Z" fill="black"/>
<path d="M73.5608 33.6V35.1" stroke="black" stroke-width="0.5"/>
<path d="M87.2113 176.295V174.795V176.295Z" fill="black"/>
<path d="M87.2113 176.295V174.795" stroke="black" stroke-width="0.5"/>
<path d="M87.2113 33.6V35.1V33.6Z" fill="black"/>
<path d="M87.2113 33.6V35.1" stroke="black" stroke-width="0.5"/>
<path d="M94.0365 176.295V174.795V176.295Z" fill="black"/>
<path d="M94.0365 176.295V174.795" stroke="black" stroke-width="0.5"/>
<path d="M94.0365 33.6V35.1V33.6Z" fill="black"/>
<path d="M94.0365 33.6V35.1" stroke="black" stroke-width="0.5"/>
<path d="M100.862 176.295V174.795V176.295Z" fill="black"/>
<path d="M100.862 176.295V174.795" stroke="black" stroke-width="0.5"/>
<path d="M100.862 33.6V35.1V33.6Z" fill="black"/>
<path d="M100.862 33.6V35.1" stroke="black" stroke-width="0.5"/>
<path d="M107.687 176.295V174.795V176.295Z" fill="black"/>
<path d="M107.687 176.295V174.795" stroke="black" stroke-width="0.5"/>
<path d="M107.687 33.6V35.1V33.6Z" fill="black"/>
<path d="M107.687 33.6V35.1" stroke="black" stroke-width="0.5"/>
<path d="M121.337 176.295V174.795V176.295Z" fill="black"/>
<path d="M121.337 176.295V174.795" stroke="black" stroke-width="0.5"/>
<path d="M121.337 33.6V35.1V33.6Z" fill="black"/>
<path d="M121.337 33.6V35.1" stroke="black" stroke-width="0.5"/>
<path d="M128.162 176.295V174.795V176.295Z" fill="black"/>
<path d="M128.162 176.295V174.795" stroke="black" stroke-width="0.5"/>
<path d="M128.162 33.6V35.1V33.6Z" fill="black"/>
<path d="M128.162 33.6V35.1" stroke="black" stroke-width="0.5"/>
<path d="M134.988 176.295V174.795V176.295Z" fill="black"/>
<path d="M134.988 176.295V174.795" stroke="black" stroke-width="0.5"/>
<path d="M134.988 33.6V35.1V33.6Z" fill="black"/>
<path d="M134.988 33.6V35.1" stroke="black" stroke-width="0.5"/>
<path d="M141.813 176.295V174.795V176.295Z" fill="black"/>
<path d="M141.813 176.295V174.795" stroke="black" stroke-width="0.5"/>
<path d="M141.813 33.6V35.1V33.6Z" fill="black"/>
<path d="M141.813 33.6V35.1" stroke="black" stroke-width="0.5"/>
<path d="M155.463 176.295V174.795V176.295Z" fill="black"/>
<path d="M155.463 176.295V174.795" stroke="black" stroke-width="0.5"/>
<path d="M155.463 33.6V35.1V33.6Z" fill="black"/>
<path d="M155.463 33.6V35.1" stroke="black" stroke-width="0.5"/>
<path d="M162.289 176.295V174.795V176.295Z" fill="black"/>
<path d="M162.289 176.295V174.795" stroke="black" stroke-width="0.5"/>
<path d="M162.289 33.6V35.1V33.6Z" fill="black"/>
<path d="M162.289 33.6V35.1" stroke="black" stroke-width="0.5"/>
<path d="M169.114 176.295V174.795V176.295Z" fill="black"/>
<path d="M169.114 176.295V174.795" stroke="black" stroke-width="0.5"/>
<path d="M169.114 33.6V35.1V33.6Z" fill="black"/>
<path d="M169.114 33.6V35.1" stroke="black" stroke-width="0.5"/>
<path d="M175.939 176.295V174.795V176.295Z" fill="black"/>
<path d="M175.939 176.295V174.795" stroke="black" stroke-width="0.5"/>
<path d="M175.939 33.6V35.1V33.6Z" fill="black"/>
<path d="M175.939 33.6V35.1" stroke="black" stroke-width="0.5"/>
<path d="M189.589 176.295V174.795V176.295Z" fill="black"/>
<path d="M189.589 176.295V174.795" stroke="black" stroke-width="0.5"/>
<path d="M189.589 33.6V35.1V33.6Z" fill="black"/>
<path d="M189.589 33.6V35.1" stroke="black" stroke-width="0.5"/>
<path d="M196.415 176.295V174.795V176.295Z" fill="black"/>
<path d="M196.415 176.295V174.795" stroke="black" stroke-width="0.5"/>
<path d="M196.415 33.6V35.1V33.6Z" fill="black"/>
<path d="M196.415 33.6V35.1" stroke="black" stroke-width="0.5"/>
<path d="M203.24 176.295V174.795V176.295Z" fill="black"/>
<path d="M203.24 176.295V174.795" stroke="black" stroke-width="0.5"/>
<path d="M203.24 33.6V35.1V33.6Z" fill="black"/>
<path d="M203.24 33.6V35.1" stroke="black" stroke-width="0.5"/>
<path d="M210.065 176.295V174.795V176.295Z" fill="black"/>
<path d="M210.065 176.295V174.795" stroke="black" stroke-width="0.5"/>
<path d="M210.065 33.6V35.1V33.6Z" fill="black"/>
<path d="M210.065 33.6V35.1" stroke="black" stroke-width="0.5"/>
<path d="M223.715 176.295V174.795V176.295Z" fill="black"/>
<path d="M223.715 176.295V174.795" stroke="black" stroke-width="0.5"/>
<path d="M223.715 33.6V35.1V33.6Z" fill="black"/>
<path d="M223.715 33.6V35.1" stroke="black" stroke-width="0.5"/>
<path d="M29.0627 158.708H224.363" stroke="black" stroke-opacity="0.5" stroke-width="0.5" stroke-dasharray="0.5 0.82"/>
<path d="M29.0627 158.708H32.0627H29.0627Z" fill="black"/>
<path d="M29.0627 158.708H32.0627" stroke="black" stroke-width="0.5"/>
<path d="M224.363 158.708H221.363H224.363Z" fill="black"/>
<path d="M224.363 158.708H221.363" stroke="black" stroke-width="0.5"/>
<path d="M19.7548 160.628H19.5757C19.4761 161.333 19.3952 161.453 19.3563 161.514C19.3064 161.593 18.5888 161.593 18.4487 161.593H16.5371C16.8952 161.204 17.5926 160.499 18.4394 159.681C19.0465 159.105 19.7548 158.428 19.7548 157.443C19.7548 156.268 18.8176 155.592 17.7716 155.592C16.6757 155.592 16.0079 156.557 16.0079 157.451C16.0079 157.84 16.2974 157.89 16.4173 157.89C16.5169 157.89 16.8158 157.829 16.8158 157.482C16.8158 157.175 16.5558 157.086 16.4173 157.086C16.3566 157.086 16.2974 157.096 16.2569 157.116C16.4469 156.268 17.0244 155.851 17.633 155.851C18.4985 155.851 19.0667 156.537 19.0667 157.443C19.0667 158.308 18.5592 159.054 17.9911 159.702L16.0079 161.94V162.167H19.515L19.7548 160.628Z" fill="black"/>
<path d="M24.3534 159.015C24.3534 158.407 24.3441 157.373 23.9253 156.577C23.5564 155.88 22.968 155.633 22.4512 155.633C21.9717 155.633 21.3646 155.851 20.9863 156.568C20.5878 157.314 20.5474 158.238 20.5474 159.015C20.5474 159.582 20.5583 160.446 20.8665 161.204C21.2946 162.228 22.062 162.367 22.4512 162.367C22.9088 162.367 23.6062 162.178 24.0141 161.233C24.3129 160.545 24.3534 159.741 24.3534 159.015ZM22.4512 162.208C21.8129 162.208 21.4347 161.662 21.2946 160.903C21.1856 160.318 21.1856 159.462 21.1856 158.905C21.1856 158.139 21.1856 157.502 21.3148 156.895C21.5047 156.051 22.062 155.791 22.4512 155.791C22.859 155.791 23.3867 156.061 23.5766 156.875C23.7058 157.441 23.7152 158.109 23.7152 158.905C23.7152 159.552 23.7152 160.348 23.5969 160.935C23.3867 162.02 22.7999 162.208 22.4512 162.208Z" fill="black"/>
<path d="M29.0627 128.789H224.363" stroke="black" stroke-opacity="0.5" stroke-width="0.5" stroke-dasharray="0.5 0.82"/>
<path d="M29.0627 128.789H32.0627H29.0627Z" fill="black"/>
<path d="M29.0627 128.789H32.0627" stroke="black" stroke-width="0.5"/>
<path d="M224.363 128.789H221.363H224.363Z" fill="black"/>
<path d="M224.363 128.789H221.363" stroke="black" stroke-width="0.5"/>
<path d="M17.8011 128.89C18.6884 128.89 19.0776 129.661 19.0776 130.551C19.0776 131.75 18.4394 132.209 17.8618 132.209C17.3341 132.209 16.4764 131.946 16.2071 131.169C16.2569 131.189 16.3067 131.189 16.3565 131.189C16.5963 131.189 16.7753 131.031 16.7753 130.772C16.7753 130.484 16.5558 130.355 16.3565 130.355C16.1884 130.355 15.9285 130.434 15.9285 130.806C15.9285 131.726 16.8251 132.447 17.8821 132.447C18.9873 132.447 19.8341 131.579 19.8341 130.559C19.8341 129.591 19.0371 128.89 18.0907 128.781C18.8472 128.624 19.5757 127.958 19.5757 127.066C19.5757 126.301 18.7881 125.743 17.8914 125.743C16.9854 125.743 16.1884 126.287 16.1884 127.066C16.1884 127.407 16.4468 127.466 16.576 127.466C16.7862 127.466 16.9652 127.337 16.9652 127.078C16.9652 126.821 16.7862 126.692 16.576 126.692C16.5371 126.692 16.4873 126.692 16.4468 126.711C16.7364 126.085 17.5225 125.971 17.8712 125.971C18.2199 125.971 18.8783 126.138 18.8783 127.08C18.8783 127.355 18.8379 127.846 18.4985 128.278C18.1996 128.661 17.8618 128.661 17.5334 128.692C17.4836 128.692 17.2532 128.716 17.2143 128.716C17.1442 128.725 17.1037 128.735 17.1037 128.811C17.1037 128.881 17.1146 128.89 17.3139 128.89H17.8011Z" fill="black"/>
<path d="M24.3533 129.096C24.3533 128.487 24.344 127.453 23.9253 126.658C23.5563 125.961 22.9679 125.713 22.4511 125.713C21.9716 125.713 21.3646 125.931 20.9863 126.649C20.5878 127.394 20.5473 128.319 20.5473 129.096C20.5473 129.662 20.5582 130.526 20.8664 131.284C21.2945 132.309 22.0619 132.447 22.4511 132.447C22.9088 132.447 23.6061 132.259 24.014 131.314C24.3129 130.626 24.3533 129.821 24.3533 129.096ZM22.4511 132.288C21.8129 132.288 21.4346 131.742 21.2945 130.984C21.1855 130.399 21.1855 129.542 21.1855 128.985C21.1855 128.219 21.1855 127.583 21.3147 126.975C21.5046 126.132 22.0619 125.872 22.4511 125.872C22.8589 125.872 23.3867 126.141 23.5766 126.955C23.7058 127.522 23.7151 128.19 23.7151 128.985C23.7151 129.633 23.7151 130.428 23.5968 131.015C23.3867 132.1 22.7998 132.288 22.4511 132.288Z" fill="black"/>
<path d="M29.0627 98.8691H224.363" stroke="black" stroke-opacity="0.5" stroke-width="0.5" stroke-dasharray="0.5 0.82"/>
<path d="M29.0627 98.8691H32.0627H29.0627Z" fill="black"/>
<path d="M29.0627 98.8691H32.0627" stroke="black" stroke-width="0.5"/>
<path d="M224.363 98.8691H221.363H224.363Z" fill="black"/>
<path d="M224.363 98.8691H221.363" stroke="black" stroke-width="0.5"/>
<path d="M18.9468 95.9118C18.9468 95.7032 18.9375 95.7032 18.7585 95.7032L15.7993 100.376V100.635H18.3693V101.617C18.3693 101.98 18.3491 102.079 17.6517 102.079H17.4633V102.328C17.7824 102.328 18.3195 102.328 18.6588 102.328C18.9966 102.328 19.5352 102.328 19.8544 102.328V102.079H19.6644C18.9671 102.079 18.9468 101.98 18.9468 101.617V100.635H19.9633V100.376H18.9468V95.9118ZM18.3989 96.5641V100.376H15.9985L18.3989 96.5641Z" fill="black"/>
<path d="M24.3533 99.1761C24.3533 98.5675 24.344 97.5339 23.9253 96.7384C23.5563 96.041 22.9679 95.7935 22.4511 95.7935C21.9716 95.7935 21.3646 96.0114 20.9863 96.7291C20.5878 97.4747 20.5473 98.3994 20.5473 99.1761C20.5473 99.7428 20.5582 100.607 20.8664 101.365C21.2945 102.389 22.0619 102.528 22.4511 102.528C22.9088 102.528 23.6061 102.339 24.014 101.394C24.3129 100.706 24.3533 99.9015 24.3533 99.1761ZM22.4511 102.369C21.8129 102.369 21.4346 101.822 21.2945 101.064C21.1855 100.479 21.1855 99.6229 21.1855 99.0656C21.1855 98.2997 21.1855 97.6631 21.3147 97.056C21.5046 96.2122 22.0619 95.9523 22.4511 95.9523C22.8589 95.9523 23.3867 96.2216 23.5766 97.0357C23.7058 97.6023 23.7151 98.2702 23.7151 99.0656C23.7151 99.7132 23.7151 100.509 23.5968 101.095C23.3867 102.18 22.7998 102.369 22.4511 102.369Z" fill="black"/>
<path d="M29.0627 68.9496H224.363" stroke="black" stroke-opacity="0.5" stroke-width="0.5" stroke-dasharray="0.5 0.82"/>
<path d="M29.0627 68.9496H32.0627H29.0627Z" fill="black"/>
<path d="M29.0627 68.9496H32.0627" stroke="black" stroke-width="0.5"/>
<path d="M224.363 68.9496H221.363H224.363Z" fill="black"/>
<path d="M224.363 68.9496H221.363" stroke="black" stroke-width="0.5"/>
<path d="M16.7364 66.6616C16.836 66.7021 17.2439 66.8298 17.6626 66.8298C18.5888 66.8298 19.0963 66.3207 19.3858 66.0265C19.3858 65.9378 19.3858 65.8833 19.3267 65.8833C19.3158 65.8833 19.2955 65.8833 19.2162 65.9285C18.8675 66.0919 18.4596 66.2242 17.9615 66.2242C17.6626 66.2242 17.2143 66.1837 16.7255 65.9658C16.6165 65.916 16.5963 65.916 16.587 65.916C16.5371 65.916 16.5262 65.9269 16.5262 66.1246V68.9795C16.5262 69.157 16.5262 69.2068 16.6259 69.2068C16.6757 69.2068 16.6959 69.1865 16.7457 69.1181C17.0648 68.6713 17.5023 68.4829 18.0004 68.4829C18.3491 68.4829 19.0963 68.7009 19.0963 70.4023C19.0963 70.7199 19.0963 71.2958 18.7974 71.7535C18.5483 72.1613 18.1607 72.3699 17.7327 72.3699C17.0742 72.3699 16.4064 71.9107 16.2274 71.1417C16.2678 71.1526 16.3472 71.1713 16.3877 71.1713C16.5169 71.1713 16.766 71.1012 16.766 70.793C16.766 70.5253 16.5761 70.4163 16.3877 70.4163C16.1573 70.4163 16.0079 70.5564 16.0079 70.8351C16.0079 71.7021 16.6959 72.6081 17.7513 72.6081C18.7787 72.6081 19.7548 71.7239 19.7548 70.4412C19.7548 69.2488 18.978 68.3242 18.0113 68.3242C17.5023 68.3242 17.0742 68.5125 16.7364 68.869V66.6616Z" fill="black"/>
<path d="M24.3534 69.2566C24.3534 68.6479 24.3441 67.6143 23.9253 66.8189C23.5564 66.1215 22.968 65.874 22.4512 65.874C21.9717 65.874 21.3646 66.0919 20.9863 66.8095C20.5878 67.5552 20.5474 68.4798 20.5474 69.2566C20.5474 69.8232 20.5583 70.6872 20.8665 71.4453C21.2946 72.4695 22.062 72.6081 22.4512 72.6081C22.9088 72.6081 23.6062 72.4197 24.0141 71.4748C24.3129 70.7868 24.3534 69.982 24.3534 69.2566ZM22.4512 72.4493C21.8129 72.4493 21.4347 71.9029 21.2946 71.1448C21.1856 70.5595 21.1856 69.7034 21.1856 69.1461C21.1856 68.3802 21.1856 67.7435 21.3148 67.1364C21.5047 66.2927 22.062 66.0327 22.4512 66.0327C22.859 66.0327 23.3867 66.3021 23.5766 67.1162C23.7058 67.6828 23.7152 68.3506 23.7152 69.1461C23.7152 69.7936 23.7152 70.5891 23.5969 71.176C23.3867 72.261 22.7999 72.4493 22.4512 72.4493Z" fill="black"/>
<path d="M29.0627 39.0301H224.363" stroke="black" stroke-opacity="0.5" stroke-width="0.5" stroke-dasharray="0.5 0.82"/>
<path d="M29.0627 39.0301H32.0627H29.0627Z" fill="black"/>
<path d="M29.0627 39.0301H32.0627" stroke="black" stroke-width="0.5"/>
<path d="M224.363 39.0301H221.363H224.363Z" fill="black"/>
<path d="M224.363 39.0301H221.363" stroke="black" stroke-width="0.5"/>
<path d="M16.6554 39.102C16.6554 36.7452 17.7715 36.2128 18.4191 36.2128C18.6293 36.2128 19.1367 36.2486 19.336 36.6114C19.1772 36.6114 18.8783 36.6114 18.8783 36.9585C18.8783 37.2262 19.0963 37.3165 19.2364 37.3165C19.3267 37.3165 19.5944 37.2776 19.5944 36.9476C19.5944 36.3343 19.0963 35.984 18.4098 35.984C17.2236 35.984 15.9783 37.2122 15.9783 39.4009C15.9783 42.0955 17.1037 42.6886 17.9007 42.6886C18.8674 42.6886 19.7843 41.8246 19.7843 40.4921C19.7843 39.2499 18.978 38.3455 17.9615 38.3455C17.3528 38.3455 16.9045 38.7424 16.6554 39.4382V39.102ZM17.9007 42.4504C16.6757 42.4504 16.6757 40.6213 16.6757 40.2539C16.6757 39.5379 17.015 38.5043 17.9412 38.5043C18.1109 38.5043 18.5981 38.5043 18.9281 39.1892C19.1072 39.5783 19.1072 39.9846 19.1072 40.4828C19.1072 41.0198 19.1072 41.4152 18.897 41.8137C18.6791 42.2231 18.36 42.4504 17.9007 42.4504Z" fill="black"/>
<path d="M24.3533 39.3371C24.3533 38.7284 24.344 37.6948 23.9253 36.8993C23.5563 36.2019 22.9679 35.9544 22.4511 35.9544C21.9716 35.9544 21.3646 36.1724 20.9863 36.89C20.5878 37.6356 20.5473 38.5603 20.5473 39.3371C20.5473 39.9037 20.5582 40.7676 20.8664 41.5257C21.2945 42.55 22.0619 42.6886 22.4511 42.6886C22.9088 42.6886 23.6061 42.5002 24.014 41.5553C24.3129 40.8673 24.3533 40.0625 24.3533 39.3371ZM22.4511 42.5298C21.8129 42.5298 21.4346 41.9834 21.2945 41.2253C21.1855 40.64 21.1855 39.7838 21.1855 39.2265C21.1855 38.4607 21.1855 37.824 21.3147 37.2169C21.5046 36.3732 22.0619 36.1132 22.4511 36.1132C22.8589 36.1132 23.3867 36.3825 23.5766 37.1967C23.7058 37.7633 23.7151 38.4311 23.7151 39.2265C23.7151 39.8741 23.7151 40.6696 23.5968 41.2564C23.3867 42.3414 22.7998 42.5298 22.4511 42.5298Z" fill="black"/>
<path d="M29.0627 170.676H30.5627H29.0627Z" fill="black"/>
<path d="M29.0627 170.676H30.5627" stroke="black" stroke-width="0.5"/>
<path d="M224.363 170.676H222.863H224.363Z" fill="black"/>
<path d="M224.363 170.676H222.863" stroke="black" stroke-width="0.5"/>
<path d="M29.0627 164.692H30.5627H29.0627Z" fill="black"/>
<path d="M29.0627 164.692H30.5627" stroke="black" stroke-width="0.5"/>
<path d="M224.363 164.692H222.863H224.363Z" fill="black"/>
<path d="M224.363 164.692H222.863" stroke="black" stroke-width="0.5"/>
<path d="M29.0627 152.724H30.5627H29.0627Z" fill="black"/>
<path d="M29.0627 152.724H30.5627" stroke="black" stroke-width="0.5"/>
<path d="M224.363 152.724H222.863H224.363Z" fill="black"/>
<path d="M224.363 152.724H222.863" stroke="black" stroke-width="0.5"/>
<path d="M29.0627 146.74H30.5627H29.0627Z" fill="black"/>
<path d="M29.0627 146.74H30.5627" stroke="black" stroke-width="0.5"/>
<path d="M224.363 146.74H222.863H224.363Z" fill="black"/>
<path d="M224.363 146.74H222.863" stroke="black" stroke-width="0.5"/>
<path d="M29.0627 140.756H30.5627H29.0627Z" fill="black"/>
<path d="M29.0627 140.756H30.5627" stroke="black" stroke-width="0.5"/>
<path d="M224.363 140.756H222.863H224.363Z" fill="black"/>
<path d="M224.363 140.756H222.863" stroke="black" stroke-width="0.5"/>
<path d="M29.0627 134.773H30.5627H29.0627Z" fill="black"/>
<path d="M29.0627 134.773H30.5627" stroke="black" stroke-width="0.5"/>
<path d="M224.363 134.773H222.863H224.363Z" fill="black"/>
<path d="M224.363 134.773H222.863" stroke="black" stroke-width="0.5"/>
<path d="M29.0627 122.805H30.5627H29.0627Z" fill="black"/>
<path d="M29.0627 122.805H30.5627" stroke="black" stroke-width="0.5"/>
<path d="M224.363 122.805H222.863H224.363Z" fill="black"/>
<path d="M224.363 122.805H222.863" stroke="black" stroke-width="0.5"/>
<path d="M29.0627 116.821H30.5627H29.0627Z" fill="black"/>
<path d="M29.0627 116.821H30.5627" stroke="black" stroke-width="0.5"/>
<path d="M224.363 116.821H222.863H224.363Z" fill="black"/>
<path d="M224.363 116.821H222.863" stroke="black" stroke-width="0.5"/>
<path d="M29.0627 110.837H30.5627H29.0627Z" fill="black"/>
<path d="M29.0627 110.837H30.5627" stroke="black" stroke-width="0.5"/>
<path d="M224.363 110.837H222.863H224.363Z" fill="black"/>
<path d="M224.363 110.837H222.863" stroke="black" stroke-width="0.5"/>
<path d="M29.0627 104.853H30.5627H29.0627Z" fill="black"/>
<path d="M29.0627 104.853H30.5627" stroke="black" stroke-width="0.5"/>
<path d="M224.363 104.853H222.863H224.363Z" fill="black"/>
<path d="M224.363 104.853H222.863" stroke="black" stroke-width="0.5"/>
<path d="M29.0627 92.8852H30.5627H29.0627Z" fill="black"/>
<path d="M29.0627 92.8852H30.5627" stroke="black" stroke-width="0.5"/>
<path d="M224.363 92.8852H222.863H224.363Z" fill="black"/>
<path d="M224.363 92.8852H222.863" stroke="black" stroke-width="0.5"/>
<path d="M29.0627 86.9013H30.5627H29.0627Z" fill="black"/>
<path d="M29.0627 86.9013H30.5627" stroke="black" stroke-width="0.5"/>
<path d="M224.363 86.9013H222.863H224.363Z" fill="black"/>
<path d="M224.363 86.9013H222.863" stroke="black" stroke-width="0.5"/>
<path d="M29.0627 80.9174H30.5627H29.0627Z" fill="black"/>
<path d="M29.0627 80.9174H30.5627" stroke="black" stroke-width="0.5"/>
<path d="M224.363 80.9174H222.863H224.363Z" fill="black"/>
<path d="M224.363 80.9174H222.863" stroke="black" stroke-width="0.5"/>
<path d="M29.0627 74.9335H30.5627H29.0627Z" fill="black"/>
<path d="M29.0627 74.9335H30.5627" stroke="black" stroke-width="0.5"/>
<path d="M224.363 74.9335H222.863H224.363Z" fill="black"/>
<path d="M224.363 74.9335H222.863" stroke="black" stroke-width="0.5"/>
<path d="M29.0627 62.9657H30.5627H29.0627Z" fill="black"/>
<path d="M29.0627 62.9657H30.5627" stroke="black" stroke-width="0.5"/>
<path d="M224.363 62.9657H222.863H224.363Z" fill="black"/>
<path d="M224.363 62.9657H222.863" stroke="black" stroke-width="0.5"/>
<path d="M29.0627 56.9818H30.5627H29.0627Z" fill="black"/>
<path d="M29.0627 56.9818H30.5627" stroke="black" stroke-width="0.5"/>
<path d="M224.363 56.9818H222.863H224.363Z" fill="black"/>
<path d="M224.363 56.9818H222.863" stroke="black" stroke-width="0.5"/>
<path d="M29.0627 50.9979H30.5627H29.0627Z" fill="black"/>
<path d="M29.0627 50.9979H30.5627" stroke="black" stroke-width="0.5"/>
<path d="M224.363 50.9979H222.863H224.363Z" fill="black"/>
<path d="M224.363 50.9979H222.863" stroke="black" stroke-width="0.5"/>
<path d="M29.0627 45.014H30.5627H29.0627Z" fill="black"/>
<path d="M29.0627 45.014H30.5627" stroke="black" stroke-width="0.5"/>
<path d="M224.363 45.014H222.863H224.363Z" fill="black"/>
<path d="M224.363 45.014H222.863" stroke="black" stroke-width="0.5"/>
<path d="M29.0627 176.295V33.6" stroke="black" stroke-width="0.5" stroke-linecap="square"/>
<path d="M224.363 176.295V33.6" stroke="black" stroke-width="0.5" stroke-linecap="square"/>
<path d="M29.0627 176.295H224.363" stroke="black" stroke-width="0.5" stroke-linecap="square"/>
<path d="M29.0627 33.6H224.363" stroke="black" stroke-width="0.5" stroke-linecap="square"/>
<path d="M5.676 138.892H5.304C5.328 139.252 5.34 139.624 5.34 139.984L5.304 141.412H5.676C5.688 140.608 6.084 140.368 6.312 140.368C6.384 140.368 6.48 140.404 6.552 140.428L12.096 142.228L6.216 144.148C6.168 144.16 6.096 144.184 6.036 144.184C5.676 144.184 5.676 143.488 5.676 143.176H5.304C5.34 143.608 5.34 144.424 5.34 144.88L5.304 146.344H5.676C5.676 145.66 5.676 145.408 6.108 145.264L6.948 145L12.096 146.668L6.192 148.6C6.156 148.612 6.072 148.624 6.036 148.624C5.676 148.624 5.676 147.928 5.676 147.616H5.304C5.34 148.048 5.34 148.864 5.34 149.32L5.304 150.784H5.676C5.676 149.884 5.736 149.836 6.18 149.692L13.536 147.292C13.644 147.256 13.764 147.22 13.764 147.064C13.764 146.896 13.68 146.872 13.524 146.824L7.428 144.844L13.536 142.852C13.644 142.816 13.764 142.78 13.764 142.624C13.764 142.456 13.68 142.432 13.524 142.384L6.48 140.092C5.796 139.876 5.676 139.36 5.676 138.892ZM12.432 133.86H11.76V134.16H12.432C13.128 134.16 13.2 134.46 13.2 134.592C13.2 134.988 12.66 135.036 12.6 135.036H10.2C9.696 135.036 9.228 135.036 8.784 135.468C8.316 135.936 8.124 136.536 8.124 137.112C8.124 138.096 8.688 138.924 9.48 138.924C9.84 138.924 10.044 138.684 10.044 138.372C10.044 138.036 9.804 137.82 9.492 137.82C9.348 137.82 8.952 137.88 8.94 138.432C8.52 138.108 8.388 137.52 8.388 137.136C8.388 136.548 8.856 135.864 9.924 135.864H10.368C10.404 136.476 10.44 137.316 10.8 138.072C11.208 138.972 11.832 139.272 12.36 139.272C13.332 139.272 13.632 138.108 13.632 137.352C13.632 136.56 13.152 136.008 12.588 135.78C13.068 135.732 13.572 135.408 13.572 134.844C13.572 134.592 13.404 133.86 12.432 133.86ZM11.82 135.864C12.96 135.864 13.368 136.728 13.368 137.268C13.368 137.856 12.948 138.348 12.348 138.348C11.688 138.348 10.692 137.844 10.62 135.864H11.82ZM12.012 129.672H11.328V129.972H11.988C12.876 129.972 13.332 130.332 13.332 130.776C13.332 131.58 12.24 131.58 12.036 131.58H8.7V129.864H8.328V131.58H6.12V131.88C7.104 131.892 8.388 132.252 8.436 133.428H8.7V132.408H12.012C13.488 132.408 13.632 131.292 13.632 130.86C13.632 130.008 12.78 129.672 12.012 129.672ZM12.072 124.012C11.952 124.012 11.928 124.108 11.928 124.168C11.928 124.276 12 124.3 12.096 124.324C13.332 124.744 13.332 125.824 13.332 125.944C13.332 126.544 12.972 127.024 12.528 127.3C11.952 127.66 11.16 127.66 10.728 127.66V124.312C10.728 124.048 10.728 124.012 10.476 124.012C9.288 124.012 8.124 124.66 8.124 126.16C8.124 127.552 9.36 128.656 10.86 128.656C12.468 128.656 13.632 127.396 13.632 126.016C13.632 124.552 12.3 124.012 12.072 124.012ZM10.476 124.804V127.648C8.688 127.576 8.388 126.568 8.388 126.16C8.388 124.924 10.008 124.804 10.476 124.804ZM8.928 119.292C8.544 119.292 8.196 119.664 8.196 120.18C8.196 121.056 9 121.488 9.516 121.656H8.196L8.328 123.324H8.7C8.7 122.484 8.784 122.388 9.372 122.388H12.588C13.128 122.388 13.128 122.52 13.128 123.324H13.5L13.464 121.956C13.464 121.476 13.464 120.912 13.5 120.432H13.128V120.684C13.128 121.572 12.996 121.596 12.564 121.596H10.716C9.528 121.596 8.46 121.092 8.46 120.18C8.46 120.096 8.46 120.072 8.472 120.048C8.484 120.084 8.628 120.324 8.94 120.324C9.276 120.324 9.456 120.072 9.456 119.808C9.456 119.592 9.312 119.292 8.928 119.292ZM13.5 111.905H13.128C13.128 112.709 13.128 112.841 12.588 112.841H5.172L5.304 114.569H5.676C5.676 113.729 5.76 113.633 6.348 113.633H12.588C13.128 113.633 13.128 113.765 13.128 114.569H13.5L13.464 113.237L13.5 111.905ZM10.932 105.973C9.396 105.973 8.124 107.173 8.124 108.625C8.124 110.125 9.432 111.289 10.932 111.289C12.48 111.289 13.632 110.041 13.632 108.637C13.632 107.185 12.456 105.973 10.932 105.973ZM10.836 106.969C11.268 106.969 11.916 106.969 12.444 107.233C12.984 107.497 13.332 108.025 13.332 108.625C13.332 109.141 13.08 109.669 12.528 109.993C12 110.293 11.268 110.293 10.836 110.293C10.368 110.293 9.72 110.293 9.192 110.005C8.64 109.681 8.388 109.117 8.388 108.637C8.388 108.109 8.652 107.593 9.168 107.281C9.684 106.969 10.38 106.969 10.836 106.969ZM11.964 101.305C11.328 101.305 10.968 101.665 10.824 101.809C10.44 102.205 10.344 102.673 10.248 103.177C10.116 103.849 9.96 104.653 9.264 104.653C8.844 104.653 8.352 104.341 8.352 103.309C8.352 101.989 9.432 101.929 9.804 101.905C9.912 101.893 9.912 101.761 9.912 101.761C9.912 101.605 9.852 101.605 9.624 101.605H8.412C8.208 101.605 8.124 101.605 8.124 101.737C8.124 101.797 8.124 101.821 8.268 101.977C8.316 102.013 8.424 102.133 8.46 102.181C8.124 102.637 8.124 103.129 8.124 103.309C8.124 104.773 8.928 105.229 9.6 105.229C10.02 105.229 10.356 105.037 10.62 104.713C10.932 104.329 11.004 103.993 11.172 103.129C11.22 102.865 11.412 101.881 12.276 101.881C12.888 101.881 13.368 102.301 13.368 103.237C13.368 104.245 12.684 104.677 11.664 104.905C11.508 104.941 11.46 104.953 11.46 105.073C11.46 105.229 11.544 105.229 11.76 105.229H13.344C13.548 105.229 13.632 105.229 13.632 105.097C13.632 105.037 13.62 105.025 13.392 104.797C13.368 104.773 13.344 104.773 13.116 104.557C13.62 104.029 13.632 103.489 13.632 103.237C13.632 101.857 12.828 101.305 11.964 101.305ZM11.964 96.5823C11.328 96.5823 10.968 96.9423 10.824 97.0863C10.44 97.4823 10.344 97.9503 10.248 98.4543C10.116 99.1263 9.96 99.9303 9.264 99.9303C8.844 99.9303 8.352 99.6183 8.352 98.5863C8.352 97.2663 9.432 97.2063 9.804 97.1823C9.912 97.1703 9.912 97.0383 9.912 97.0383C9.912 96.8823 9.852 96.8823 9.624 96.8823H8.412C8.208 96.8823 8.124 96.8823 8.124 97.0143C8.124 97.0743 8.124 97.0983 8.268 97.2543C8.316 97.2903 8.424 97.4103 8.46 97.4583C8.124 97.9143 8.124 98.4063 8.124 98.5863C8.124 100.05 8.928 100.506 9.6 100.506C10.02 100.506 10.356 100.314 10.62 99.9903C10.932 99.6063 11.004 99.2703 11.172 98.4063C11.22 98.1423 11.412 97.1583 12.276 97.1583C12.888 97.1583 13.368 97.5783 13.368 98.5143C13.368 99.5223 12.684 99.9543 11.664 100.182C11.508 100.218 11.46 100.23 11.46 100.35C11.46 100.506 11.544 100.506 11.76 100.506H13.344C13.548 100.506 13.632 100.506 13.632 100.374C13.632 100.314 13.62 100.302 13.392 100.074C13.368 100.05 13.344 100.05 13.116 99.8343C13.62 99.3063 13.632 98.7663 13.632 98.5143C13.632 97.1343 12.828 96.5823 11.964 96.5823ZM13.488 93.7437C12.72 93.7437 12.228 94.0317 12.228 94.5117C12.228 94.9317 12.552 95.1477 12.864 95.1477C13.176 95.1477 13.5 94.9437 13.5 94.5117C13.5 94.3317 13.428 94.1637 13.308 94.0317C14.256 94.0077 14.988 94.3437 15.552 94.8717C15.624 94.9437 15.636 94.9557 15.684 94.9557C15.768 94.9557 15.816 94.8957 15.816 94.8357C15.816 94.6917 14.868 93.7437 13.488 93.7437ZM12.072 83.8637C11.952 83.8637 11.952 83.9837 11.952 84.0197C11.952 84.1277 12 84.1517 12.072 84.1757C13.188 84.5237 13.332 85.3037 13.332 85.7477C13.332 86.3837 12.816 87.4397 10.884 87.4397C8.928 87.4397 8.424 86.4557 8.424 85.8197C8.424 85.7117 8.436 84.9557 8.868 84.5357C8.904 85.0277 9.264 85.0997 9.42 85.0997C9.732 85.0997 9.972 84.8837 9.972 84.5477C9.972 84.2357 9.768 83.9957 9.408 83.9957C8.592 83.9957 8.124 84.9077 8.124 85.8317C8.124 87.3317 9.42 88.4357 10.908 88.4357C12.444 88.4357 13.632 87.2477 13.632 85.8557C13.632 84.2477 12.192 83.8637 12.072 83.8637ZM13.5 73.7557H13.128C13.128 74.3797 13.128 74.6797 12.768 74.6917H10.476C9.444 74.6917 9.072 74.6917 8.64 75.0637C8.436 75.2317 8.196 75.6277 8.196 76.3237C8.196 77.3317 8.916 77.8597 9.372 78.0637C8.328 78.2317 8.196 79.1197 8.196 79.6597C8.196 80.5357 8.712 81.0997 9.456 81.4357H8.196L8.328 83.1277H8.7C8.7 82.2877 8.784 82.1917 9.372 82.1917H12.588C13.128 82.1917 13.128 82.3237 13.128 83.1277H13.5L13.464 81.7717L13.5 80.4277H13.128C13.128 81.2317 13.128 81.3637 12.588 81.3637H10.38C9.132 81.3637 8.46 80.5117 8.46 79.7437C8.46 78.9877 9.108 78.8557 9.792 78.8557H12.588C13.128 78.8557 13.128 78.9877 13.128 79.7917H13.5L13.464 78.4357L13.5 77.0917H13.128C13.128 77.8957 13.128 78.0277 12.588 78.0277H10.38C9.132 78.0277 8.46 77.1757 8.46 76.4077C8.46 75.6517 9.108 75.5197 9.792 75.5197H12.588C13.128 75.5197 13.128 75.6517 13.128 76.4557H13.5L13.464 75.0997L13.5 73.7557Z" fill="black"/>
<path d="M68.988 195.036C68.988 193.86 67.8 192.804 66.156 192.804H61.92V193.176H62.208C63.132 193.176 63.156 193.308 63.156 193.74V200.064C63.156 200.496 63.132 200.628 62.208 200.628H61.92V201C62.34 200.964 63.228 200.964 63.684 200.964C64.14 200.964 65.04 200.964 65.46 201V200.628H65.172C64.248 200.628 64.224 200.496 64.224 200.064V197.208H66.252C67.692 197.208 68.988 196.236 68.988 195.036ZM67.752 195.036C67.752 195.6 67.752 196.896 65.844 196.896H64.188V193.656C64.188 193.26 64.212 193.176 64.776 193.176H65.844C67.752 193.176 67.752 194.448 67.752 195.036ZM74.9801 198.432C74.9801 196.896 73.7801 195.624 72.3281 195.624C70.8281 195.624 69.6641 196.932 69.6641 198.432C69.6641 199.98 70.9121 201.132 72.3161 201.132C73.7681 201.132 74.9801 199.956 74.9801 198.432ZM73.9841 198.336C73.9841 198.768 73.9841 199.416 73.7201 199.944C73.4561 200.484 72.9281 200.832 72.3281 200.832C71.8121 200.832 71.2841 200.58 70.9601 200.028C70.6601 199.5 70.6601 198.768 70.6601 198.336C70.6601 197.868 70.6601 197.22 70.9481 196.692C71.2721 196.14 71.8361 195.888 72.3161 195.888C72.8441 195.888 73.3601 196.152 73.6721 196.668C73.9841 197.184 73.9841 197.88 73.9841 198.336ZM79.3121 199.512V198.828H79.0121V199.488C79.0121 200.376 78.6521 200.832 78.2081 200.832C77.4041 200.832 77.4041 199.74 77.4041 199.536V196.2H79.1201V195.828H77.4041V193.62H77.1041C77.0921 194.604 76.7321 195.888 75.5561 195.936V196.2H76.5761V199.512C76.5761 200.988 77.6921 201.132 78.1241 201.132C78.9761 201.132 79.3121 200.28 79.3121 199.512ZM85.7882 199.932V199.26H85.4882V199.932C85.4882 200.628 85.1882 200.7 85.0562 200.7C84.6602 200.7 84.6122 200.16 84.6122 200.1V197.7C84.6122 197.196 84.6122 196.728 84.1802 196.284C83.7122 195.816 83.1122 195.624 82.5362 195.624C81.5522 195.624 80.7242 196.188 80.7242 196.98C80.7242 197.34 80.9642 197.544 81.2762 197.544C81.6122 197.544 81.8282 197.304 81.8282 196.992C81.8282 196.848 81.7682 196.452 81.2162 196.44C81.5402 196.02 82.1282 195.888 82.5122 195.888C83.1002 195.888 83.7842 196.356 83.7842 197.424V197.868C83.1722 197.904 82.3322 197.94 81.5762 198.3C80.6762 198.708 80.3762 199.332 80.3762 199.86C80.3762 200.832 81.5402 201.132 82.2962 201.132C83.0882 201.132 83.6402 200.652 83.8682 200.088C83.9162 200.568 84.2402 201.072 84.8042 201.072C85.0562 201.072 85.7882 200.904 85.7882 199.932ZM83.7842 199.32C83.7842 200.46 82.9202 200.868 82.3802 200.868C81.7922 200.868 81.3002 200.448 81.3002 199.848C81.3002 199.188 81.8042 198.192 83.7842 198.12V199.32ZM89.9762 199.512V198.828H89.6762V199.488C89.6762 200.376 89.3162 200.832 88.8722 200.832C88.0682 200.832 88.0682 199.74 88.0682 199.536V196.2H89.7842V195.828H88.0682V193.62H87.7682C87.7562 194.604 87.3962 195.888 86.2202 195.936V196.2H87.2402V199.512C87.2402 200.988 88.3562 201.132 88.7882 201.132C89.6402 201.132 89.9762 200.28 89.9762 199.512ZM96.3083 198.432C96.3083 196.896 95.1083 195.624 93.6562 195.624C92.1562 195.624 90.9923 196.932 90.9923 198.432C90.9923 199.98 92.2402 201.132 93.6443 201.132C95.0963 201.132 96.3083 199.956 96.3083 198.432ZM95.3123 198.336C95.3123 198.768 95.3123 199.416 95.0483 199.944C94.7843 200.484 94.2563 200.832 93.6562 200.832C93.1403 200.832 92.6123 200.58 92.2883 200.028C91.9883 199.5 91.9883 198.768 91.9883 198.336C91.9883 197.868 91.9883 197.22 92.2763 196.692C92.6003 196.14 93.1643 195.888 93.6443 195.888C94.1723 195.888 94.6883 196.152 95.0003 196.668C95.3123 197.184 95.3123 197.88 95.3123 198.336ZM105.632 199.572C105.632 199.452 105.512 199.452 105.476 199.452C105.368 199.452 105.344 199.5 105.32 199.572C104.972 200.688 104.192 200.832 103.748 200.832C103.112 200.832 102.056 200.316 102.056 198.384C102.056 196.428 103.04 195.924 103.676 195.924C103.784 195.924 104.54 195.936 104.96 196.368C104.468 196.404 104.396 196.764 104.396 196.92C104.396 197.232 104.612 197.472 104.948 197.472C105.26 197.472 105.5 197.268 105.5 196.908C105.5 196.092 104.588 195.624 103.664 195.624C102.164 195.624 101.06 196.92 101.06 198.408C101.06 199.944 102.248 201.132 103.64 201.132C105.248 201.132 105.632 199.692 105.632 199.572ZM110.352 196.428C110.352 196.044 109.98 195.696 109.464 195.696C108.588 195.696 108.156 196.5 107.988 197.016V195.696L106.32 195.828V196.2C107.16 196.2 107.256 196.284 107.256 196.872V200.088C107.256 200.628 107.124 200.628 106.32 200.628V201L107.688 200.964C108.168 200.964 108.732 200.964 109.212 201V200.628H108.96C108.072 200.628 108.048 200.496 108.048 200.064V198.216C108.048 197.028 108.552 195.96 109.464 195.96C109.548 195.96 109.572 195.96 109.596 195.972C109.56 195.984 109.32 196.128 109.32 196.44C109.32 196.776 109.572 196.956 109.836 196.956C110.052 196.956 110.352 196.812 110.352 196.428ZM116.336 198.432C116.336 196.896 115.136 195.624 113.684 195.624C112.184 195.624 111.02 196.932 111.02 198.432C111.02 199.98 112.268 201.132 113.672 201.132C115.124 201.132 116.336 199.956 116.336 198.432ZM115.34 198.336C115.34 198.768 115.34 199.416 115.076 199.944C114.812 200.484 114.284 200.832 113.684 200.832C113.168 200.832 112.64 200.58 112.316 200.028C112.016 199.5 112.016 198.768 112.016 198.336C112.016 197.868 112.016 197.22 112.304 196.692C112.628 196.14 113.192 195.888 113.672 195.888C114.2 195.888 114.716 196.152 115.028 196.668C115.34 197.184 115.34 197.88 115.34 198.336ZM122.936 198.408C122.936 196.884 121.772 195.696 120.428 195.696C119.492 195.696 118.988 196.224 118.748 196.488V195.696L117.02 195.828V196.2C117.872 196.2 117.956 196.272 117.956 196.8V202.416C117.956 202.956 117.824 202.956 117.02 202.956V203.328L118.364 203.292L119.72 203.328V202.956C118.916 202.956 118.784 202.956 118.784 202.416V200.4V200.292C118.844 200.484 119.348 201.132 120.26 201.132C121.688 201.132 122.936 199.956 122.936 198.408ZM121.94 198.408C121.94 199.86 121.1 200.868 120.212 200.868C119.732 200.868 119.276 200.628 118.952 200.136C118.784 199.884 118.784 199.872 118.784 199.632V196.956C119.132 196.344 119.72 195.996 120.332 195.996C121.208 195.996 121.94 197.052 121.94 198.408ZM133.444 196.2V195.828C133.168 195.852 132.82 195.864 132.544 195.864L131.5 195.828V196.2C131.872 196.212 132.064 196.416 132.064 196.716C132.064 196.836 132.052 196.86 131.992 197.004L130.78 199.956L129.448 196.728C129.4 196.608 129.376 196.56 129.376 196.512C129.376 196.2 129.82 196.2 130.048 196.2V195.828L128.74 195.864C128.416 195.864 127.936 195.852 127.576 195.828V196.2C128.152 196.2 128.38 196.2 128.548 196.62L130.348 201L130.048 201.708C129.784 202.368 129.448 203.196 128.68 203.196C128.62 203.196 128.344 203.196 128.116 202.98C128.488 202.932 128.584 202.668 128.584 202.476C128.584 202.164 128.356 201.972 128.08 201.972C127.84 201.972 127.576 202.128 127.576 202.488C127.576 203.028 128.08 203.46 128.68 203.46C129.436 203.46 129.928 202.776 130.216 202.092L132.328 196.968C132.64 196.212 133.252 196.2 133.444 196.2ZM136.652 201V200.628C135.86 200.628 135.812 200.568 135.812 200.1V195.696L134.132 195.828V196.2C134.912 196.2 135.02 196.272 135.02 196.86V200.088C135.02 200.628 134.888 200.628 134.083 200.628V201L135.404 200.964C135.824 200.964 136.244 200.988 136.652 201ZM135.992 193.752C135.992 193.428 135.716 193.116 135.356 193.116C134.948 193.116 134.708 193.452 134.708 193.752C134.708 194.076 134.984 194.388 135.344 194.388C135.752 194.388 135.992 194.052 135.992 193.752ZM142.007 199.572C142.007 199.452 141.911 199.428 141.851 199.428C141.743 199.428 141.719 199.5 141.695 199.596C141.275 200.832 140.195 200.832 140.075 200.832C139.475 200.832 138.995 200.472 138.719 200.028C138.359 199.452 138.359 198.66 138.359 198.228H141.707C141.971 198.228 142.007 198.228 142.007 197.976C142.007 196.788 141.359 195.624 139.859 195.624C138.467 195.624 137.363 196.86 137.363 198.36C137.363 199.968 138.623 201.132 140.003 201.132C141.467 201.132 142.007 199.8 142.007 199.572ZM141.215 197.976H138.371C138.443 196.188 139.451 195.888 139.859 195.888C141.095 195.888 141.215 197.508 141.215 197.976ZM145.419 201V200.628C144.615 200.628 144.483 200.628 144.483 200.088V192.672L142.755 192.804V193.176C143.595 193.176 143.691 193.26 143.691 193.848V200.088C143.691 200.628 143.559 200.628 142.755 200.628V201L144.087 200.964L145.419 201ZM152.023 201V200.628C151.183 200.628 151.087 200.544 151.087 199.956V192.672L149.359 192.804V193.176C150.199 193.176 150.295 193.26 150.295 193.848V196.44C149.947 196.008 149.431 195.696 148.783 195.696C147.367 195.696 146.107 196.872 146.107 198.42C146.107 199.944 147.283 201.132 148.651 201.132C149.419 201.132 149.959 200.724 150.259 200.34V201.132L152.023 201ZM150.259 199.584C150.259 199.8 150.259 199.824 150.127 200.028C149.767 200.604 149.227 200.868 148.711 200.868C148.171 200.868 147.739 200.556 147.451 200.1C147.139 199.608 147.103 198.924 147.103 198.432C147.103 197.988 147.127 197.268 147.475 196.728C147.727 196.356 148.183 195.96 148.831 195.96C149.251 195.96 149.755 196.14 150.127 196.68C150.259 196.884 150.259 196.908 150.259 197.124V199.584ZM154.803 200.988C154.803 200.22 154.515 199.728 154.035 199.728C153.615 199.728 153.399 200.052 153.399 200.364C153.399 200.676 153.603 201 154.035 201C154.215 201 154.383 200.928 154.515 200.808C154.539 201.756 154.203 202.488 153.675 203.052C153.603 203.124 153.591 203.136 153.591 203.184C153.591 203.268 153.651 203.316 153.711 203.316C153.855 203.316 154.803 202.368 154.803 200.988ZM163.687 199.512V198.828H163.387V199.488C163.387 200.376 163.027 200.832 162.583 200.832C161.779 200.832 161.779 199.74 161.779 199.536V196.2H163.495V195.828H161.779V193.62H161.479C161.467 194.604 161.107 195.888 159.931 195.936V196.2H160.951V199.512C160.951 200.988 162.067 201.132 162.499 201.132C163.351 201.132 163.687 200.28 163.687 199.512ZM169.683 192.24C169.683 192.108 169.575 192 169.443 192C169.275 192 169.227 192.12 169.191 192.24L165.099 203.544C165.039 203.7 165.039 203.76 165.039 203.76C165.039 203.892 165.147 204 165.279 204C165.447 204 165.495 203.88 165.531 203.76L169.623 192.456C169.683 192.3 169.683 192.24 169.683 192.24ZM176.787 201V200.628C176.163 200.628 175.863 200.628 175.851 200.268V197.976C175.851 196.944 175.851 196.572 175.479 196.14C175.311 195.936 174.915 195.696 174.219 195.696C173.211 195.696 172.683 196.416 172.491 196.848H172.479V192.672L170.751 192.804V193.176C171.591 193.176 171.687 193.26 171.687 193.848V200.088C171.687 200.628 171.555 200.628 170.751 200.628V201L172.107 200.964L173.451 201V200.628C172.647 200.628 172.515 200.628 172.515 200.088V197.88C172.515 196.632 173.367 195.96 174.135 195.96C174.891 195.96 175.023 196.608 175.023 197.292V200.088C175.023 200.628 174.891 200.628 174.087 200.628V201L175.443 200.964L176.787 201ZM182.831 199.932V199.26H182.531V199.932C182.531 200.628 182.231 200.7 182.099 200.7C181.703 200.7 181.655 200.16 181.655 200.1V197.7C181.655 197.196 181.655 196.728 181.223 196.284C180.755 195.816 180.155 195.624 179.579 195.624C178.595 195.624 177.767 196.188 177.767 196.98C177.767 197.34 178.007 197.544 178.319 197.544C178.655 197.544 178.871 197.304 178.871 196.992C178.871 196.848 178.811 196.452 178.259 196.44C178.583 196.02 179.171 195.888 179.555 195.888C180.143 195.888 180.827 196.356 180.827 197.424V197.868C180.215 197.904 179.375 197.94 178.619 198.3C177.719 198.708 177.419 199.332 177.419 199.86C177.419 200.832 178.583 201.132 179.339 201.132C180.131 201.132 180.683 200.652 180.911 200.088C180.959 200.568 181.283 201.072 181.847 201.072C182.099 201.072 182.831 200.904 182.831 199.932ZM180.827 199.32C180.827 200.46 179.963 200.868 179.423 200.868C178.835 200.868 178.343 200.448 178.343 199.848C178.343 199.188 178.847 198.192 180.827 198.12V199.32Z" fill="black"/>
</g>
<path opacity="0.8" d="M48.9846 127.931H120.015C121.338 127.931 122 127.745 122 127.374V115.557C122 115.186 121.338 115 120.015 115H48.9846C47.6615 115 47 115.186 47 115.557V127.374C47 127.745 47.6615 127.931 48.9846 127.931Z" fill="white" stroke="#CCCCCC" stroke-width="0.7"/>
<path d="M59.988 119.036C59.988 117.86 58.8 116.804 57.156 116.804H52.92V117.176H53.208C54.132 117.176 54.156 117.308 54.156 117.74V124.064C54.156 124.496 54.132 124.628 53.208 124.628H52.92V125C53.34 124.964 54.228 124.964 54.684 124.964C55.14 124.964 56.04 124.964 56.46 125V124.628H56.172C55.248 124.628 55.224 124.496 55.224 124.064V121.208H57.252C58.692 121.208 59.988 120.236 59.988 119.036ZM58.752 119.036C58.752 119.6 58.752 120.896 56.844 120.896H55.188V117.656C55.188 117.26 55.212 117.176 55.776 117.176H56.844C58.752 117.176 58.752 118.448 58.752 119.036ZM66.1241 123.932V123.26H65.8241V123.932C65.8241 124.628 65.5241 124.7 65.3921 124.7C64.9961 124.7 64.9481 124.16 64.9481 124.1V121.7C64.9481 121.196 64.9481 120.728 64.5161 120.284C64.0481 119.816 63.4481 119.624 62.8721 119.624C61.8881 119.624 61.0601 120.188 61.0601 120.98C61.0601 121.34 61.3001 121.544 61.6121 121.544C61.9481 121.544 62.1641 121.304 62.1641 120.992C62.1641 120.848 62.1041 120.452 61.5521 120.44C61.8761 120.02 62.4641 119.888 62.8481 119.888C63.4361 119.888 64.1201 120.356 64.1201 121.424V121.868C63.5081 121.904 62.6681 121.94 61.9121 122.3C61.0121 122.708 60.7121 123.332 60.7121 123.86C60.7121 124.832 61.8761 125.132 62.6321 125.132C63.4241 125.132 63.9761 124.652 64.2041 124.088C64.2521 124.568 64.5761 125.072 65.1401 125.072C65.3921 125.072 66.1241 124.904 66.1241 123.932ZM64.1201 123.32C64.1201 124.46 63.2561 124.868 62.7161 124.868C62.1281 124.868 61.6361 124.448 61.6361 123.848C61.6361 123.188 62.1401 122.192 64.1201 122.12V123.32ZM70.6961 120.428C70.6961 120.044 70.3241 119.696 69.8081 119.696C68.9321 119.696 68.5001 120.5 68.3321 121.016V119.696L66.6641 119.828V120.2C67.5041 120.2 67.6001 120.284 67.6001 120.872V124.088C67.6001 124.628 67.4681 124.628 66.6641 124.628V125L68.0321 124.964C68.5121 124.964 69.0761 124.964 69.5561 125V124.628H69.3041C68.4161 124.628 68.3921 124.496 68.3921 124.064V122.216C68.3921 121.028 68.8961 119.96 69.8081 119.96C69.8921 119.96 69.9161 119.96 69.9401 119.972C69.9041 119.984 69.6641 120.128 69.6641 120.44C69.6641 120.776 69.9161 120.956 70.1801 120.956C70.3961 120.956 70.6961 120.812 70.6961 120.428ZM76.0073 123.572C76.0073 123.452 75.9113 123.428 75.8513 123.428C75.7433 123.428 75.7193 123.5 75.6953 123.596C75.2753 124.832 74.1953 124.832 74.0753 124.832C73.4753 124.832 72.9953 124.472 72.7193 124.028C72.3593 123.452 72.3593 122.66 72.3593 122.228H75.7073C75.9713 122.228 76.0073 122.228 76.0073 121.976C76.0073 120.788 75.3593 119.624 73.8593 119.624C72.4673 119.624 71.3633 120.86 71.3633 122.36C71.3633 123.968 72.6233 125.132 74.0033 125.132C75.4673 125.132 76.0073 123.8 76.0073 123.572ZM75.2153 121.976H72.3713C72.4433 120.188 73.4513 119.888 73.8593 119.888C75.0953 119.888 75.2153 121.508 75.2153 121.976ZM80.3434 123.512V122.828H80.0434V123.488C80.0434 124.376 79.6834 124.832 79.2394 124.832C78.4354 124.832 78.4354 123.74 78.4354 123.536V120.2H80.1514V119.828H78.4354V117.62H78.1354C78.1234 118.604 77.7634 119.888 76.5874 119.936V120.2H77.6074V123.512C77.6074 124.988 78.7234 125.132 79.1554 125.132C80.0074 125.132 80.3434 124.28 80.3434 123.512ZM86.6754 122.432C86.6754 120.896 85.4754 119.624 84.0234 119.624C82.5234 119.624 81.3594 120.932 81.3594 122.432C81.3594 123.98 82.6074 125.132 84.0114 125.132C85.4634 125.132 86.6754 123.956 86.6754 122.432ZM85.6794 122.336C85.6794 122.768 85.6794 123.416 85.4154 123.944C85.1514 124.484 84.6234 124.832 84.0234 124.832C83.5074 124.832 82.9794 124.58 82.6554 124.028C82.3554 123.5 82.3554 122.768 82.3554 122.336C82.3554 121.868 82.3554 121.22 82.6434 120.692C82.9674 120.14 83.5314 119.888 84.0114 119.888C84.5394 119.888 85.0554 120.152 85.3674 120.668C85.6794 121.184 85.6794 121.88 85.6794 122.336ZM95.3035 117.38C95.3035 116.936 94.8595 116.54 94.2235 116.54C93.3835 116.54 92.3635 117.176 92.3635 118.448V119.828H91.4155V120.2H92.3635V124.088C92.3635 124.628 92.2315 124.628 91.4275 124.628V125L92.7955 124.964C93.2755 124.964 93.8395 124.964 94.3195 125V124.628H94.0675C93.1795 124.628 93.1555 124.496 93.1555 124.064V120.2H94.5235V119.828H93.1195V118.436C93.1195 117.38 93.6955 116.804 94.2235 116.804C94.2595 116.804 94.4395 116.804 94.6195 116.888C94.4755 116.936 94.2595 117.092 94.2595 117.392C94.2595 117.668 94.4515 117.908 94.7755 117.908C95.1235 117.908 95.3035 117.668 95.3035 117.38ZM99.0555 120.428C99.0555 120.044 98.6835 119.696 98.1675 119.696C97.2915 119.696 96.8595 120.5 96.6915 121.016V119.696L95.0235 119.828V120.2C95.8635 120.2 95.9595 120.284 95.9595 120.872V124.088C95.9595 124.628 95.8275 124.628 95.0235 124.628V125L96.3915 124.964C96.8715 124.964 97.4355 124.964 97.9155 125V124.628H97.6635C96.7755 124.628 96.7515 124.496 96.7515 124.064V122.216C96.7515 121.028 97.2555 119.96 98.1675 119.96C98.2515 119.96 98.2755 119.96 98.2995 119.972C98.2635 119.984 98.0235 120.128 98.0235 120.44C98.0235 120.776 98.2755 120.956 98.5395 120.956C98.7555 120.956 99.0555 120.812 99.0555 120.428ZM105.039 122.432C105.039 120.896 103.839 119.624 102.387 119.624C100.887 119.624 99.7227 120.932 99.7227 122.432C99.7227 123.98 100.971 125.132 102.375 125.132C103.827 125.132 105.039 123.956 105.039 122.432ZM104.043 122.336C104.043 122.768 104.043 123.416 103.779 123.944C103.515 124.484 102.987 124.832 102.387 124.832C101.871 124.832 101.343 124.58 101.019 124.028C100.719 123.5 100.719 122.768 100.719 122.336C100.719 121.868 100.719 121.22 101.007 120.692C101.331 120.14 101.895 119.888 102.375 119.888C102.903 119.888 103.419 120.152 103.731 120.668C104.043 121.184 104.043 121.88 104.043 122.336ZM111.807 125V124.628C111.183 124.628 110.883 124.628 110.871 124.268V121.976C110.871 120.944 110.871 120.572 110.499 120.14C110.331 119.936 109.935 119.696 109.239 119.696C108.363 119.696 107.799 120.212 107.463 120.956V119.696L105.771 119.828V120.2C106.611 120.2 106.707 120.284 106.707 120.872V124.088C106.707 124.628 106.575 124.628 105.771 124.628V125L107.127 124.964L108.471 125V124.628C107.667 124.628 107.535 124.628 107.535 124.088V121.88C107.535 120.632 108.387 119.96 109.155 119.96C109.911 119.96 110.043 120.608 110.043 121.292V124.088C110.043 124.628 109.911 124.628 109.107 124.628V125L110.463 124.964L111.807 125ZM115.699 123.512V122.828H115.399V123.488C115.399 124.376 115.039 124.832 114.595 124.832C113.791 124.832 113.791 123.74 113.791 123.536V120.2H115.507V119.828H113.791V117.62H113.491C113.479 118.604 113.119 119.888 111.943 119.936V120.2H112.963V123.512C112.963 124.988 114.079 125.132 114.511 125.132C115.363 125.132 115.699 124.28 115.699 123.512Z" fill="black"/>
<defs>
<clipPath id="clip0">
<rect width="225" height="176" fill="white" transform="translate(4 30)"/>
</clipPath>
</defs>
</svg>
